  0
SECTION
  2
ENTITIES
  0
TEXT
  8
PG-AA
 10
482886.35
 20
4630456.76
 40
.4
 50
0.0
  1
a
 72
1
 73
3
 11
482886.35
 21
4630456.76
  0
TEXT
  8
PG-AS
 10
482886.35
 20
4630456.76
 40
.4
 50
0.0
  1
50548
 72
1
 73
1
 11
482886.35
 21
4630456.76
  0
TEXT
  8
PG-AA
 10
483097.56
 20
4630325.18
 40
.4
 50
0.0
  1
h
 72
1
 73
3
 11
483097.56
 21
4630325.18
  0
TEXT
  8
PG-AS
 10
483097.56
 20
4630325.18
 40
.4
 50
0.0
  1
30786
 72
1
 73
1
 11
483097.56
 21
4630325.18
  0
TEXT
  8
PG-AA
 10
483047.68
 20
4630257.68
 40
.4
 50
0.0
  1
g
 72
1
 73
3
 11
483047.68
 21
4630257.68
  0
TEXT
  8
PG-AS
 10
483047.68
 20
4630257.68
 40
.4
 50
0.0
  1
12
 72
1
 73
1
 11
483047.68
 21
4630257.68
  0
TEXT
  8
PG-AA
 10
483224.19
 20
4630197.11
 40
.4
 50
0.0
  1
e
 72
1
 73
3
 11
483224.19
 21
4630197.11
  0
TEXT
  8
PG-AS
 10
483224.19
 20
4630197.11
 40
.4
 50
0.0
  1
7551
 72
1
 73
1
 11
483224.19
 21
4630197.11
  0
TEXT
  8
PG-AA
 10
483082.6
 20
4630477.32
 40
.4
 50
0.0
  1
c
 72
1
 73
3
 11
483082.6
 21
4630477.32
  0
TEXT
  8
PG-AS
 10
483082.6
 20
4630477.32
 40
.4
 50
0.0
  1
10210
 72
1
 73
1
 11
483082.6
 21
4630477.32
  0
TEXT
  8
PG-AA
 10
483038.46
 20
4630473.53
 40
.4
 50
0.0
  1
b
 72
1
 73
3
 11
483038.46
 21
4630473.53
  0
TEXT
  8
PG-AS
 10
483038.46
 20
4630473.53
 40
.4
 50
0.0
  1
4234
 72
1
 73
1
 11
483038.46
 21
4630473.53
  0
TEXT
  8
PG-AA
 10
483186.34
 20
4630373.45
 40
.4
 50
0.0
  1
d
 72
1
 73
3
 11
483186.34
 21
4630373.45
  0
TEXT
  8
PG-AS
 10
483186.34
 20
4630373.45
 40
.4
 50
0.0
  1
20205
 72
1
 73
1
 11
483186.34
 21
4630373.45
  0
TEXT
  8
PG-AA
 10
483044.54
 20
4630220.12
 40
.4
 50
0.0
  1
f
 72
1
 73
3
 11
483044.54
 21
4630220.12
  0
TEXT
  8
PG-AS
 10
483044.54
 20
4630220.12
 40
.4
 50
0.0
  1
3521
 72
1
 73
1
 11
483044.54
 21
4630220.12
  0
TEXT
  8
PG-AA
 10
483017.09
 20
4630362.63
 40
.4
 50
0.0
  1
SS
 72
1
 73
3
 11
483017.09
 21
4630362.63
  0
TEXT
  8
PG-AS
 10
483017.09
 20
4630362.63
 40
.4
 50
0.0
  1
99
 72
1
 73
1
 11
483017.09
 21
4630362.63
  0
TEXT
  8
PG-AA
 10
483023.8
 20
4630366.96
 40
.4
 50
0.0
  1
PI
 72
1
 73
3
 11
483023.8
 21
4630366.96
  0
TEXT
  8
PG-AS
 10
483023.8
 20
4630366.96
 40
.4
 50
0.0
  1
313
 72
1
 73
1
 11
483023.8
 21
4630366.96
  0
TEXT
  8
PG-AA
 10
483033.06
 20
4630424.36
 40
.4
 50
0.0
  1
POR
 72
1
 73
3
 11
483033.06
 21
4630424.36
  0
TEXT
  8
PG-AS
 10
483033.06
 20
4630424.36
 40
.4
 50
0.0
  1
52
 72
1
 73
1
 11
483033.06
 21
4630424.36
  0
TEXT
  8
PG-AA
 10
483034.58
 20
4630429.7
 40
.4
 50
0.0
  1
I
 72
1
 73
3
 11
483034.58
 21
4630429.7
  0
TEXT
  8
PG-AS
 10
483034.58
 20
4630429.7
 40
.4
 50
0.0
  1
242
 72
1
 73
1
 11
483034.58
 21
4630429.7
  0
TEXT
  8
PG-AA
 10
483088.71
 20
4630251.21
 40
.4
 50
0.0
  1
FUT
 72
1
 73
3
 11
483088.71
 21
4630251.21
  0
TEXT
  8
PG-AS
 10
483088.71
 20
4630251.21
 40
.4
 50
0.0
  1
3762
 72
1
 73
1
 11
483088.71
 21
4630251.21
  0
TEXT
  8
PG-AA
 10
483061.21
 20
4630418.51
 40
.4
 50
0.0
  1
I
 72
1
 73
3
 11
483061.21
 21
4630418.51
  0
TEXT
  8
PG-AS
 10
483061.21
 20
4630418.51
 40
.4
 50
0.0
  1
50
 72
1
 73
1
 11
483061.21
 21
4630418.51
  0
TEXT
  8
PG-AA
 10
483062.15
 20
4630426.6
 40
.4
 50
0.0
  1
-I+I
 72
1
 73
3
 11
483062.15
 21
4630426.6
  0
TEXT
  8
PG-AS
 10
483062.15
 20
4630426.6
 40
.4
 50
0.0
  1
58
 72
1
 73
1
 11
483062.15
 21
4630426.6
  0
TEXT
  8
PG-AA
 10
483066.69
 20
4630409.36
 40
.4
 50
0.0
  1
III
 72
1
 73
3
 11
483066.69
 21
4630409.36
  0
TEXT
  8
PG-AS
 10
483066.69
 20
4630409.36
 40
.4
 50
0.0
  1
399
 72
1
 73
1
 11
483066.69
 21
4630409.36
  0
TEXT
  8
PG-AA
 10
483074.12
 20
4630423.76
 40
.4
 50
0.0
  1
-I+III
 72
1
 73
3
 11
483074.12
 21
4630423.76
  0
TEXT
  8
PG-AS
 10
483074.12
 20
4630423.76
 40
.4
 50
0.0
  1
106
 72
1
 73
1
 11
483074.12
 21
4630423.76
  0
TEXT
  8
PG-AA
 10
483074.63
 20
4630428.09
 40
.4
 50
0.0
  1
-I+I
 72
1
 73
3
 11
483074.63
 21
4630428.09
  0
TEXT
  8
PG-AS
 10
483074.63
 20
4630428.09
 40
.4
 50
0.0
  1
50
 72
1
 73
1
 11
483074.63
 21
4630428.09
  0
TEXT
  8
PG-AA
 10
483076.94
 20
4630355.4
 40
.4
 50
0.0
  1
I
 72
1
 73
3
 11
483076.94
 21
4630355.4
  0
TEXT
  8
PG-AS
 10
483076.94
 20
4630355.4
 40
.4
 50
0.0
  1
100
 72
1
 73
1
 11
483076.94
 21
4630355.4
  0
TEXT
  8
PG-AA
 10
483093.93
 20
4630297.49
 40
.4
 50
0.0
  1
ZD
 72
1
 73
3
 11
483093.93
 21
4630297.49
  0
TEXT
  8
PG-AS
 10
483093.93
 20
4630297.49
 40
.4
 50
0.0
  1
1176
 72
1
 73
1
 11
483093.93
 21
4630297.49
  0
TEXT
  8
PG-AA
 10
483072.42
 20
4630408.16
 40
.4
 50
0.0
  1
II
 72
1
 73
3
 11
483072.42
 21
4630408.16
  0
TEXT
  8
PG-AS
 10
483072.42
 20
4630408.16
 40
.4
 50
0.0
  1
25
 72
1
 73
1
 11
483072.42
 21
4630408.16
  0
TEXT
  8
PG-AA
 10
483074.95
 20
4630430.92
 40
.4
 50
0.0
  1
-I
 72
1
 73
3
 11
483074.95
 21
4630430.92
  0
TEXT
  8
PG-AS
 10
483074.95
 20
4630430.92
 40
.4
 50
0.0
  1
17
 72
1
 73
1
 11
483074.95
 21
4630430.92
  0
TEXT
  8
PG-AA
 10
483073.23
 20
4630415.1
 40
.4
 50
0.0
  1
I
 72
1
 73
3
 11
483073.23
 21
4630415.1
  0
TEXT
  8
PG-AS
 10
483073.23
 20
4630415.1
 40
.4
 50
0.0
  1
11
 72
1
 73
1
 11
483073.23
 21
4630415.1
  0
TEXT
  8
PG-AA
 10
483085.49
 20
4630415.61
 40
.4
 50
0.0
  1
I
 72
1
 73
3
 11
483085.49
 21
4630415.61
  0
TEXT
  8
PG-AS
 10
483085.49
 20
4630415.61
 40
.4
 50
0.0
  1
50
 72
1
 73
1
 11
483085.49
 21
4630415.61
  0
TEXT
  8
PG-AA
 10
483086.42
 20
4630423.7
 40
.4
 50
0.0
  1
-I+I
 72
1
 73
3
 11
483086.42
 21
4630423.7
  0
TEXT
  8
PG-AS
 10
483086.42
 20
4630423.7
 40
.4
 50
0.0
  1
58
 72
1
 73
1
 11
483086.42
 21
4630423.7
  0
TEXT
  8
PG-AA
 10
483097.75
 20
4630334.36
 40
.4
 50
0.0
  1
TEN
 72
1
 73
3
 11
483097.75
 21
4630334.36
  0
TEXT
  8
PG-AS
 10
483097.75
 20
4630334.36
 40
.4
 50
0.0
  1
661
 72
1
 73
1
 11
483097.75
 21
4630334.36
  0
TEXT
  8
PG-AA
 10
483121.36
 20
4630385.91
 40
.4
 50
0.0
  1
I
 72
1
 73
3
 11
483121.36
 21
4630385.91
  0
TEXT
  8
PG-AS
 10
483121.36
 20
4630385.91
 40
.4
 50
0.0
  1
183
 72
1
 73
1
 11
483121.36
 21
4630385.91
  0
TEXT
  8
PG-AA
 10
483131.93
 20
4630406.59
 40
.4
 50
0.0
  1
I
 72
1
 73
3
 11
483131.93
 21
4630406.59
  0
TEXT
  8
PG-AS
 10
483131.93
 20
4630406.59
 40
.4
 50
0.0
  1
1156
 72
1
 73
1
 11
483131.93
 21
4630406.59
  0
TEXT
  8
PG-AA
 10
483145.83
 20
4630204.95
 40
.4
 50
0.0
  1
I
 72
1
 73
3
 11
483145.83
 21
4630204.95
  0
TEXT
  8
PG-AS
 10
483145.83
 20
4630204.95
 40
.4
 50
0.0
  1
243
 72
1
 73
1
 11
483145.83
 21
4630204.95
  0
TEXT
  8
PG-AA
 10
483149.19
 20
4630286.71
 40
.4
 50
0.0
  1
ZD
 72
1
 73
3
 11
483149.19
 21
4630286.71
  0
TEXT
  8
PG-AS
 10
483149.19
 20
4630286.71
 40
.4
 50
0.0
  1
459
 72
1
 73
1
 11
483149.19
 21
4630286.71
  0
TEXT
  8
PG-AA
 10
483153.08
 20
4630231.61
 40
.4
 50
0.0
  1
I
 72
1
 73
3
 11
483153.08
 21
4630231.61
  0
TEXT
  8
PG-AS
 10
483153.08
 20
4630231.61
 40
.4
 50
0.0
  1
667
 72
1
 73
1
 11
483153.08
 21
4630231.61
  0
TEXT
  8
PG-AA
 10
483159.43
 20
4630340.04
 40
.4
 50
0.0
  1
-I
 72
1
 73
3
 11
483159.43
 21
4630340.04
  0
TEXT
  8
PG-AS
 10
483159.43
 20
4630340.04
 40
.4
 50
0.0
  1
48
 72
1
 73
1
 11
483159.43
 21
4630340.04
  0
TEXT
  8
PG-AA
 10
483164.36
 20
4630337.25
 40
.4
 50
0.0
  1
-I+I
 72
1
 73
3
 11
483164.36
 21
4630337.25
  0
TEXT
  8
PG-AS
 10
483164.36
 20
4630337.25
 40
.4
 50
0.0
  1
84
 72
1
 73
1
 11
483164.36
 21
4630337.25
  0
TEXT
  8
PG-AA
 10
483169.55
 20
4630329.64
 40
.4
 50
0.0
  1
I
 72
1
 73
3
 11
483169.55
 21
4630329.64
  0
TEXT
  8
PG-AS
 10
483169.55
 20
4630329.64
 40
.4
 50
0.0
  1
56
 72
1
 73
1
 11
483169.55
 21
4630329.64
  0
TEXT
  8
PG-AA
 10
483171.64
 20
4630339.36
 40
.4
 50
0.0
  1
-I+II
 72
1
 73
3
 11
483171.64
 21
4630339.36
  0
TEXT
  8
PG-AS
 10
483171.64
 20
4630339.36
 40
.4
 50
0.0
  1
58
 72
1
 73
1
 11
483171.64
 21
4630339.36
  0
TEXT
  8
PG-AA
 10
483174.51
 20
4630342.92
 40
.4
 50
0.0
  1
II
 72
1
 73
3
 11
483174.51
 21
4630342.92
  0
TEXT
  8
PG-AS
 10
483174.51
 20
4630342.92
 40
.4
 50
0.0
  1
22
 72
1
 73
1
 11
483174.51
 21
4630342.92
  0
TEXT
  8
PG-AA
 10
483180.97
 20
4630336.44
 40
.4
 50
0.0
  1
I
 72
1
 73
3
 11
483180.97
 21
4630336.44
  0
TEXT
  8
PG-AS
 10
483180.97
 20
4630336.44
 40
.4
 50
0.0
  1
75
 72
1
 73
1
 11
483180.97
 21
4630336.44
  0
LINE
  8
PG-LP
 10
482716.946
 20
4630612.021
 11
482720.606
 21
4630615.641
  0
POLYLINE
  8
PG-LP
 66
1
  0
VERTEX
 8
PG-LP
 10
482861.2045
 20
4630363.9695
  0
VERTEX
 8
PG-LP
 10
482860.5245
 20
4630364.7695
  0
VERTEX
 8
PG-LP
 10
482841.9245
 20
4630386.49
  0
VERTEX
 8
PG-LP
 10
482822.7545
 20
4630412.76
  0
VERTEX
 8
PG-LP
 10
482803.585
 20
4630439.0405
  0
VERTEX
 8
PG-LP
 10
482784.025
 20
4630466.2605
  0
VERTEX
 8
PG-LP
 10
482764.465
 20
4630493.4905
  0
VERTEX
 8
PG-LP
 10
482728.4255
 20
4630546.471
  0
VERTEX
 8
PG-LP
 10
482709.2255
 20
4630574.701
  0
VERTEX
 8
PG-LP
 10
482708.2055
 20
4630576.201
  0
VERTEX
 8
PG-LP
 10
482707.4955
 20
4630577.221
  0
VERTEX
 8
PG-LP
 10
482697.266
 20
4630592.5215
  0
VERTEX
 8
PG-LP
 10
482716.946
 20
4630612.021
  0
SEQEND
  8
0
  0
POLYLINE
  8
PG-LI
 66
1
  0
VERTEX
 8
PG-LI
 10
482716.946
 20
4630612.021
  0
VERTEX
 8
PG-LI
 10
482763.93
 20
4630601.11
  0
VERTEX
 8
PG-LI
 10
482830.33
 20
4630573.94
  0
VERTEX
 8
PG-LI
 10
482890.26
 20
4630544.19
  0
VERTEX
 8
PG-LI
 10
482924.12
 20
4630529.34
  0
VERTEX
 8
PG-LI
 10
482945.0
 20
4630522.02
  0
VERTEX
 8
PG-LI
 10
482959.92
 20
4630511.97
  0
SEQEND
  8
0
  0
POLYLINE
  8
PG-LP
 66
1
  0
VERTEX
 8
PG-LP
 10
482720.606
 20
4630615.641
  0
VERTEX
 8
PG-LP
 10
482743.886
 20
4630607.831
  0
VERTEX
 8
PG-LP
 10
482811.226
 20
4630586.2005
  0
VERTEX
 8
PG-LP
 10
482826.126
 20
4630581.4105
  0
VERTEX
 8
PG-LP
 10
482826.496
 20
4630581.2905
  0
VERTEX
 8
PG-LP
 10
482841.156
 20
4630576.14
  0
VERTEX
 8
PG-LP
 10
482843.846
 20
4630574.94
  0
VERTEX
 8
PG-LP
 10
482869.486
 20
4630563.46
  0
VERTEX
 8
PG-LP
 10
482893.456
 20
4630550.99
  0
VERTEX
 8
PG-LP
 10
482938.3555
 20
4630532.4395
  0
SEQEND
  8
0
  0
POLYLINE
  8
PG-LP
 66
1
  0
VERTEX
 8
PG-LP
 10
483267.2335
 20
4630151.5755
  0
VERTEX
 8
PG-LP
 10
483217.593
 20
4630108.9965
  0
VERTEX
 8
PG-LP
 10
483206.103
 20
4630122.8965
  0
VERTEX
 8
PG-LP
 10
483197.353
 20
4630133.737
  0
VERTEX
 8
PG-LP
 10
483186.113
 20
4630144.057
  0
VERTEX
 8
PG-LP
 10
483174.863
 20
4630154.387
  0
VERTEX
 8
PG-LP
 10
483161.313
 20
4630159.857
  0
VERTEX
 8
PG-LP
 10
483147.7735
 20
4630165.327
  0
VERTEX
 8
PG-LP
 10
483133.2535
 20
4630171.5575
  0
VERTEX
 8
PG-LP
 10
483118.7435
 20
4630177.7875
  0
VERTEX
 8
PG-LP
 10
483104.6735
 20
4630184.6475
  0
VERTEX
 8
PG-LP
 10
483090.6035
 20
4630191.5175
  0
VERTEX
 8
PG-LP
 10
483070.1135
 20
4630202.898
  0
VERTEX
 8
PG-LP
 10
483049.6335
 20
4630214.288
  0
VERTEX
 8
PG-LP
 10
482991.9935
 20
4630249.3685
  0
VERTEX
 8
PG-LP
 10
482969.454
 20
4630269.509
  0
VERTEX
 8
PG-LP
 10
482946.904
 20
4630289.649
  0
VERTEX
 8
PG-LP
 10
482927.114
 20
4630301.549
  0
VERTEX
 8
PG-LP
 10
482907.334
 20
4630313.4595
  0
VERTEX
 8
PG-LP
 10
482888.024
 20
4630334.3295
  0
VERTEX
 8
PG-LP
 10
482868.7245
 20
4630355.1995
  0
VERTEX
 8
PG-LP
 10
482861.2045
 20
4630363.9695
  0
SEQEND
  8
0
  0
LINE
  8
PG-LI
 10
482871.37
 20
4630357.04
 11
482861.2045
 21
4630363.9695
  0
POLYLINE
  8
PG-LI
 66
1
  0
VERTEX
 8
PG-LI
 10
483042.04
 20
4630227.41
  0
VERTEX
 8
PG-LI
 10
483040.98
 20
4630227.84
  0
VERTEX
 8
PG-LI
 10
483023.0
 20
4630237.8
  0
VERTEX
 8
PG-LI
 10
483003.37
 20
4630244.34
  0
VERTEX
 8
PG-LI
 10
482988.99
 20
4630262.68
  0
VERTEX
 8
PG-LI
 10
482971.31
 20
4630278.17
  0
VERTEX
 8
PG-LI
 10
482930.32
 20
4630310.77
  0
VERTEX
 8
PG-LI
 10
482916.54
 20
4630317.63
  0
VERTEX
 8
PG-LI
 10
482913.48
 20
4630316.49
  0
VERTEX
 8
PG-LI
 10
482900.61
 20
4630324.91
  0
VERTEX
 8
PG-LI
 10
482890.97
 20
4630341.54
  0
VERTEX
 8
PG-LI
 10
482880.39
 20
4630351.49
  0
VERTEX
 8
PG-LI
 10
482871.37
 20
4630357.04
  0
SEQEND
  8
0
  0
POLYLINE
  8
PG-LP
 66
1
  0
VERTEX
 8
PG-LP
 10
482938.3555
 20
4630532.4395
  0
VERTEX
 8
PG-LP
 10
482950.446
 20
4630534.4695
  0
VERTEX
 8
PG-LP
 10
482962.376
 20
4630536.479
  0
VERTEX
 8
PG-LP
 10
483014.586
 20
4630520.869
  0
VERTEX
 8
PG-LP
 10
483014.816
 20
4630520.789
  0
VERTEX
 8
PG-LP
 10
483045.4855
 20
4630510.3785
  0
VERTEX
 8
PG-LP
 10
483102.5455
 20
4630490.558
  0
VERTEX
 8
PG-LP
 10
483172.6755
 20
4630470.1575
  0
VERTEX
 8
PG-LP
 10
483272.6755
 20
4630442.5065
  0
VERTEX
 8
PG-LP
 10
483288.7555
 20
4630439.8465
  0
VERTEX
 8
PG-LP
 10
483303.6055
 20
4630442.1565
  0
VERTEX
 8
PG-LP
 10
483313.9555
 20
4630449.0665
  0
VERTEX
 8
PG-LP
 10
483324.2955
 20
4630455.9865
  0
VERTEX
 8
PG-LP
 10
483342.136
 20
4630463.776
  0
VERTEX
 8
PG-LP
 10
483361.126
 20
4630469.756
  0
VERTEX
 8
PG-LP
 10
483300.9205
 20
4630413.2635
  0
SEQEND
  8
0
  0
LINE
  8
PG-LI
 10
482960.97
 20
4630518.84
 11
482938.3555
 21
4630532.4395
  0
LINE
  8
PG-LI
 10
482959.92
 20
4630511.97
 11
482969.93
 21
4630474.93
  0
POLYLINE
  8
PG-LI
 66
1
  0
VERTEX
 8
PG-LI
 10
483300.9205
 20
4630413.2635
  0
VERTEX
 8
PG-LI
 10
483298.2955
 20
4630413.9365
  0
VERTEX
 8
PG-LI
 10
483209.01
 20
4630436.83
  0
VERTEX
 8
PG-LI
 10
483147.48
 20
4630457.79
  0
VERTEX
 8
PG-LI
 10
483118.44
 20
4630459.5
  0
VERTEX
 8
PG-LI
 10
483098.01
 20
4630462.38
  0
VERTEX
 8
PG-LI
 10
483086.65
 20
4630464.07
  0
VERTEX
 8
PG-LI
 10
483069.28
 20
4630465.84
  0
VERTEX
 8
PG-LI
 10
483043.12
 20
4630477.19
  0
VERTEX
 8
PG-LI
 10
483015.72
 20
4630486.38
  0
VERTEX
 8
PG-LI
 10
482985.32
 20
4630500.1
  0
VERTEX
 8
PG-LI
 10
482964.36
 20
4630514.16
  0
VERTEX
 8
PG-LI
 10
482960.97
 20
4630518.84
  0
SEQEND
  8
0
  0
LINE
  8
PG-LI
 10
482969.93
 20
4630474.93
 11
482981.0
 21
4630475.59
  0
POLYLINE
  8
PG-LI
 66
1
  0
VERTEX
 8
PG-LI
 10
482969.93
 20
4630474.93
  0
VERTEX
 8
PG-LI
 10
482973.78
 20
4630441.11
  0
VERTEX
 8
PG-LI
 10
482975.08
 20
4630411.31
  0
VERTEX
 8
PG-LI
 10
482975.12
 20
4630402.64
  0
VERTEX
 8
PG-LI
 10
482987.48
 20
4630385.95
  0
VERTEX
 8
PG-LI
 10
483000.8
 20
4630367.49
  0
VERTEX
 8
PG-LI
 10
483006.13
 20
4630356.31
  0
VERTEX
 8
PG-LI
 10
483021.47
 20
4630328.99
  0
VERTEX
 8
PG-LI
 10
483044.68
 20
4630294.78
  0
VERTEX
 8
PG-LI
 10
483052.79
 20
4630296.74
  0
VERTEX
 8
PG-LI
 10
483055.39
 20
4630277.65
  0
VERTEX
 8
PG-LI
 10
483052.22
 20
4630255.32
  0
VERTEX
 8
PG-LI
 10
483042.04
 20
4630227.41
  0
SEQEND
  8
0
  0
LINE
  8
PG-LI
 10
482982.92
 20
4630495.64
 11
482981.0
 21
4630475.59
  0
POLYLINE
  8
PG-LI
 66
1
  0
VERTEX
 8
PG-LI
 10
482981.0
 20
4630475.59
  0
VERTEX
 8
PG-LI
 10
482995.95
 20
4630458.05
  0
VERTEX
 8
PG-LI
 10
483037.19
 20
4630449.29
  0
VERTEX
 8
PG-LI
 10
483058.51
 20
4630449.42
  0
VERTEX
 8
PG-LI
 10
483059.98
 20
4630441.29
  0
VERTEX
 8
PG-LI
 10
483082.6
 20
4630438.53
  0
VERTEX
 8
PG-LI
 10
483083.4
 20
4630438.18
  0
VERTEX
 8
PG-LI
 10
483099.2
 20
4630437.52
  0
VERTEX
 8
PG-LI
 10
483107.32
 20
4630428.51
  0
VERTEX
 8
PG-LI
 10
483114.44
 20
4630426.33
  0
VERTEX
 8
PG-LI
 10
483140.0
 20
4630423.82
  0
VERTEX
 8
PG-LI
 10
483153.08
 20
4630417.91
  0
VERTEX
 8
PG-LI
 10
483150.72
 20
4630394.34
  0
VERTEX
 8
PG-LI
 10
483150.74
 20
4630379.42
  0
VERTEX
 8
PG-LI
 10
483182.58
 20
4630360.46
  0
VERTEX
 8
PG-LI
 10
483184.19
 20
4630341.62
  0
SEQEND
  8
0
  0
POLYLINE
  8
PG-LI
 66
1
  0
VERTEX
 8
PG-LI
 10
483294.6585
 20
4630407.3875
  0
VERTEX
 8
PG-LI
 10
483291.9155
 20
4630408.0265
  0
VERTEX
 8
PG-LI
 10
483226.02
 20
4630423.38
  0
VERTEX
 8
PG-LI
 10
483178.5
 20
4630440.53
  0
VERTEX
 8
PG-LI
 10
483152.13
 20
4630448.2
  0
VERTEX
 8
PG-LI
 10
483126.44
 20
4630452.7
  0
VERTEX
 8
PG-LI
 10
483090.47
 20
4630454.96
  0
VERTEX
 8
PG-LI
 10
483058.85
 20
4630464.24
  0
VERTEX
 8
PG-LI
 10
483023.49
 20
4630476.66
  0
VERTEX
 8
PG-LI
 10
482990.13
 20
4630492.9
  0
VERTEX
 8
PG-LI
 10
482982.92
 20
4630495.64
  0
SEQEND
  8
0
  0
LINE
  8
PG-LI
 10
483022.23
 20
4630380.83
 11
483011.73
 21
4630374.08
  0
POLYLINE
  8
PG-LI
 66
1
  0
VERTEX
 8
PG-LI
 10
483011.73
 20
4630374.08
  0
VERTEX
 8
PG-LI
 10
483011.54
 20
4630374.37
  0
VERTEX
 8
PG-LI
 10
483008.31
 20
4630372.29
  0
VERTEX
 8
PG-LI
 10
483022.34
 20
4630350.7
  0
VERTEX
 8
PG-LI
 10
483025.58
 20
4630352.78
  0
VERTEX
 8
PG-LI
 10
483025.39
 20
4630353.08
  0
SEQEND
  8
0
  0
LINE
  8
PG-LI
 10
483011.73
 20
4630374.08
 11
483025.39
 21
4630353.08
  0
LINE
  8
PG-LI
 10
483022.4
 20
4630436.09
 11
483021.32
 21
4630426.71
  0
POLYLINE
  8
PG-LI
 66
1
  0
VERTEX
 8
PG-LI
 10
483021.32
 20
4630426.71
  0
VERTEX
 8
PG-LI
 10
483019.54
 20
4630426.92
  0
VERTEX
 8
PG-LI
 10
483019.32
 20
4630425.04
  0
VERTEX
 8
PG-LI
 10
483046.58
 20
4630421.79
  0
VERTEX
 8
PG-LI
 10
483046.8
 20
4630423.67
  0
SEQEND
  8
0
  0
LINE
  8
PG-LI
 10
483021.32
 20
4630426.71
 11
483046.8
 21
4630423.67
  0
POLYLINE
  8
PG-LI
 66
1
  0
VERTEX
 8
PG-LI
 10
483025.39
 20
4630353.08
  0
VERTEX
 8
PG-LI
 10
483035.88
 20
4630359.83
  0
VERTEX
 8
PG-LI
 10
483022.23
 20
4630380.83
  0
SEQEND
  8
0
  0
POLYLINE
  8
PG-LI
 66
1
  0
VERTEX
 8
PG-LI
 10
483046.8
 20
4630423.67
  0
VERTEX
 8
PG-LI
 10
483047.88
 20
4630433.05
  0
VERTEX
 8
PG-LI
 10
483022.4
 20
4630436.09
  0
SEQEND
  8
0
  0
LINE
  8
PG-LI
 10
483042.93
 20
4630223.83
 11
483042.04
 21
4630227.41
  0
POLYLINE
  8
PG-LI
 66
1
  0
VERTEX
 8
PG-LI
 10
483186.77
 20
4630156.29
  0
VERTEX
 8
PG-LI
 10
483178.62
 20
4630159.58
  0
VERTEX
 8
PG-LI
 10
483169.76
 20
4630163.96
  0
VERTEX
 8
PG-LI
 10
483153.87
 20
4630170.31
  0
VERTEX
 8
PG-LI
 10
483138.72
 20
4630177.93
  0
VERTEX
 8
PG-LI
 10
483122.69
 20
4630184.81
  0
VERTEX
 8
PG-LI
 10
483105.2
 20
4630195.73
  0
VERTEX
 8
PG-LI
 10
483087.01
 20
4630202.06
  0
VERTEX
 8
PG-LI
 10
483067.97
 20
4630213.98
  0
VERTEX
 8
PG-LI
 10
483051.75
 20
4630218.48
  0
VERTEX
 8
PG-LI
 10
483042.93
 20
4630223.83
  0
SEQEND
  8
0
  0
POLYLINE
  8
PG-LI
 66
1
  0
VERTEX
 8
PG-LI
 10
483046.4
 20
4630259.23
  0
VERTEX
 8
PG-LI
 10
483045.99
 20
4630258.75
  0
VERTEX
 8
PG-LI
 10
483045.74
 20
4630258.17
  0
VERTEX
 8
PG-LI
 10
483045.68
 20
4630257.68
  0
VERTEX
 8
PG-LI
 10
483045.78
 20
4630257.06
  0
VERTEX
 8
PG-LI
 10
483046.08
 20
4630256.5
  0
VERTEX
 8
PG-LI
 10
483046.53
 20
4630256.05
  0
VERTEX
 8
PG-LI
 10
483047.1
 20
4630255.77
  0
VERTEX
 8
PG-LI
 10
483047.73
 20
4630255.69
  0
VERTEX
 8
PG-LI
 10
483048.35
 20
4630255.8
  0
VERTEX
 8
PG-LI
 10
483048.91
 20
4630256.1
  0
VERTEX
 8
PG-LI
 10
483049.34
 20
4630256.56
  0
VERTEX
 8
PG-LI
 10
483049.61
 20
4630257.13
  0
VERTEX
 8
PG-LI
 10
483049.68
 20
4630257.76
  0
VERTEX
 8
PG-LI
 10
483049.56
 20
4630258.37
  0
VERTEX
 8
PG-LI
 10
483049.25
 20
4630258.93
  0
VERTEX
 8
PG-LI
 10
483048.78
 20
4630259.35
  0
VERTEX
 8
PG-LI
 10
483048.2
 20
4630259.61
  0
VERTEX
 8
PG-LI
 10
483047.57
 20
4630259.68
  0
VERTEX
 8
PG-LI
 10
483046.95
 20
4630259.55
  0
VERTEX
 8
PG-LI
 10
483046.4
 20
4630259.23
  0
SEQEND
  8
0
  0
LINE
  8
PG-LI
 10
483059.36
 20
4630431.32
 11
483058.36
 21
4630422.67
  0
POLYLINE
  8
PG-LI
 66
1
  0
VERTEX
 8
PG-LI
 10
483058.36
 20
4630422.67
  0
VERTEX
 8
PG-LI
 10
483057.5
 20
4630415.14
  0
VERTEX
 8
PG-LI
 10
483064.06
 20
4630414.36
  0
SEQEND
  8
0
  0
LINE
  8
PG-LI
 10
483058.36
 20
4630422.67
 11
483064.92
 21
4630421.88
  0
LINE
  8
PG-LI
 10
483065.92
 20
4630430.54
 11
483059.36
 21
4630431.32
  0
POLYLINE
  8
PG-LI
 66
1
  0
VERTEX
 8
PG-LI
 10
483062.94
 20
4630274.25
  0
VERTEX
 8
PG-LI
 10
483053.09
 20
4630228.39
  0
VERTEX
 8
PG-LI
 10
483131.44
 20
4630211.28
  0
VERTEX
 8
PG-LI
 10
483141.29
 20
4630257.14
  0
VERTEX
 8
PG-LI
 10
483062.94
 20
4630274.25
  0
SEQEND
  8
0
  0
LINE
  8
PG-LI
 10
483064.92
 20
4630421.88
 11
483064.06
 21
4630414.36
  0
POLYLINE
  8
PG-LI
 66
1
  0
VERTEX
 8
PG-LI
 10
483064.06
 20
4630414.36
  0
VERTEX
 8
PG-LI
 10
483062.14
 20
4630397.63
  0
VERTEX
 8
PG-LI
 10
483079.84
 20
4630395.51
  0
VERTEX
 8
PG-LI
 10
483081.78
 20
4630412.25
  0
SEQEND
  8
0
  0
LINE
  8
PG-LI
 10
483065.6
 20
4630427.76
 11
483064.92
 21
4630421.88
  0
LINE
  8
PG-LI
 10
483064.92
 20
4630421.88
 11
483082.64
 21
4630419.77
  0
LINE
  8
PG-LI
 10
483065.92
 20
4630430.54
 11
483065.6
 21
4630427.76
  0
LINE
  8
PG-LI
 10
483065.6
 20
4630427.76
 11
483083.32
 21
4630425.65
  0
LINE
  8
PG-LI
 10
483071.8
 20
4630429.84
 11
483065.92
 21
4630430.54
  0
LINE
  8
PG-LI
 10
483072.12
 20
4630432.71
 11
483071.8
 21
4630429.84
  0
LINE
  8
PG-LI
 10
483071.8
 20
4630429.84
 11
483077.76
 21
4630429.12
  0
LINE
  8
PG-LI
 10
483072.36
 20
4630418.16
 11
483071.82
 21
4630413.43
  0
POLYLINE
  8
PG-LI
 66
1
  0
VERTEX
 8
PG-LI
 10
483071.82
 20
4630413.43
  0
VERTEX
 8
PG-LI
 10
483070.64
 20
4630403.17
  0
VERTEX
 8
PG-LI
 10
483073.02
 20
4630402.89
  0
VERTEX
 8
PG-LI
 10
483074.22
 20
4630413.15
  0
SEQEND
  8
0
  0
LINE
  8
PG-LI
 10
483071.82
 20
4630413.43
 11
483074.22
 21
4630413.15
  0
POLYLINE
  8
PG-LI
 66
1
  0
VERTEX
 8
PG-LI
 10
483077.76
 20
4630429.12
  0
VERTEX
 8
PG-LI
 10
483078.1
 20
4630432.0
  0
VERTEX
 8
PG-LI
 10
483072.12
 20
4630432.71
  0
SEQEND
  8
0
  0
POLYLINE
  8
PG-LI
 66
1
  0
VERTEX
 8
PG-LI
 10
483074.22
 20
4630413.15
  0
VERTEX
 8
PG-LI
 10
483074.76
 20
4630417.87
  0
VERTEX
 8
PG-LI
 10
483072.36
 20
4630418.16
  0
SEQEND
  8
0
  0
POLYLINE
  8
PG-LI
 66
1
  0
VERTEX
 8
PG-LI
 10
483073.63
 20
4630314.82
  0
VERTEX
 8
PG-LI
 10
483068.26
 20
4630290.45
  0
VERTEX
 8
PG-LI
 10
483114.24
 20
4630280.17
  0
VERTEX
 8
PG-LI
 10
483119.61
 20
4630304.53
  0
VERTEX
 8
PG-LI
 10
483073.63
 20
4630314.82
  0
SEQEND
  8
0
  0
LINE
  8
PG-LI
 10
483083.64
 20
4630428.42
 11
483077.76
 21
4630429.12
  0
LINE
  8
PG-LI
 10
483082.64
 20
4630419.77
 11
483081.78
 21
4630412.25
  0
POLYLINE
  8
PG-LI
 66
1
  0
VERTEX
 8
PG-LI
 10
483081.78
 20
4630412.25
  0
VERTEX
 8
PG-LI
 10
483088.34
 20
4630411.46
  0
VERTEX
 8
PG-LI
 10
483089.2
 20
4630418.98
  0
SEQEND
  8
0
  0
LINE
  8
PG-LI
 10
483083.32
 20
4630425.65
 11
483082.64
 21
4630419.77
  0
LINE
  8
PG-LI
 10
483082.64
 20
4630419.77
 11
483089.2
 21
4630418.98
  0
LINE
  8
PG-LI
 10
483083.64
 20
4630428.42
 11
483083.32
 21
4630425.65
  0
LINE
  8
PG-LI
 10
483090.2
 20
4630427.64
 11
483083.64
 21
4630428.42
  0
POLYLINE
  8
PG-LI
 66
1
  0
VERTEX
 8
PG-LI
 10
483086.22
 20
4630350.83
  0
VERTEX
 8
PG-LI
 10
483087.26
 20
4630355.71
  0
VERTEX
 8
PG-LI
 10
483067.66
 20
4630359.96
  0
VERTEX
 8
PG-LI
 10
483066.62
 20
4630355.08
  0
VERTEX
 8
PG-LI
 10
483086.22
 20
4630350.83
  0
SEQEND
  8
0
  0
LINE
  8
PG-LI
 10
483089.2
 20
4630418.98
 11
483090.2
 21
4630427.64
  0
LINE
  8
PG-LI
 10
483096.06
 20
4630419.22
 11
483095.36
 21
4630413.65
  0
POLYLINE
  8
PG-LI
 66
1
  0
VERTEX
 8
PG-LI
 10
483095.36
 20
4630413.65
  0
VERTEX
 8
PG-LI
 10
483093.02
 20
4630413.93
  0
VERTEX
 8
PG-LI
 10
483092.08
 20
4630405.85
  0
VERTEX
 8
PG-LI
 10
483121.94
 20
4630402.28
  0
VERTEX
 8
PG-LI
 10
483117.78
 20
4630366.28
  0
VERTEX
 8
PG-LI
 10
483129.04
 20
4630364.93
  0
VERTEX
 8
PG-LI
 10
483129.18
 20
4630366.22
  0
SEQEND
  8
0
  0
POLYLINE
  8
PG-LI
 66
1
  0
VERTEX
 8
PG-LI
 10
483095.36
 20
4630413.65
  0
VERTEX
 8
PG-LI
 10
483094.64
 20
4630407.85
  0
VERTEX
 8
PG-LI
 10
483124.48
 20
4630404.29
  0
VERTEX
 8
PG-LI
 10
483120.22
 20
4630367.29
  0
VERTEX
 8
PG-LI
 10
483129.18
 20
4630366.22
  0
SEQEND
  8
0
  0
POLYLINE
  8
PG-LI
 66
1
  0
VERTEX
 8
PG-LI
 10
483129.18
 20
4630366.22
  0
VERTEX
 8
PG-LI
 10
483131.76
 20
4630365.92
  0
VERTEX
 8
PG-LI
 10
483135.48
 20
4630398.08
  0
VERTEX
 8
PG-LI
 10
483144.5
 20
4630397.0
  0
VERTEX
 8
PG-LI
 10
483147.0
 20
4630418.7
  0
VERTEX
 8
PG-LI
 10
483129.54
 20
4630420.78
  0
VERTEX
 8
PG-LI
 10
483128.9
 20
4630415.3
  0
VERTEX
 8
PG-LI
 10
483096.06
 20
4630419.22
  0
SEQEND
  8
0
  0
POLYLINE
  8
PG-LI
 66
1
  0
VERTEX
 8
PG-LI
 10
483122.54
 20
4630320.92
  0
VERTEX
 8
PG-LI
 10
483126.48
 20
4630338.65
  0
VERTEX
 8
PG-LI
 10
483090.99
 20
4630346.66
  0
VERTEX
 8
PG-LI
 10
483087.04
 20
4630328.93
  0
VERTEX
 8
PG-LI
 10
483122.54
 20
4630320.92
  0
SEQEND
  8
0
  0
POLYLINE
  8
PG-LI
 66
1
  0
VERTEX
 8
PG-LI
 10
483134.52
 20
4630201.37
  0
VERTEX
 8
PG-LI
 10
483154.48
 20
4630196.94
  0
VERTEX
 8
PG-LI
 10
483157.19
 20
4630208.42
  0
VERTEX
 8
PG-LI
 10
483137.23
 20
4630213.03
  0
VERTEX
 8
PG-LI
 10
483134.52
 20
4630201.37
  0
SEQEND
  8
0
  0
POLYLINE
  8
PG-LI
 66
1
  0
VERTEX
 8
PG-LI
 10
483136.1
 20
4630278.92
  0
VERTEX
 8
PG-LI
 10
483157.62
 20
4630274.1
  0
VERTEX
 8
PG-LI
 10
483162.13
 20
4630294.57
  0
VERTEX
 8
PG-LI
 10
483140.9
 20
4630299.32
  0
VERTEX
 8
PG-LI
 10
483136.1
 20
4630278.92
  0
SEQEND
  8
0
  0
POLYLINE
  8
PG-LI
 66
1
  0
VERTEX
 8
PG-LI
 10
483157.86
 20
4630211.62
  0
VERTEX
 8
PG-LI
 10
483166.06
 20
4630247.43
  0
VERTEX
 8
PG-LI
 10
483148.19
 20
4630251.38
  0
VERTEX
 8
PG-LI
 10
483140.14
 20
4630216.02
  0
VERTEX
 8
PG-LI
 10
483157.86
 20
4630211.62
  0
SEQEND
  8
0
  0
LINE
  8
PG-LI
 10
483162.72
 20
4630344.56
 11
483160.79
 21
4630334.6
  0
POLYLINE
  8
PG-LI
 66
1
  0
VERTEX
 8
PG-LI
 10
483162.72
 20
4630344.56
  0
VERTEX
 8
PG-LI
 10
483158.07
 20
4630345.48
  0
VERTEX
 8
PG-LI
 10
483156.15
 20
4630335.52
  0
VERTEX
 8
PG-LI
 10
483160.79
 20
4630334.6
  0
SEQEND
  8
0
  0
LINE
  8
PG-LI
 10
483160.79
 20
4630334.6
 11
483165.79
 21
4630333.62
  0
LINE
  8
PG-LI
 10
483168.1
 20
4630343.5
 11
483162.72
 21
4630344.56
  0
POLYLINE
  8
PG-LI
 66
1
  0
VERTEX
 8
PG-LI
 10
483165.79
 20
4630333.62
  0
VERTEX
 8
PG-LI
 10
483164.59
 20
4630327.39
  0
VERTEX
 8
PG-LI
 10
483173.33
 20
4630325.67
  0
VERTEX
 8
PG-LI
 10
483174.53
 20
4630331.89
  0
SEQEND
  8
0
  0
LINE
  8
PG-LI
 10
483174.53
 20
4630331.89
 11
483165.79
 21
4630333.62
  0
POLYLINE
  8
PG-LI
 66
1
  0
VERTEX
 8
PG-LI
 10
483168.1
 20
4630343.5
  0
VERTEX
 8
PG-LI
 10
483166.82
 20
4630336.86
  0
VERTEX
 8
PG-LI
 10
483175.18
 20
4630335.21
  0
SEQEND
  8
0
  0
LINE
  8
PG-LI
 10
483172.71
 20
4630342.59
 11
483168.1
 21
4630343.5
  0
LINE
  8
PG-LI
 10
483173.19
 20
4630345.08
 11
483172.71
 21
4630342.59
  0
POLYLINE
  8
PG-LI
 66
1
  0
VERTEX
 8
PG-LI
 10
483172.71
 20
4630342.59
  0
VERTEX
 8
PG-LI
 10
483176.46
 20
4630341.85
  0
VERTEX
 8
PG-LI
 10
483175.18
 20
4630335.21
  0
SEQEND
  8
0
  0
POLYLINE
  8
PG-LI
 66
1
  0
VERTEX
 8
PG-LI
 10
483178.18
 20
4630342.81
  0
VERTEX
 8
PG-LI
 10
483176.7
 20
4630343.1
  0
VERTEX
 8
PG-LI
 10
483176.94
 20
4630344.34
  0
VERTEX
 8
PG-LI
 10
483173.19
 20
4630345.08
  0
SEQEND
  8
0
  0
LINE
  8
PG-LI
 10
483175.18
 20
4630335.21
 11
483174.53
 21
4630331.89
  0
LINE
  8
PG-LI
 10
483174.53
 20
4630331.89
 11
483182.03
 21
4630330.42
  0
LINE
  8
PG-LI
 10
483176.66
 20
4630334.92
 11
483175.18
 21
4630335.21
  0
LINE
  8
PG-LI
 10
483178.18
 20
4630342.81
 11
483176.66
 21
4630334.92
  0
LINE
  8
PG-LI
 10
483184.19
 20
4630341.62
 11
483178.18
 21
4630342.81
  0
LINE
  8
PG-LI
 10
483182.03
 20
4630330.42
 11
483184.19
 21
4630341.62
  0
POLYLINE
  8
PG-LI
 66
1
  0
VERTEX
 8
PG-LI
 10
483182.03
 20
4630330.42
  0
VERTEX
 8
PG-LI
 10
483182.69
 20
4630327.81
  0
VERTEX
 8
PG-LI
 10
483185.83
 20
4630304.27
  0
SEQEND
  8
0
  0
LINE
  8
PG-LI
 10
483185.83
 20
4630304.27
 11
483193.68
 21
4630284.72
  0
LINE
  8
PG-LI
 10
483186.05
 20
4630153.68
 11
483186.77
 21
4630156.29
  0
POLYLINE
  8
PG-LI
 66
1
  0
VERTEX
 8
PG-LI
 10
483261.0
 20
4630159.08
  0
VERTEX
 8
PG-LI
 10
483255.85
 20
4630153.06
  0
VERTEX
 8
PG-LI
 10
483246.22
 20
4630139.66
  0
VERTEX
 8
PG-LI
 10
483222.72
 20
4630123.6
  0
VERTEX
 8
PG-LI
 10
483208.28
 20
4630135.68
  0
VERTEX
 8
PG-LI
 10
483193.32
 20
4630147.89
  0
VERTEX
 8
PG-LI
 10
483186.05
 20
4630153.68
  0
SEQEND
  8
0
  0
POLYLINE
  8
PG-LI
 66
1
  0
VERTEX
 8
PG-LI
 10
483193.68
 20
4630284.72
  0
VERTEX
 8
PG-LI
 10
483198.12
 20
4630266.39
  0
VERTEX
 8
PG-LI
 10
483205.34
 20
4630247.46
  0
VERTEX
 8
PG-LI
 10
483205.39
 20
4630233.81
  0
VERTEX
 8
PG-LI
 10
483201.73
 20
4630213.34
  0
VERTEX
 8
PG-LI
 10
483195.6
 20
4630187.91
  0
VERTEX
 8
PG-LI
 10
483186.77
 20
4630156.29
  0
SEQEND
  8
0
  0
POLYLINE
  8
PG-LI
 66
1
  0
VERTEX
 8
PG-LI
 10
483193.68
 20
4630284.72
  0
VERTEX
 8
PG-LI
 10
483203.13
 20
4630288.58
  0
VERTEX
 8
PG-LI
 10
483231.02
 20
4630262.37
  0
VERTEX
 8
PG-LI
 10
483244.78
 20
4630244.95
  0
VERTEX
 8
PG-LI
 10
483250.88
 20
4630226.96
  0
VERTEX
 8
PG-LI
 10
483255.11
 20
4630207.31
  0
VERTEX
 8
PG-LI
 10
483259.46
 20
4630185.06
  0
VERTEX
 8
PG-LI
 10
483261.0
 20
4630159.08
  0
SEQEND
  8
0
  0
LINE
  8
PG-LI
 10
483267.2845
 20
4630151.684
 11
483261.0
 21
4630159.08
  0
LINE
  8
PG-LP
 10
483267.2845
 20
4630151.684
 11
483267.2335
 21
4630151.5755
  0
POLYLINE
  8
PG-LP
 66
1
  0
VERTEX
 8
PG-LP
 10
483284.851
 20
4630398.1845
  0
VERTEX
 8
PG-LP
 10
483284.839
 20
4630398.1725
  0
VERTEX
 8
PG-LP
 10
483279.119
 20
4630391.5445
  0
VERTEX
 8
PG-LP
 10
483273.9985
 20
4630384.4435
  0
VERTEX
 8
PG-LP
 10
483269.516
 20
4630376.923
  0
VERTEX
 8
PG-LP
 10
483265.706
 20
4630369.0405
  0
VERTEX
 8
PG-LP
 10
483265.5975
 20
4630368.787
  0
VERTEX
 8
PG-LP
 10
483262.598
 20
4630360.856
  0
VERTEX
 8
PG-LP
 10
483260.2145
 20
4630352.432
  0
VERTEX
 8
PG-LP
 10
483259.5225
 20
4630350.31
  0
VERTEX
 8
PG-LP
 10
483258.0025
 20
4630344.488
  0
VERTEX
 8
PG-LP
 10
483256.995
 20
4630338.556
  0
VERTEX
 8
PG-LP
 10
483256.5085
 20
4630332.558
  0
VERTEX
 8
PG-LP
 10
483256.4885
 20
4630331.9365
  0
VERTEX
 8
PG-LP
 10
483256.547
 20
4630326.541
  0
VERTEX
 8
PG-LP
 10
483257.1095
 20
4630320.55
  0
VERTEX
 8
PG-LP
 10
483261.871
 20
4630285.7695
  0
VERTEX
 8
PG-LP
 10
483264.1485
 20
4630261.1335
  0
VERTEX
 8
PG-LP
 10
483264.6105
 20
4630252.694
  0
VERTEX
 8
PG-LP
 10
483264.3555
 20
4630243.5365
  0
VERTEX
 8
PG-LP
 10
483264.345
 20
4630243.395
  0
VERTEX
 8
PG-LP
 10
483263.527
 20
4630223.041
  0
VERTEX
 8
PG-LP
 10
483263.5555
 20
4630214.8565
  0
VERTEX
 8
PG-LP
 10
483263.941
 20
4630205.6505
  0
VERTEX
 8
PG-LP
 10
483264.8425
 20
4630195.135
  0
VERTEX
 8
PG-LP
 10
483270.9565
 20
4630159.4865
  0
VERTEX
 8
PG-LP
 10
483268.4235
 20
4630154.1045
  0
VERTEX
 8
PG-LP
 10
483267.2845
 20
4630151.684
  0
SEQEND
  8
0
  0
LINE
  8
PG-LP
 10
483294.6585
 20
4630407.3875
 11
483284.851
 21
4630398.1845
  0
LINE
  8
PG-LP
 10
483300.9205
 20
4630413.2635
 11
483294.6585
 21
4630407.3875
  0
ENDSEC
  0
EOF
