  0
SECTION
  2
ENTITIES
  0
TEXT
  8
PG-AA
 10
483485.58
 20
4630617.1
 40
.4
 50
0.0
  1
0
 72
1
 73
3
 11
483485.58
 21
4630617.1
  0
TEXT
  8
PG-AS
 10
483485.58
 20
4630617.1
 40
.4
 50
0.0
  1
9104
 72
1
 73
1
 11
483485.58
 21
4630617.1
  0
POLYLINE
  8
PG-LP
 66
1
  0
VERTEX
 8
PG-LP
 10
483777.059
 20
4631029.493
  0
VERTEX
 8
PG-LP
 10
483773.0005
 20
4631017.424
  0
VERTEX
 8
PG-LP
 10
483745.07
 20
4630940.744
  0
VERTEX
 8
PG-LP
 10
483745.04
 20
4630940.634
  0
VERTEX
 8
PG-LP
 10
483743.36
 20
4630935.404
  0
VERTEX
 8
PG-LP
 10
483743.26
 20
4630935.114
  0
VERTEX
 8
PG-LP
 10
483737.56
 20
4630919.014
  0
VERTEX
 8
PG-LP
 10
483734.08
 20
4630909.144
  0
VERTEX
 8
PG-LP
 10
483728.7895
 20
4630893.674
  0
VERTEX
 8
PG-LP
 10
483727.7195
 20
4630890.544
  0
VERTEX
 8
PG-LP
 10
483727.2495
 20
4630889.164
  0
VERTEX
 8
PG-LP
 10
483726.8395
 20
4630887.944
  0
VERTEX
 8
PG-LP
 10
483725.6795
 20
4630884.534
  0
VERTEX
 8
PG-LP
 10
483715.5395
 20
4630862.294
  0
VERTEX
 8
PG-LP
 10
483712.4895
 20
4630857.574
  0
VERTEX
 8
PG-LP
 10
483705.5295
 20
4630846.814
  0
VERTEX
 8
PG-LP
 10
483694.069
 20
4630834.094
  0
VERTEX
 8
PG-LP
 10
483693.329
 20
4630833.364
  0
VERTEX
 8
PG-LP
 10
483671.689
 20
4630811.4445
  0
VERTEX
 8
PG-LP
 10
483665.809
 20
4630804.9445
  0
VERTEX
 8
PG-LP
 10
483630.7785
 20
4630770.3745
  0
VERTEX
 8
PG-LP
 10
483585.048
 20
4630723.555
  0
VERTEX
 8
PG-LP
 10
483540.4675
 20
4630673.505
  0
VERTEX
 8
PG-LP
 10
483532.6075
 20
4630664.605
  0
VERTEX
 8
PG-LP
 10
483500.5375
 20
4630627.4655
  0
VERTEX
 8
PG-LP
 10
483488.287
 20
4630613.3255
  0
VERTEX
 8
PG-LP
 10
483434.1165
 20
4630550.8255
  0
VERTEX
 8
PG-LP
 10
483430.2265
 20
4630545.5755
  0
VERTEX
 8
PG-LP
 10
483427.5765
 20
4630542.0755
  0
VERTEX
 8
PG-LP
 10
483409.4165
 20
4630518.616
  0
VERTEX
 8
PG-LP
 10
483409.1865
 20
4630518.316
  0
VERTEX
 8
PG-LP
 10
483406.3365
 20
4630514.826
  0
VERTEX
 8
PG-LP
 10
483390.636
 20
4630493.306
  0
VERTEX
 8
PG-LP
 10
483381.676
 20
4630481.016
  0
VERTEX
 8
PG-LP
 10
483362.866
 20
4630459.586
  0
VERTEX
 8
PG-LP
 10
483362.756
 20
4630459.476
  0
VERTEX
 8
PG-LP
 10
483352.8555
 20
4630450.766
  0
VERTEX
 8
PG-LP
 10
483342.8555
 20
4630441.926
  0
VERTEX
 8
PG-LP
 10
483330.7455
 20
4630431.2665
  0
VERTEX
 8
PG-LP
 10
483318.5955
 20
4630420.5465
  0
VERTEX
 8
PG-LP
 10
483283.155
 20
4630385.4265
  0
VERTEX
 8
PG-LP
 10
483272.015
 20
4630365.4265
  0
VERTEX
 8
PG-LP
 10
483265.665
 20
4630346.6865
  0
VERTEX
 8
PG-LP
 10
483263.2145
 20
4630330.7565
  0
VERTEX
 8
PG-LP
 10
483264.2845
 20
4630323.3365
  0
VERTEX
 8
PG-LP
 10
483268.1745
 20
4630272.0065
  0
VERTEX
 8
PG-LP
 10
483268.624
 20
4630266.0165
  0
VERTEX
 8
PG-LP
 10
483269.584
 20
4630250.8665
  0
VERTEX
 8
PG-LP
 10
483269.384
 20
4630240.4465
  0
VERTEX
 8
PG-LP
 10
483272.044
 20
4630218.7565
  0
VERTEX
 8
PG-LP
 10
483275.1435
 20
4630191.1665
  0
VERTEX
 8
PG-LP
 10
483278.3235
 20
4630162.926
  0
VERTEX
 8
PG-LP
 10
483270.9565
 20
4630159.4865
  0
VERTEX
 8
PG-LP
 10
483264.8425
 20
4630195.135
  0
VERTEX
 8
PG-LP
 10
483263.941
 20
4630205.6505
  0
VERTEX
 8
PG-LP
 10
483263.5555
 20
4630214.8565
  0
VERTEX
 8
PG-LP
 10
483263.527
 20
4630223.041
  0
VERTEX
 8
PG-LP
 10
483264.345
 20
4630243.3945
  0
VERTEX
 8
PG-LP
 10
483264.3555
 20
4630243.5365
  0
VERTEX
 8
PG-LP
 10
483264.6105
 20
4630252.694
  0
VERTEX
 8
PG-LP
 10
483264.1485
 20
4630261.1335
  0
VERTEX
 8
PG-LP
 10
483261.871
 20
4630285.7695
  0
VERTEX
 8
PG-LP
 10
483257.1095
 20
4630320.55
  0
VERTEX
 8
PG-LP
 10
483256.547
 20
4630326.541
  0
VERTEX
 8
PG-LP
 10
483256.4885
 20
4630331.9365
  0
VERTEX
 8
PG-LP
 10
483256.5085
 20
4630332.558
  0
VERTEX
 8
PG-LP
 10
483256.995
 20
4630338.5555
  0
VERTEX
 8
PG-LP
 10
483258.0025
 20
4630344.488
  0
VERTEX
 8
PG-LP
 10
483259.5225
 20
4630350.31
  0
VERTEX
 8
PG-LP
 10
483260.2145
 20
4630352.432
  0
VERTEX
 8
PG-LP
 10
483262.598
 20
4630360.856
  0
VERTEX
 8
PG-LP
 10
483265.5975
 20
4630368.787
  0
VERTEX
 8
PG-LP
 10
483265.706
 20
4630369.0405
  0
VERTEX
 8
PG-LP
 10
483269.516
 20
4630376.923
  0
VERTEX
 8
PG-LP
 10
483273.9985
 20
4630384.4435
  0
VERTEX
 8
PG-LP
 10
483279.119
 20
4630391.5445
  0
VERTEX
 8
PG-LP
 10
483284.839
 20
4630398.172
  0
VERTEX
 8
PG-LP
 10
483284.851
 20
4630398.1845
  0
VERTEX
 8
PG-LP
 10
483361.126
 20
4630469.756
  0
VERTEX
 8
PG-LP
 10
483390.336
 20
4630508.886
  0
VERTEX
 8
PG-LP
 10
483392.2465
 20
4630511.146
  0
VERTEX
 8
PG-LP
 10
483395.4065
 20
4630514.876
  0
VERTEX
 8
PG-LP
 10
483395.7365
 20
4630515.276
  0
VERTEX
 8
PG-LP
 10
483398.9365
 20
4630519.076
  0
VERTEX
 8
PG-LP
 10
483493.5875
 20
4630633.9555
  0
VERTEX
 8
PG-LP
 10
483538.518
 20
4630685.785
  0
VERTEX
 8
PG-LP
 10
483578.448
 20
4630729.545
  0
VERTEX
 8
PG-LP
 10
483601.8785
 20
4630754.1245
  0
VERTEX
 8
PG-LP
 10
483605.7985
 20
4630757.9045
  0
VERTEX
 8
PG-LP
 10
483606.1085
 20
4630758.2145
  0
VERTEX
 8
PG-LP
 10
483607.2485
 20
4630759.3545
  0
VERTEX
 8
PG-LP
 10
483608.3585
 20
4630760.4445
  0
VERTEX
 8
PG-LP
 10
483609.7385
 20
4630761.7945
  0
VERTEX
 8
PG-LP
 10
483644.799
 20
4630797.7145
  0
VERTEX
 8
PG-LP
 10
483679.729
 20
4630832.414
  0
VERTEX
 8
PG-LP
 10
483688.279
 20
4630841.214
  0
VERTEX
 8
PG-LP
 10
483696.4295
 20
4630850.514
  0
VERTEX
 8
PG-LP
 10
483707.6295
 20
4630866.104
  0
VERTEX
 8
PG-LP
 10
483725.94
 20
4630917.464
  0
VERTEX
 8
PG-LP
 10
483727.77
 20
4630922.604
  0
VERTEX
 8
PG-LP
 10
483768.231
 20
4631036.114
  0
VERTEX
 8
PG-LP
 10
483777.059
 20
4631029.493
  0
SEQEND
  8
0
  0
ENDSEC
  0
EOF
