  0
SECTION
  2
ENTITIES
  0
TEXT
  8
PG-AA
 10
483635.39
 20
4631347.13
 40
.4
 50
0.0
  1
c
 72
1
 73
3
 11
483635.39
 21
4631347.13
  0
TEXT
  8
PG-AS
 10
483635.39
 20
4631347.13
 40
.4
 50
0.0
  1
512
 72
1
 73
1
 11
483635.39
 21
4631347.13
  0
TEXT
  8
PG-AA
 10
483602.75
 20
4631257.11
 40
.4
 50
0.0
  1
a
 72
1
 73
3
 11
483602.75
 21
4631257.11
  0
TEXT
  8
PG-AS
 10
483602.75
 20
4631257.11
 40
.4
 50
0.0
  1
2753
 72
1
 73
1
 11
483602.75
 21
4631257.11
  0
TEXT
  8
PG-AA
 10
483609.83
 20
4631307.42
 40
.4
 50
0.0
  1
b
 72
1
 73
3
 11
483609.83
 21
4631307.42
  0
TEXT
  8
PG-AS
 10
483609.83
 20
4631307.42
 40
.4
 50
0.0
  1
4810
 72
1
 73
1
 11
483609.83
 21
4631307.42
  0
TEXT
  8
PG-AA
 10
483644.32
 20
4631313.15
 40
.4
 50
0.0
  1
POR
 72
1
 73
3
 11
483644.32
 21
4631313.15
  0
TEXT
  8
PG-AS
 10
483644.32
 20
4631313.15
 40
.4
 50
0.0
  1
7
 72
1
 73
1
 11
483644.32
 21
4631313.15
  0
TEXT
  8
PG-AA
 10
483637.81
 20
4631315.4
 40
.4
 50
0.0
  1
I
 72
1
 73
3
 11
483637.81
 21
4631315.4
  0
TEXT
  8
PG-AS
 10
483637.81
 20
4631315.4
 40
.4
 50
0.0
  1
286
 72
1
 73
1
 11
483637.81
 21
4631315.4
  0
TEXT
  8
PG-AA
 10
483644.74
 20
4631335.61
 40
.4
 50
0.0
  1
I
 72
1
 73
3
 11
483644.74
 21
4631335.61
  0
TEXT
  8
PG-AS
 10
483644.74
 20
4631335.61
 40
.4
 50
0.0
  1
33
 72
1
 73
1
 11
483644.74
 21
4631335.61
  0
POLYLINE
  8
PG-LP
 66
1
  0
VERTEX
 8
PG-LP
 10
483557.9825
 20
4631300.876
  0
VERTEX
 8
PG-LP
 10
483574.8825
 20
4631314.336
  0
VERTEX
 8
PG-LP
 10
483596.663
 20
4631331.6955
  0
VERTEX
 8
PG-LP
 10
483602.853
 20
4631336.6155
  0
VERTEX
 8
PG-LP
 10
483609.403
 20
4631341.8455
  0
VERTEX
 8
PG-LP
 10
483617.313
 20
4631348.1555
  0
VERTEX
 8
PG-LP
 10
483618.2905
 20
4631348.9335
  0
SEQEND
  8
0
  0
LINE
  8
PG-LP
 10
483563.5165
 20
4631290.7145
 11
483557.9825
 21
4631300.876
  0
POLYLINE
  8
PG-LI
 66
1
  0
VERTEX
 8
PG-LI
 10
483563.5165
 20
4631290.7145
  0
VERTEX
 8
PG-LI
 10
483578.471
 20
4631296.466
  0
VERTEX
 8
PG-LI
 10
483588.516
 20
4631290.285
  0
VERTEX
 8
PG-LI
 10
483595.5325
 20
4631274.0755
  0
VERTEX
 8
PG-LI
 10
483616.5625
 20
4631272.5055
  0
VERTEX
 8
PG-LI
 10
483628.7325
 20
4631276.9055
  0
SEQEND
  8
0
  0
POLYLINE
  8
PG-LP
 66
1
  0
VERTEX
 8
PG-LP
 10
483637.207
 20
4631246.2545
  0
VERTEX
 8
PG-LP
 10
483630.142
 20
4631239.735
  0
VERTEX
 8
PG-LP
 10
483620.432
 20
4631230.4255
  0
VERTEX
 8
PG-LP
 10
483611.952
 20
4631222.1855
  0
VERTEX
 8
PG-LP
 10
483603.352
 20
4631213.9555
  0
VERTEX
 8
PG-LP
 10
483602.062
 20
4631216.4955
  0
VERTEX
 8
PG-LP
 10
483577.8925
 20
4631264.3255
  0
VERTEX
 8
PG-LP
 10
483577.6325
 20
4631264.7955
  0
VERTEX
 8
PG-LP
 10
483563.5165
 20
4631290.7145
  0
SEQEND
  8
0
  0
POLYLINE
  8
PG-LP
 66
1
  0
VERTEX
 8
PG-LP
 10
483618.2905
 20
4631348.9335
  0
VERTEX
 8
PG-LP
 10
483625.453
 20
4631354.6355
  0
VERTEX
 8
PG-LP
 10
483640.173
 20
4631366.3655
  0
VERTEX
 8
PG-LP
 10
483640.713
 20
4631363.9155
  0
VERTEX
 8
PG-LP
 10
483645.9695
 20
4631339.9205
  0
SEQEND
  8
0
  0
LINE
  8
PG-LI
 10
483624.205
 20
4631344.133
 11
483618.2905
 21
4631348.9335
  0
LINE
  8
PG-LI
 10
483649.455
 20
4631324.0115
 11
483624.205
 21
4631344.133
  0
LINE
  8
PG-LI
 10
483628.7325
 20
4631276.9055
 11
483637.207
 21
4631246.2545
  0
LINE
  8
PG-LI
 10
483636.6585
 20
4631304.2995
 11
483644.2025
 21
4631311.272
  0
POLYLINE
  8
PG-LI
 66
1
  0
VERTEX
 8
PG-LI
 10
483644.441
 20
4631315.0335
  0
VERTEX
 8
PG-LI
 10
483648.568
 20
4631318.848
  0
VERTEX
 8
PG-LI
 10
483641.7005
 20
4631326.278
  0
VERTEX
 8
PG-LI
 10
483637.7355
 20
4631322.6135
  0
VERTEX
 8
PG-LI
 10
483633.132
 20
4631318.3585
  0
VERTEX
 8
PG-LI
 10
483629.014
 20
4631318.523
  0
VERTEX
 8
PG-LI
 10
483625.0885
 20
4631318.68
  0
VERTEX
 8
PG-LI
 10
483624.6715
 20
4631308.2505
  0
VERTEX
 8
PG-LI
 10
483628.5655
 20
4631308.0945
  0
VERTEX
 8
PG-LI
 10
483628.5655
 20
4631305.0295
  0
VERTEX
 8
PG-LI
 10
483632.0425
 20
4631305.0295
  0
VERTEX
 8
PG-LI
 10
483632.0425
 20
4631307.9555
  0
VERTEX
 8
PG-LI
 10
483633.327
 20
4631307.904
  0
VERTEX
 8
PG-LI
 10
483636.6585
 20
4631304.2995
  0
SEQEND
  8
0
  0
POLYLINE
  8
PG-LP
 66
1
  0
VERTEX
 8
PG-LP
 10
483654.7625
 20
4631299.785
  0
VERTEX
 8
PG-LP
 10
483654.9525
 20
4631298.925
  0
VERTEX
 8
PG-LP
 10
483655.3325
 20
4631295.265
  0
VERTEX
 8
PG-LP
 10
483657.9425
 20
4631282.245
  0
VERTEX
 8
PG-LP
 10
483660.1925
 20
4631268.915
  0
VERTEX
 8
PG-LP
 10
483653.8625
 20
4631262.365
  0
VERTEX
 8
PG-LP
 10
483648.0225
 20
4631256.235
  0
VERTEX
 8
PG-LP
 10
483637.207
 20
4631246.2545
  0
SEQEND
  8
0
  0
LINE
  8
PG-LI
 10
483642.4375
 20
4631313.1815
 11
483644.441
 21
4631315.0335
  0
LINE
  8
PG-LI
 10
483644.2025
 20
4631311.272
 11
483642.4375
 21
4631313.1815
  0
POLYLINE
  8
PG-LI
 66
1
  0
VERTEX
 8
PG-LI
 10
483644.2025
 20
4631311.272
  0
VERTEX
 8
PG-LI
 10
483646.206
 20
4631313.1235
  0
VERTEX
 8
PG-LI
 10
483644.441
 20
4631315.0335
  0
SEQEND
  8
0
  0
POLYLINE
  8
PG-LI
 66
1
  0
VERTEX
 8
PG-LI
 10
483645.9695
 20
4631339.9205
  0
VERTEX
 8
PG-LI
 10
483645.435
 20
4631339.7995
  0
VERTEX
 8
PG-LI
 10
483641.795
 20
4631338.9755
  0
VERTEX
 8
PG-LI
 10
483643.534
 20
4631331.295
  0
VERTEX
 8
PG-LI
 10
483647.655
 20
4631332.228
  0
SEQEND
  8
0
  0
LINE
  8
PG-LP
 10
483645.9695
 20
4631339.9205
 11
483647.655
 21
4631332.228
  0
LINE
  8
PG-LP
 10
483647.655
 20
4631332.228
 11
483649.455
 21
4631324.0115
  0
LINE
  8
PG-LP
 10
483649.455
 20
4631324.0115
 11
483654.7625
 21
4631299.785
  0
ENDSEC
  0
EOF
