  0
SECTION
  2
ENTITIES
  0
TEXT
  8
PG-AA
 10
483757.62
 20
4631130.88
 40
.4
 50
0.0
  1
I
 72
1
 73
3
 11
483757.62
 21
4631130.88
  0
TEXT
  8
PG-AS
 10
483757.62
 20
4631130.88
 40
.4
 50
0.0
  1
399
 72
1
 73
1
 11
483757.62
 21
4631130.88
  0
TEXT
  8
PG-AA
 10
483776.41
 20
4631124.03
 40
.4
 50
0.0
  1
II
 72
1
 73
3
 11
483776.41
 21
4631124.03
  0
TEXT
  8
PG-AS
 10
483776.41
 20
4631124.03
 40
.4
 50
0.0
  1
405
 72
1
 73
1
 11
483776.41
 21
4631124.03
  0
TEXT
  8
PG-AA
 10
483738.45
 20
4631116.16
 40
.4
 50
0.0
  1
I
 72
1
 73
3
 11
483738.45
 21
4631116.16
  0
TEXT
  8
PG-AS
 10
483738.45
 20
4631116.16
 40
.4
 50
0.0
  1
243
 72
1
 73
1
 11
483738.45
 21
4631116.16
  0
TEXT
  8
PG-AA
 10
483750.7
 20
4631084.17
 40
.4
 50
0.0
  1
I
 72
1
 73
3
 11
483750.7
 21
4631084.17
  0
TEXT
  8
PG-AS
 10
483750.7
 20
4631084.17
 40
.4
 50
0.0
  1
246
 72
1
 73
1
 11
483750.7
 21
4631084.17
  0
TEXT
  8
PG-AA
 10
483767.45
 20
4631076.01
 40
.4
 50
0.0
  1
POR
 72
1
 73
3
 11
483767.45
 21
4631076.01
  0
TEXT
  8
PG-AS
 10
483767.45
 20
4631076.01
 40
.4
 50
0.0
  1
80
 72
1
 73
1
 11
483767.45
 21
4631076.01
  0
TEXT
  8
PG-AA
 10
483715.01
 20
4631116.05
 40
.4
 50
0.0
  1
POR
 72
1
 73
3
 11
483715.01
 21
4631116.05
  0
TEXT
  8
PG-AS
 10
483715.01
 20
4631116.05
 40
.4
 50
0.0
  1
113
 72
1
 73
1
 11
483715.01
 21
4631116.05
  0
TEXT
  8
PG-AA
 10
483711.48
 20
4631095.25
 40
.4
 50
0.0
  1
POR
 72
1
 73
3
 11
483711.48
 21
4631095.25
  0
TEXT
  8
PG-AS
 10
483711.48
 20
4631095.25
 40
.4
 50
0.0
  1
60
 72
1
 73
1
 11
483711.48
 21
4631095.25
  0
TEXT
  8
PG-AA
 10
483756.58
 20
4631061.06
 40
.4
 50
0.0
  1
POR
 72
1
 73
3
 11
483756.58
 21
4631061.06
  0
TEXT
  8
PG-AS
 10
483756.58
 20
4631061.06
 40
.4
 50
0.0
  1
140
 72
1
 73
1
 11
483756.58
 21
4631061.06
  0
TEXT
  8
PG-AA
 10
483758.14
 20
4631102.83
 40
.4
 50
0.0
  1
I
 72
1
 73
3
 11
483758.14
 21
4631102.83
  0
TEXT
  8
PG-AS
 10
483758.14
 20
4631102.83
 40
.4
 50
0.0
  1
1290
 72
1
 73
1
 11
483758.14
 21
4631102.83
  0
TEXT
  8
PG-AA
 10
483726.09
 20
4631091.97
 40
.4
 50
0.0
  1
P
 72
1
 73
3
 11
483726.09
 21
4631091.97
  0
TEXT
  8
PG-AS
 10
483726.09
 20
4631091.97
 40
.4
 50
0.0
  1
3011
 72
1
 73
1
 11
483726.09
 21
4631091.97
  0
TEXT
  8
PG-AA
 10
483733.75
 20
4631068.18
 40
.4
 50
0.0
  1
0
 72
1
 73
3
 11
483733.75
 21
4631068.18
  0
TEXT
  8
PG-AS
 10
483733.75
 20
4631068.18
 40
.4
 50
0.0
  1
1013
 72
1
 73
1
 11
483733.75
 21
4631068.18
  0
POLYLINE
  8
PG-LP
 66
1
  0
VERTEX
 8
PG-LP
 10
483697.7845
 20
4631101.546
  0
VERTEX
 8
PG-LP
 10
483698.241
 20
4631102.0645
  0
VERTEX
 8
PG-LP
 10
483699.351
 20
4631103.4045
  0
VERTEX
 8
PG-LP
 10
483701.721
 20
4631106.0045
  0
VERTEX
 8
PG-LP
 10
483705.6825
 20
4631110.2405
  0
VERTEX
 8
PG-LP
 10
483706.0415
 20
4631110.6245
  0
VERTEX
 8
PG-LP
 10
483706.788
 20
4631111.5035
  0
SEQEND
  8
0
  0
POLYLINE
  8
PG-LP
 66
1
  0
VERTEX
 8
PG-LP
 10
483772.362
 20
4631033.0275
  0
VERTEX
 8
PG-LP
 10
483767.1055
 20
4631036.9535
  0
VERTEX
 8
PG-LP
 10
483734.6745
 20
4631061.1765
  0
VERTEX
 8
PG-LP
 10
483690.977
 20
4631093.814
  0
VERTEX
 8
PG-LP
 10
483695.9435
 20
4631099.455
  0
VERTEX
 8
PG-LP
 10
483697.7845
 20
4631101.546
  0
SEQEND
  8
0
  0
LINE
  8
PG-LI
 10
483698.649
 20
4631100.9215
 11
483697.7845
 21
4631101.546
  0
POLYLINE
  8
PG-LI
 66
1
  0
VERTEX
 8
PG-LI
 10
483775.9555
 20
4631043.9385
  0
VERTEX
 8
PG-LI
 10
483773.6335
 20
4631044.508
  0
VERTEX
 8
PG-LI
 10
483769.6995
 20
4631047.427
  0
VERTEX
 8
PG-LI
 10
483748.1045
 20
4631063.45
  0
VERTEX
 8
PG-LI
 10
483715.8365
 20
4631088.497
  0
VERTEX
 8
PG-LI
 10
483698.649
 20
4631100.9215
  0
SEQEND
  8
0
  0
POLYLINE
  8
PG-LP
 66
1
  0
VERTEX
 8
PG-LP
 10
483706.788
 20
4631111.5035
  0
VERTEX
 8
PG-LP
 10
483708.0035
 20
4631112.935
  0
VERTEX
 8
PG-LP
 10
483712.7415
 20
4631118.5145
  0
VERTEX
 8
PG-LP
 10
483718.1395
 20
4631124.653
  0
SEQEND
  8
0
  0
LINE
  8
PG-LI
 10
483712.1645
 20
4631107.569
 11
483706.788
 21
4631111.5035
  0
POLYLINE
  8
PG-LI
 66
1
  0
VERTEX
 8
PG-LI
 10
483718.1395
 20
4631124.653
  0
VERTEX
 8
PG-LI
 10
483718.2435
 20
4631124.5675
  0
VERTEX
 8
PG-LI
 10
483723.147
 20
4631120.5455
  0
VERTEX
 8
PG-LI
 10
483712.1645
 20
4631107.569
  0
SEQEND
  8
0
  0
POLYLINE
  8
PG-LI
 66
1
  0
VERTEX
 8
PG-LI
 10
483717.3565
 20
4631093.096
  0
VERTEX
 8
PG-LI
 10
483714.806
 20
4631089.6645
  0
VERTEX
 8
PG-LI
 10
483705.175
 20
4631096.8235
  0
VERTEX
 8
PG-LI
 10
483707.8865
 20
4631100.471
  0
VERTEX
 8
PG-LI
 10
483708.158
 20
4631100.836
  0
VERTEX
 8
PG-LI
 10
483717.789
 20
4631093.6775
  0
VERTEX
 8
PG-LI
 10
483717.3565
 20
4631093.096
  0
SEQEND
  8
0
  0
LINE
  8
PG-LP
 10
483718.1395
 20
4631124.653
 11
483726.7415
 21
4631134.4345
  0
POLYLINE
  8
PG-LP
 66
1
  0
VERTEX
 8
PG-LP
 10
483726.7415
 20
4631134.4345
  0
VERTEX
 8
PG-LP
 10
483732.2815
 20
4631140.7245
  0
VERTEX
 8
PG-LP
 10
483738.3715
 20
4631147.6345
  0
VERTEX
 8
PG-LP
 10
483739.247
 20
4631148.629
  0
VERTEX
 8
PG-LP
 10
483739.5015
 20
4631148.538
  0
VERTEX
 8
PG-LP
 10
483792.9695
 20
4631129.4185
  0
VERTEX
 8
PG-LP
 10
483802.932
 20
4631125.8555
  0
VERTEX
 8
PG-LP
 10
483802.5465
 20
4631124.686
  0
VERTEX
 8
PG-LP
 10
483798.5375
 20
4631112.5125
  0
VERTEX
 8
PG-LP
 10
483788.9375
 20
4631083.3605
  0
VERTEX
 8
PG-LP
 10
483783.68
 20
4631067.395
  0
VERTEX
 8
PG-LP
 10
483776.8805
 20
4631046.748
  0
VERTEX
 8
PG-LP
 10
483775.9555
 20
4631043.9385
  0
SEQEND
  8
0
  0
LINE
  8
PG-LI
 10
483744.8515
 20
4631124.787
 11
483733.8015
 21
4631094.564
  0
POLYLINE
  8
PG-LI
 66
1
  0
VERTEX
 8
PG-LI
 10
483733.8015
 20
4631094.564
  0
VERTEX
 8
PG-LI
 10
483729.588
 20
4631101.164
  0
VERTEX
 8
PG-LI
 10
483730.8415
 20
4631104.5895
  0
VERTEX
 8
PG-LI
 10
483742.2035
 20
4631135.6315
  0
SEQEND
  8
0
  0
LINE
  8
PG-LI
 10
483740.2485
 20
4631083.2655
 11
483733.8015
 21
4631094.564
  0
LINE
  8
PG-LI
 10
483733.8015
 20
4631094.564
 11
483765.924
 21
4631082.8265
  0
POLYLINE
  8
PG-LI
 66
1
  0
VERTEX
 8
PG-LI
 10
483763.0415
 20
4631074.9365
  0
VERTEX
 8
PG-LI
 10
483759.1025
 20
4631076.376
  0
VERTEX
 8
PG-LI
 10
483740.2485
 20
4631083.2655
  0
SEQEND
  8
0
  0
LINE
  8
PG-LI
 10
483742.2035
 20
4631135.6315
 11
483748.037
 21
4631133.499
  0
LINE
  8
PG-LI
 10
483744.8515
 20
4631124.787
 11
483748.037
 21
4631133.499
  0
LINE
  8
PG-LI
 10
483763.4285
 20
4631118.0635
 11
483744.8515
 21
4631124.787
  0
POLYLINE
  8
PG-LI
 66
1
  0
VERTEX
 8
PG-LI
 10
483748.037
 20
4631133.499
  0
VERTEX
 8
PG-LI
 10
483750.361
 20
4631139.856
  0
VERTEX
 8
PG-LI
 10
483751.7775
 20
4631143.7305
  0
SEQEND
  8
0
  0
LINE
  8
PG-LI
 10
483751.7775
 20
4631143.7305
 11
483770.4485
 21
4631136.9135
  0
LINE
  8
PG-LI
 10
483765.924
 20
4631082.8265
 11
483763.0415
 21
4631074.9365
  0
LINE
  8
PG-LI
 10
483764.9365
 20
4631074.244
 11
483763.0415
 21
4631074.9365
  0
LINE
  8
PG-LI
 10
483770.4485
 20
4631136.9135
 11
483763.4285
 21
4631118.0635
  0
LINE
  8
PG-LI
 10
483763.5885
 20
4631118.0035
 11
483763.4285
 21
4631118.0635
  0
LINE
  8
PG-LI
 10
483782.4685
 20
4631111.1735
 11
483763.5885
 21
4631118.0035
  0
POLYLINE
  8
PG-LI
 66
1
  0
VERTEX
 8
PG-LI
 10
483771.378
 20
4631080.8335
  0
VERTEX
 8
PG-LI
 10
483772.5145
 20
4631080.4185
  0
VERTEX
 8
PG-LI
 10
483768.1755
 20
4631068.5435
  0
VERTEX
 8
PG-LI
 10
483763.48
 20
4631070.259
  0
VERTEX
 8
PG-LI
 10
483764.9365
 20
4631074.244
  0
SEQEND
  8
0
  0
LINE
  8
PG-LI
 10
483765.924
 20
4631082.8265
 11
483771.378
 21
4631080.8335
  0
LINE
  8
PG-LI
 10
483770.4485
 20
4631136.9135
 11
483789.3485
 21
4631130.0035
  0
LINE
  8
PG-LI
 10
483774.262
 20
4631088.723
 11
483771.378
 21
4631080.8335
  0
POLYLINE
  8
PG-LI
 66
1
  0
VERTEX
 8
PG-LI
 10
483771.717
 20
4631052.0665
  0
VERTEX
 8
PG-LI
 10
483771.0975
 20
4631051.252
  0
VERTEX
 8
PG-LI
 10
483769.2955
 20
4631048.8825
  0
VERTEX
 8
PG-LI
 10
483741.4355
 20
4631070.068
  0
VERTEX
 8
PG-LI
 10
483743.478
 20
4631072.7535
  0
VERTEX
 8
PG-LI
 10
483743.857
 20
4631073.252
  0
VERTEX
 8
PG-LI
 10
483771.717
 20
4631052.0665
  0
SEQEND
  8
0
  0
LINE
  8
PG-LP
 10
483775.9555
 20
4631043.9385
 11
483772.362
 21
4631033.0275
  0
LINE
  8
PG-LI
 10
483782.4685
 20
4631111.1735
 11
483774.262
 21
4631088.723
  0
LINE
  8
PG-LI
 10
483789.3485
 20
4631130.0035
 11
483782.4685
 21
4631111.1735
  0
ENDSEC
  0
EOF
