  0
SECTION
  2
ENTITIES
  0
TEXT
  8
PG-AA
 10
482979.29
 20
4630733.16
 40
.4
 50
0.0
  1
z
 72
1
 73
3
 11
482979.29
 21
4630733.16
  0
TEXT
  8
PG-AS
 10
482979.29
 20
4630733.16
 40
.4
 50
0.0
  1
931
 72
1
 73
1
 11
482979.29
 21
4630733.16
  0
TEXT
  8
PG-AA
 10
482850.3
 20
4630689.85
 40
.4
 50
0.0
  1
ab
 72
1
 73
3
 11
482850.3
 21
4630689.85
  0
TEXT
  8
PG-AS
 10
482850.3
 20
4630689.85
 40
.4
 50
0.0
  1
274
 72
1
 73
1
 11
482850.3
 21
4630689.85
  0
TEXT
  8
PG-AA
 10
482919.27
 20
4630734.91
 40
.4
 50
0.0
  1
ac
 72
1
 73
3
 11
482919.27
 21
4630734.91
  0
TEXT
  8
PG-AS
 10
482919.27
 20
4630734.91
 40
.4
 50
0.0
  1
15267
 72
1
 73
1
 11
482919.27
 21
4630734.91
  0
TEXT
  8
PG-AA
 10
483103.34
 20
4630870.22
 40
.4
 50
0.0
  1
ad
 72
1
 73
3
 11
483103.34
 21
4630870.22
  0
TEXT
  8
PG-AS
 10
483103.34
 20
4630870.22
 40
.4
 50
0.0
  1
44601
 72
1
 73
1
 11
483103.34
 21
4630870.22
  0
TEXT
  8
PG-AA
 10
483052.29
 20
4630920.4
 40
.4
 50
0.0
  1
ae
 72
1
 73
3
 11
483052.29
 21
4630920.4
  0
TEXT
  8
PG-AS
 10
483052.29
 20
4630920.4
 40
.4
 50
0.0
  1
1756
 72
1
 73
1
 11
483052.29
 21
4630920.4
  0
TEXT
  8
PG-AA
 10
483288.55
 20
4630926.16
 40
.4
 50
0.0
  1
af
 72
1
 73
3
 11
483288.55
 21
4630926.16
  0
TEXT
  8
PG-AS
 10
483288.55
 20
4630926.16
 40
.4
 50
0.0
  1
7123
 72
1
 73
1
 11
483288.55
 21
4630926.16
  0
TEXT
  8
PG-AA
 10
483338.14
 20
4630986.16
 40
.4
 50
0.0
  1
ag
 72
1
 73
3
 11
483338.14
 21
4630986.16
  0
TEXT
  8
PG-AS
 10
483338.14
 20
4630986.16
 40
.4
 50
0.0
  1
3179
 72
1
 73
1
 11
483338.14
 21
4630986.16
  0
TEXT
  8
PG-AA
 10
483355.96
 20
4631034.74
 40
.4
 50
0.0
  1
ah
 72
1
 73
3
 11
483355.96
 21
4631034.74
  0
TEXT
  8
PG-AS
 10
483355.96
 20
4631034.74
 40
.4
 50
0.0
  1
6012
 72
1
 73
1
 11
483355.96
 21
4631034.74
  0
TEXT
  8
PG-AA
 10
483361.81
 20
4630920.01
 40
.4
 50
0.0
  1
ai
 72
1
 73
3
 11
483361.81
 21
4630920.01
  0
TEXT
  8
PG-AS
 10
483361.81
 20
4630920.01
 40
.4
 50
0.0
  1
18387
 72
1
 73
1
 11
483361.81
 21
4630920.01
  0
TEXT
  8
PG-AA
 10
483409.03
 20
4631043.54
 40
.4
 50
0.0
  1
ai
 72
1
 73
3
 11
483409.03
 21
4631043.54
  0
TEXT
  8
PG-AS
 10
483409.03
 20
4631043.54
 40
.4
 50
0.0
  1
414
 72
1
 73
1
 11
483409.03
 21
4631043.54
  0
TEXT
  8
PG-AA
 10
483470.04
 20
4630935.79
 40
.4
 50
0.0
  1
aj
 72
1
 73
3
 11
483470.04
 21
4630935.79
  0
TEXT
  8
PG-AS
 10
483470.04
 20
4630935.79
 40
.4
 50
0.0
  1
1276
 72
1
 73
1
 11
483470.04
 21
4630935.79
  0
TEXT
  8
PG-AA
 10
483502.77
 20
4630921.35
 40
.4
 50
0.0
  1
ak
 72
1
 73
3
 11
483502.77
 21
4630921.35
  0
TEXT
  8
PG-AS
 10
483502.77
 20
4630921.35
 40
.4
 50
0.0
  1
1972
 72
1
 73
1
 11
483502.77
 21
4630921.35
  0
TEXT
  8
PG-AA
 10
483293.94
 20
4631033.65
 40
.4
 50
0.0
  1
al
 72
1
 73
3
 11
483293.94
 21
4631033.65
  0
TEXT
  8
PG-AS
 10
483293.94
 20
4631033.65
 40
.4
 50
0.0
  1
32134
 72
1
 73
1
 11
483293.94
 21
4631033.65
  0
TEXT
  8
PG-AA
 10
482817.51
 20
4630698.3
 40
.4
 50
0.0
  1
aa
 72
1
 73
3
 11
482817.51
 21
4630698.3
  0
TEXT
  8
PG-AS
 10
482817.51
 20
4630698.3
 40
.4
 50
0.0
  1
2485
 72
1
 73
1
 11
482817.51
 21
4630698.3
  0
TEXT
  8
PG-AA
 10
483355.94
 20
4631082.08
 40
.4
 50
0.0
  1
b
 72
1
 73
3
 11
483355.94
 21
4631082.08
  0
TEXT
  8
PG-AS
 10
483355.94
 20
4631082.08
 40
.4
 50
0.0
  1
1943
 72
1
 73
1
 11
483355.94
 21
4631082.08
  0
TEXT
  8
PG-AA
 10
483476.06
 20
4631160.28
 40
.4
 50
0.0
  1
c
 72
1
 73
3
 11
483476.06
 21
4631160.28
  0
TEXT
  8
PG-AS
 10
483476.06
 20
4631160.28
 40
.4
 50
0.0
  1
42544
 72
1
 73
1
 11
483476.06
 21
4631160.28
  0
TEXT
  8
PG-AA
 10
483530.96
 20
4630952.75
 40
.4
 50
0.0
  1
g
 72
1
 73
3
 11
483530.96
 21
4630952.75
  0
TEXT
  8
PG-AS
 10
483530.96
 20
4630952.75
 40
.4
 50
0.0
  1
995
 72
1
 73
1
 11
483530.96
 21
4630952.75
  0
TEXT
  8
PG-AA
 10
483557.25
 20
4630965.62
 40
.4
 50
0.0
  1
h
 72
1
 73
3
 11
483557.25
 21
4630965.62
  0
TEXT
  8
PG-AS
 10
483557.25
 20
4630965.62
 40
.4
 50
0.0
  1
322
 72
1
 73
1
 11
483557.25
 21
4630965.62
  0
TEXT
  8
PG-AA
 10
483464.61
 20
4630896.76
 40
.4
 50
0.0
  1
l
 72
1
 73
3
 11
483464.61
 21
4630896.76
  0
TEXT
  8
PG-AS
 10
483464.61
 20
4630896.76
 40
.4
 50
0.0
  1
2092
 72
1
 73
1
 11
483464.61
 21
4630896.76
  0
TEXT
  8
PG-AA
 10
483346.46
 20
4630836.64
 40
.4
 50
0.0
  1
m
 72
1
 73
3
 11
483346.46
 21
4630836.64
  0
TEXT
  8
PG-AS
 10
483346.46
 20
4630836.64
 40
.4
 50
0.0
  1
8355
 72
1
 73
1
 11
483346.46
 21
4630836.64
  0
TEXT
  8
PG-AA
 10
483283.27
 20
4630658.38
 40
.4
 50
0.0
  1
n
 72
1
 73
3
 11
483283.27
 21
4630658.38
  0
TEXT
  8
PG-AS
 10
483283.27
 20
4630658.38
 40
.4
 50
0.0
  1
93115
 72
1
 73
1
 11
483283.27
 21
4630658.38
  0
TEXT
  8
PG-AA
 10
483194.28
 20
4630518.8
 40
.4
 50
0.0
  1
p
 72
1
 73
3
 11
483194.28
 21
4630518.8
  0
TEXT
  8
PG-AS
 10
483194.28
 20
4630518.8
 40
.4
 50
0.0
  1
1080
 72
1
 73
1
 11
483194.28
 21
4630518.8
  0
TEXT
  8
PG-AA
 10
483174.13
 20
4630483.86
 40
.4
 50
0.0
  1
q
 72
1
 73
3
 11
483174.13
 21
4630483.86
  0
TEXT
  8
PG-AS
 10
483174.13
 20
4630483.86
 40
.4
 50
0.0
  1
16757
 72
1
 73
1
 11
483174.13
 21
4630483.86
  0
TEXT
  8
PG-AA
 10
483148.11
 20
4630602.31
 40
.4
 50
0.0
  1
r
 72
1
 73
3
 11
483148.11
 21
4630602.31
  0
TEXT
  8
PG-AS
 10
483148.11
 20
4630602.31
 40
.4
 50
0.0
  1
1377
 72
1
 73
1
 11
483148.11
 21
4630602.31
  0
TEXT
  8
PG-AA
 10
483109.13
 20
4630586.05
 40
.4
 50
0.0
  1
s
 72
1
 73
3
 11
483109.13
 21
4630586.05
  0
TEXT
  8
PG-AS
 10
483109.13
 20
4630586.05
 40
.4
 50
0.0
  1
6489
 72
1
 73
1
 11
483109.13
 21
4630586.05
  0
TEXT
  8
PG-AA
 10
483101.83
 20
4630629.71
 40
.4
 50
0.0
  1
t
 72
1
 73
3
 11
483101.83
 21
4630629.71
  0
TEXT
  8
PG-AS
 10
483101.83
 20
4630629.71
 40
.4
 50
0.0
  1
1182
 72
1
 73
1
 11
483101.83
 21
4630629.71
  0
TEXT
  8
PG-AA
 10
482956.95
 20
4630551.07
 40
.4
 50
0.0
  1
u
 72
1
 73
3
 11
482956.95
 21
4630551.07
  0
TEXT
  8
PG-AS
 10
482956.95
 20
4630551.07
 40
.4
 50
0.0
  1
10104
 72
1
 73
1
 11
482956.95
 21
4630551.07
  0
TEXT
  8
PG-AA
 10
482775.61
 20
4630638.79
 40
.4
 50
0.0
  1
v
 72
1
 73
3
 11
482775.61
 21
4630638.79
  0
TEXT
  8
PG-AS
 10
482775.61
 20
4630638.79
 40
.4
 50
0.0
  1
10805
 72
1
 73
1
 11
482775.61
 21
4630638.79
  0
TEXT
  8
PG-AA
 10
482982.24
 20
4630663.11
 40
.4
 50
0.0
  1
w
 72
1
 73
3
 11
482982.24
 21
4630663.11
  0
TEXT
  8
PG-AS
 10
482982.24
 20
4630663.11
 40
.4
 50
0.0
  1
52855
 72
1
 73
1
 11
482982.24
 21
4630663.11
  0
TEXT
  8
PG-AA
 10
483627.59
 20
4630915.75
 40
.4
 50
0.0
  1
i
 72
1
 73
3
 11
483627.59
 21
4630915.75
  0
TEXT
  8
PG-AS
 10
483627.59
 20
4630915.75
 40
.4
 50
0.0
  1
1799
 72
1
 73
1
 11
483627.59
 21
4630915.75
  0
TEXT
  8
PG-AA
 10
483565.34
 20
4630828.58
 40
.4
 50
0.0
  1
j
 72
1
 73
3
 11
483565.34
 21
4630828.58
  0
TEXT
  8
PG-AS
 10
483565.34
 20
4630828.58
 40
.4
 50
0.0
  1
34745
 72
1
 73
1
 11
483565.34
 21
4630828.58
  0
TEXT
  8
PG-AA
 10
483490.54
 20
4630758.2
 40
.4
 50
0.0
  1
k
 72
1
 73
3
 11
483490.54
 21
4630758.2
  0
TEXT
  8
PG-AS
 10
483490.54
 20
4630758.2
 40
.4
 50
0.0
  1
671
 72
1
 73
1
 11
483490.54
 21
4630758.2
  0
TEXT
  8
PG-AA
 10
483336.28
 20
4631099.12
 40
.4
 50
0.0
  1
a
 72
1
 73
3
 11
483336.28
 21
4631099.12
  0
TEXT
  8
PG-AS
 10
483336.28
 20
4631099.12
 40
.4
 50
0.0
  1
811
 72
1
 73
1
 11
483336.28
 21
4631099.12
  0
TEXT
  8
PG-AA
 10
483661.31
 20
4630992.38
 40
.4
 50
0.0
  1
f
 72
1
 73
3
 11
483661.31
 21
4630992.38
  0
TEXT
  8
PG-AS
 10
483661.31
 20
4630992.38
 40
.4
 50
0.0
  1
24039
 72
1
 73
1
 11
483661.31
 21
4630992.38
  0
TEXT
  8
PG-AA
 10
483643.35
 20
4631064.16
 40
.4
 50
0.0
  1
e
 72
1
 73
3
 11
483643.35
 21
4631064.16
  0
TEXT
  8
PG-AS
 10
483643.35
 20
4631064.16
 40
.4
 50
0.0
  1
1508
 72
1
 73
1
 11
483643.35
 21
4631064.16
  0
TEXT
  8
PG-AA
 10
483610.35
 20
4631097.35
 40
.4
 50
0.0
  1
d
 72
1
 73
3
 11
483610.35
 21
4631097.35
  0
TEXT
  8
PG-AS
 10
483610.35
 20
4631097.35
 40
.4
 50
0.0
  1
29048
 72
1
 73
1
 11
483610.35
 21
4631097.35
  0
POLYLINE
  8
PG-LP
 66
1
  0
VERTEX
 8
PG-LP
 10
482772.497
 20
4630721.201
  0
VERTEX
 8
PG-LP
 10
482773.717
 20
4630723.751
  0
VERTEX
 8
PG-LP
 10
482781.737
 20
4630739.671
  0
SEQEND
  8
0
  0
POLYLINE
  8
PG-LP
 66
1
  0
VERTEX
 8
PG-LP
 10
482826.126
 20
4630581.4105
  0
VERTEX
 8
PG-LP
 10
482811.226
 20
4630586.2005
  0
VERTEX
 8
PG-LP
 10
482743.886
 20
4630607.831
  0
VERTEX
 8
PG-LP
 10
482720.606
 20
4630615.641
  0
VERTEX
 8
PG-LP
 10
482725.716
 20
4630624.511
  0
VERTEX
 8
PG-LP
 10
482727.236
 20
4630627.881
  0
VERTEX
 8
PG-LP
 10
482737.5365
 20
4630646.491
  0
VERTEX
 8
PG-LP
 10
482743.8565
 20
4630660.461
  0
VERTEX
 8
PG-LP
 10
482750.0365
 20
4630674.291
  0
VERTEX
 8
PG-LP
 10
482772.497
 20
4630721.201
  0
SEQEND
  8
0
  0
LINE
  8
PG-LI
 10
482818.2365
 20
4630683.4505
 11
482772.497
 21
4630721.201
  0
LINE
  8
PG-LP
 10
482781.737
 20
4630739.671
 11
482782.957
 21
4630742.081
  0
LINE
  8
PG-LI
 10
482797.907
 20
4630732.471
 11
482781.737
 21
4630739.671
  0
POLYLINE
  8
PG-LP
 66
1
  0
VERTEX
 8
PG-LP
 10
482782.957
 20
4630742.081
  0
VERTEX
 8
PG-LP
 10
482785.607
 20
4630747.341
  0
VERTEX
 8
PG-LP
 10
482801.4175
 20
4630780.361
  0
VERTEX
 8
PG-LP
 10
482806.8975
 20
4630791.221
  0
SEQEND
  8
0
  0
POLYLINE
  8
PG-LI
 66
1
  0
VERTEX
 8
PG-LI
 10
482782.957
 20
4630742.081
  0
VERTEX
 8
PG-LI
 10
482799.077
 20
4630734.681
  0
VERTEX
 8
PG-LI
 10
482814.467
 20
4630725.0705
  0
VERTEX
 8
PG-LI
 10
482828.127
 20
4630714.8005
  0
VERTEX
 8
PG-LI
 10
482843.157
 20
4630699.2905
  0
VERTEX
 8
PG-LI
 10
482854.177
 20
4630687.2905
  0
SEQEND
  8
0
  0
POLYLINE
  8
PG-LI
 66
1
  0
VERTEX
 8
PG-LI
 10
482860.6965
 20
4630669.42
  0
VERTEX
 8
PG-LI
 10
482852.127
 20
4630685.8305
  0
VERTEX
 8
PG-LI
 10
482841.347
 20
4630697.5505
  0
VERTEX
 8
PG-LI
 10
482826.477
 20
4630712.9205
  0
VERTEX
 8
PG-LI
 10
482813.057
 20
4630723.0105
  0
VERTEX
 8
PG-LI
 10
482797.907
 20
4630732.471
  0
SEQEND
  8
0
  0
POLYLINE
  8
PG-LP
 66
1
  0
VERTEX
 8
PG-LP
 10
482806.8975
 20
4630791.221
  0
VERTEX
 8
PG-LP
 10
482818.5775
 20
4630814.3505
  0
VERTEX
 8
PG-LP
 10
482829.168
 20
4630829.0405
  0
VERTEX
 8
PG-LP
 10
482833.358
 20
4630832.6105
  0
VERTEX
 8
PG-LP
 10
482842.008
 20
4630837.2905
  0
VERTEX
 8
PG-LP
 10
482852.108
 20
4630841.1305
  0
VERTEX
 8
PG-LP
 10
482872.088
 20
4630846.8505
  0
VERTEX
 8
PG-LP
 10
482890.018
 20
4630852.8405
  0
VERTEX
 8
PG-LP
 10
482910.658
 20
4630861.78
  0
VERTEX
 8
PG-LP
 10
482931.5885
 20
4630871.26
  0
VERTEX
 8
PG-LP
 10
482942.6785
 20
4630875.73
  0
SEQEND
  8
0
  0
POLYLINE
  8
PG-LI
 66
1
  0
VERTEX
 8
PG-LI
 10
482806.8975
 20
4630791.221
  0
VERTEX
 8
PG-LI
 10
482839.7975
 20
4630783.8905
  0
VERTEX
 8
PG-LI
 10
482855.4775
 20
4630782.2905
  0
VERTEX
 8
PG-LI
 10
482875.4475
 20
4630783.6605
  0
VERTEX
 8
PG-LI
 10
482886.2075
 20
4630781.5
  0
VERTEX
 8
PG-LI
 10
482902.8975
 20
4630779.15
  0
VERTEX
 8
PG-LI
 10
482929.2175
 20
4630775.51
  0
VERTEX
 8
PG-LI
 10
482957.0275
 20
4630775.1895
  0
VERTEX
 8
PG-LI
 10
482984.5975
 20
4630772.7095
  0
VERTEX
 8
PG-LI
 10
483011.4175
 20
4630769.069
  0
SEQEND
  8
0
  0
LINE
  8
PG-LI
 10
482844.8765
 20
4630662.0405
 11
482818.2365
 21
4630683.4505
  0
POLYLINE
  8
PG-LI
 66
1
  0
VERTEX
 8
PG-LI
 10
482844.9065
 20
4630659.2305
  0
VERTEX
 8
PG-LI
 10
482845.0665
 20
4630647.6805
  0
VERTEX
 8
PG-LI
 10
482846.0565
 20
4630623.06
  0
VERTEX
 8
PG-LI
 10
482852.986
 20
4630601.29
  0
VERTEX
 8
PG-LI
 10
482858.056
 20
4630597.29
  0
VERTEX
 8
PG-LI
 10
482860.226
 20
4630592.23
  0
VERTEX
 8
PG-LI
 10
482842.426
 20
4630587.83
  0
VERTEX
 8
PG-LI
 10
482826.126
 20
4630581.4105
  0
SEQEND
  8
0
  0
POLYLINE
  8
PG-LP
 66
1
  0
VERTEX
 8
PG-LP
 10
482841.156
 20
4630576.14
  0
VERTEX
 8
PG-LP
 10
482826.496
 20
4630581.2905
  0
VERTEX
 8
PG-LP
 10
482826.126
 20
4630581.4105
  0
SEQEND
  8
0
  0
LINE
  8
PG-LP
 10
482843.846
 20
4630574.94
 11
482841.156
 21
4630576.14
  0
POLYLINE
  8
PG-LI
 66
1
  0
VERTEX
 8
PG-LI
 10
482843.846
 20
4630574.94
  0
VERTEX
 8
PG-LI
 10
482891.836
 20
4630592.97
  0
VERTEX
 8
PG-LI
 10
482925.056
 20
4630597.2795
  0
VERTEX
 8
PG-LI
 10
482968.686
 20
4630594.4795
  0
VERTEX
 8
PG-LI
 10
483023.366
 20
4630580.109
  0
SEQEND
  8
0
  0
POLYLINE
  8
PG-LP
 66
1
  0
VERTEX
 8
PG-LP
 10
483014.586
 20
4630520.869
  0
VERTEX
 8
PG-LP
 10
482962.376
 20
4630536.479
  0
VERTEX
 8
PG-LP
 10
482950.446
 20
4630534.4695
  0
VERTEX
 8
PG-LP
 10
482938.3555
 20
4630532.4395
  0
VERTEX
 8
PG-LP
 10
482893.456
 20
4630550.99
  0
VERTEX
 8
PG-LP
 10
482869.486
 20
4630563.46
  0
VERTEX
 8
PG-LP
 10
482843.846
 20
4630574.94
  0
SEQEND
  8
0
  0
LINE
  8
PG-LI
 10
482844.8765
 20
4630662.0405
 11
482860.6965
 21
4630669.42
  0
LINE
  8
PG-LI
 10
482844.9065
 20
4630659.2305
 11
482844.8765
 21
4630662.0405
  0
LINE
  8
PG-LI
 10
482854.4265
 20
4630663.75
 11
482844.9065
 21
4630659.2305
  0
LINE
  8
PG-LI
 10
482854.177
 20
4630687.2905
 11
482862.9165
 21
4630670.46
  0
POLYLINE
  8
PG-LI
 66
1
  0
VERTEX
 8
PG-LI
 10
483079.358
 20
4630790.8085
  0
VERTEX
 8
PG-LI
 10
483102.578
 20
4630795.7585
  0
VERTEX
 8
PG-LI
 10
483129.758
 20
4630796.7085
  0
VERTEX
 8
PG-LI
 10
483156.798
 20
4630800.938
  0
VERTEX
 8
PG-LI
 10
483183.438
 20
4630806.328
  0
VERTEX
 8
PG-LI
 10
483183.918
 20
4630803.878
  0
VERTEX
 8
PG-LI
 10
483157.208
 20
4630798.488
  0
VERTEX
 8
PG-LI
 10
483129.968
 20
4630794.2085
  0
VERTEX
 8
PG-LI
 10
483102.858
 20
4630793.2685
  0
VERTEX
 8
PG-LI
 10
483076.938
 20
4630787.7385
  0
VERTEX
 8
PG-LI
 10
483058.768
 20
4630779.569
  0
VERTEX
 8
PG-LI
 10
482988.4475
 20
4630737.0895
  0
VERTEX
 8
PG-LI
 10
482943.747
 20
4630708.3395
  0
VERTEX
 8
PG-LI
 10
482908.297
 20
4630690.1
  0
VERTEX
 8
PG-LI
 10
482875.2065
 20
4630673.45
  0
VERTEX
 8
PG-LI
 10
482854.4265
 20
4630663.75
  0
SEQEND
  8
0
  0
LINE
  8
PG-LI
 10
482860.6965
 20
4630669.42
 11
482862.9165
 21
4630670.46
  0
POLYLINE
  8
PG-LI
 66
1
  0
VERTEX
 8
PG-LI
 10
482862.9165
 20
4630670.46
  0
VERTEX
 8
PG-LI
 10
482874.1465
 20
4630675.7
  0
VERTEX
 8
PG-LI
 10
482907.197
 20
4630692.33
  0
VERTEX
 8
PG-LI
 10
482942.517
 20
4630710.5095
  0
VERTEX
 8
PG-LI
 10
482987.1475
 20
4630739.2095
  0
VERTEX
 8
PG-LI
 10
483035.7875
 20
4630768.579
  0
SEQEND
  8
0
  0
POLYLINE
  8
PG-LP
 66
1
  0
VERTEX
 8
PG-LP
 10
482942.6785
 20
4630875.73
  0
VERTEX
 8
PG-LP
 10
482943.5185
 20
4630876.07
  0
VERTEX
 8
PG-LP
 10
482945.2885
 20
4630876.88
  0
VERTEX
 8
PG-LP
 10
482982.6085
 20
4630892.8995
  0
VERTEX
 8
PG-LP
 10
483010.2485
 20
4630906.3195
  0
VERTEX
 8
PG-LP
 10
483034.289
 20
4630919.6795
  0
VERTEX
 8
PG-LP
 10
483064.829
 20
4630948.059
  0
VERTEX
 8
PG-LP
 10
483076.589
 20
4630960.289
  0
SEQEND
  8
0
  0
POLYLINE
  8
PG-LI
 66
1
  0
VERTEX
 8
PG-LI
 10
482942.6785
 20
4630875.73
  0
VERTEX
 8
PG-LI
 10
482944.9885
 20
4630868.65
  0
VERTEX
 8
PG-LI
 10
482977.2985
 20
4630880.8295
  0
VERTEX
 8
PG-LI
 10
483019.5685
 20
4630900.3595
  0
VERTEX
 8
PG-LI
 10
483049.469
 20
4630913.899
  0
VERTEX
 8
PG-LI
 10
483063.719
 20
4630920.409
  0
VERTEX
 8
PG-LI
 10
483069.259
 20
4630926.699
  0
VERTEX
 8
PG-LI
 10
483063.429
 20
4630929.299
  0
VERTEX
 8
PG-LI
 10
483078.149
 20
4630947.249
  0
VERTEX
 8
PG-LI
 10
483082.929
 20
4630951.999
  0
SEQEND
  8
0
  0
LINE
  8
PG-LI
 10
483011.4175
 20
4630769.069
 11
483035.7875
 21
4630768.579
  0
LINE
  8
PG-LP
 10
483014.816
 20
4630520.789
 11
483014.586
 21
4630520.869
  0
POLYLINE
  8
PG-LI
 66
1
  0
VERTEX
 8
PG-LI
 10
483014.816
 20
4630520.789
  0
VERTEX
 8
PG-LI
 10
483027.146
 20
4630525.0385
  0
VERTEX
 8
PG-LI
 10
483036.626
 20
4630523.6185
  0
VERTEX
 8
PG-LI
 10
483047.176
 20
4630541.8985
  0
VERTEX
 8
PG-LI
 10
483061.616
 20
4630563.7785
  0
SEQEND
  8
0
  0
POLYLINE
  8
PG-LP
 66
1
  0
VERTEX
 8
PG-LP
 10
483390.336
 20
4630508.886
  0
VERTEX
 8
PG-LP
 10
483361.126
 20
4630469.756
  0
VERTEX
 8
PG-LP
 10
483342.136
 20
4630463.776
  0
VERTEX
 8
PG-LP
 10
483324.2955
 20
4630455.9865
  0
VERTEX
 8
PG-LP
 10
483313.9555
 20
4630449.0665
  0
VERTEX
 8
PG-LP
 10
483303.6055
 20
4630442.1565
  0
VERTEX
 8
PG-LP
 10
483288.7555
 20
4630439.8465
  0
VERTEX
 8
PG-LP
 10
483272.6755
 20
4630442.5065
  0
VERTEX
 8
PG-LP
 10
483172.6755
 20
4630470.1575
  0
VERTEX
 8
PG-LP
 10
483102.5455
 20
4630490.558
  0
VERTEX
 8
PG-LP
 10
483045.4855
 20
4630510.3785
  0
VERTEX
 8
PG-LP
 10
483014.816
 20
4630520.789
  0
SEQEND
  8
0
  0
LINE
  8
PG-LI
 10
483023.366
 20
4630580.109
 11
483060.826
 21
4630572.8185
  0
POLYLINE
  8
PG-LI
 66
1
  0
VERTEX
 8
PG-LI
 10
483035.7875
 20
4630768.579
  0
VERTEX
 8
PG-LI
 10
483057.628
 20
4630781.789
  0
VERTEX
 8
PG-LI
 10
483076.178
 20
4630790.129
  0
VERTEX
 8
PG-LI
 10
483079.358
 20
4630790.8085
  0
SEQEND
  8
0
  0
POLYLINE
  8
PG-LI
 66
1
  0
VERTEX
 8
PG-LI
 10
483065.636
 20
4630568.1985
  0
VERTEX
 8
PG-LI
 10
483059.926
 20
4630569.9485
  0
VERTEX
 8
PG-LI
 10
483060.826
 20
4630572.8185
  0
SEQEND
  8
0
  0
LINE
  8
PG-LI
 10
483060.826
 20
4630572.8185
 11
483064.796
 21
4630571.5985
  0
LINE
  8
PG-LI
 10
483061.616
 20
4630563.7785
 11
483065.636
 21
4630568.1985
  0
POLYLINE
  8
PG-LI
 66
1
  0
VERTEX
 8
PG-LI
 10
483064.796
 20
4630571.5985
  0
VERTEX
 8
PG-LI
 10
483054.9665
 20
4630597.6485
  0
VERTEX
 8
PG-LI
 10
483061.0665
 20
4630610.2985
  0
VERTEX
 8
PG-LI
 10
483076.0965
 20
4630619.4285
  0
VERTEX
 8
PG-LI
 10
483109.167
 20
4630638.6585
  0
VERTEX
 8
PG-LI
 10
483133.897
 20
4630657.398
  0
SEQEND
  8
0
  0
LINE
  8
PG-LI
 10
483064.796
 20
4630571.5985
 11
483073.916
 21
4630568.7885
  0
POLYLINE
  8
PG-LI
 66
1
  0
VERTEX
 8
PG-LI
 10
483392.2465
 20
4630511.146
  0
VERTEX
 8
PG-LI
 10
483366.626
 20
4630505.266
  0
VERTEX
 8
PG-LI
 10
483350.446
 20
4630501.046
  0
VERTEX
 8
PG-LI
 10
483307.226
 20
4630486.3165
  0
VERTEX
 8
PG-LI
 10
483291.966
 20
4630482.9965
  0
VERTEX
 8
PG-LI
 10
483278.836
 20
4630476.9265
  0
VERTEX
 8
PG-LI
 10
483269.446
 20
4630481.747
  0
VERTEX
 8
PG-LI
 10
483254.756
 20
4630491.097
  0
VERTEX
 8
PG-LI
 10
483240.886
 20
4630498.027
  0
VERTEX
 8
PG-LI
 10
483221.336
 20
4630504.637
  0
VERTEX
 8
PG-LI
 10
483205.526
 20
4630511.5475
  0
VERTEX
 8
PG-LI
 10
483189.876
 20
4630519.9675
  0
VERTEX
 8
PG-LI
 10
483168.876
 20
4630532.8775
  0
VERTEX
 8
PG-LI
 10
483141.496
 20
4630540.398
  0
VERTEX
 8
PG-LI
 10
483110.786
 20
4630551.408
  0
VERTEX
 8
PG-LI
 10
483082.736
 20
4630562.9285
  0
VERTEX
 8
PG-LI
 10
483065.636
 20
4630568.1985
  0
SEQEND
  8
0
  0
POLYLINE
  8
PG-LI
 66
1
  0
VERTEX
 8
PG-LI
 10
483073.916
 20
4630568.7885
  0
VERTEX
 8
PG-LI
 10
483063.3665
 20
4630597.3185
  0
VERTEX
 8
PG-LI
 10
483066.9965
 20
4630604.8585
  0
VERTEX
 8
PG-LI
 10
483079.9865
 20
4630612.7485
  0
VERTEX
 8
PG-LI
 10
483113.407
 20
4630632.188
  0
VERTEX
 8
PG-LI
 10
483136.717
 20
4630649.848
  0
SEQEND
  8
0
  0
POLYLINE
  8
PG-LI
 66
1
  0
VERTEX
 8
PG-LI
 10
483073.916
 20
4630568.7885
  0
VERTEX
 8
PG-LI
 10
483083.756
 20
4630565.7585
  0
VERTEX
 8
PG-LI
 10
483111.876
 20
4630554.208
  0
VERTEX
 8
PG-LI
 10
483142.406
 20
4630543.248
  0
SEQEND
  8
0
  0
POLYLINE
  8
PG-LP
 66
1
  0
VERTEX
 8
PG-LP
 10
483076.589
 20
4630960.289
  0
VERTEX
 8
PG-LP
 10
483078.039
 20
4630961.799
  0
VERTEX
 8
PG-LP
 10
483103.5595
 20
4630990.569
  0
VERTEX
 8
PG-LP
 10
483118.2895
 20
4631006.739
  0
VERTEX
 8
PG-LP
 10
483133.0295
 20
4631022.8985
  0
VERTEX
 8
PG-LP
 10
483148.22
 20
4631042.4485
  0
VERTEX
 8
PG-LP
 10
483163.41
 20
4631062.0085
  0
VERTEX
 8
PG-LP
 10
483179.86
 20
4631077.3685
  0
VERTEX
 8
PG-LP
 10
483196.3105
 20
4631092.7185
  0
VERTEX
 8
PG-LP
 10
483220.5905
 20
4631114.668
  0
VERTEX
 8
PG-LP
 10
483234.9705
 20
4631121.028
  0
VERTEX
 8
PG-LP
 10
483249.3705
 20
4631127.388
  0
VERTEX
 8
PG-LP
 10
483312.911
 20
4631152.2775
  0
SEQEND
  8
0
  0
LINE
  8
PG-LI
 10
483076.589
 20
4630960.289
 11
483082.929
 21
4630951.999
  0
LINE
  8
PG-LI
 10
483091.298
 20
4630802.3585
 11
483079.358
 21
4630790.8085
  0
POLYLINE
  8
PG-LI
 66
1
  0
VERTEX
 8
PG-LI
 10
483082.929
 20
4630951.999
  0
VERTEX
 8
PG-LI
 10
483095.859
 20
4630944.019
  0
VERTEX
 8
PG-LI
 10
483117.129
 20
4630938.7985
  0
VERTEX
 8
PG-LI
 10
483129.449
 20
4630954.9385
  0
VERTEX
 8
PG-LI
 10
483139.6795
 20
4630956.8285
  0
VERTEX
 8
PG-LI
 10
483177.019
 20
4630944.168
  0
VERTEX
 8
PG-LI
 10
483223.099
 20
4630930.218
  0
VERTEX
 8
PG-LI
 10
483256.459
 20
4630922.0275
  0
SEQEND
  8
0
  0
POLYLINE
  8
PG-LI
 66
1
  0
VERTEX
 8
PG-LI
 10
483218.2085
 20
4630854.368
  0
VERTEX
 8
PG-LI
 10
483173.0785
 20
4630835.288
  0
VERTEX
 8
PG-LI
 10
483162.6285
 20
4630824.888
  0
VERTEX
 8
PG-LI
 10
483159.888
 20
4630814.828
  0
VERTEX
 8
PG-LI
 10
483150.938
 20
4630807.988
  0
VERTEX
 8
PG-LI
 10
483132.748
 20
4630805.3785
  0
VERTEX
 8
PG-LI
 10
483120.738
 20
4630806.3785
  0
VERTEX
 8
PG-LI
 10
483104.288
 20
4630810.5085
  0
VERTEX
 8
PG-LI
 10
483091.298
 20
4630802.3585
  0
SEQEND
  8
0
  0
LINE
  8
PG-LI
 10
483133.897
 20
4630657.398
 11
483165.627
 21
4630660.358
  0
LINE
  8
PG-LI
 10
483136.717
 20
4630649.848
 11
483159.257
 21
4630651.658
  0
LINE
  8
PG-LI
 10
483142.406
 20
4630543.248
 11
483167.346
 21
4630536.4175
  0
LINE
  8
PG-LI
 10
483159.257
 20
4630651.658
 11
483165.627
 21
4630660.358
  0
POLYLINE
  8
PG-LI
 66
1
  0
VERTEX
 8
PG-LI
 10
483167.346
 20
4630536.4175
  0
VERTEX
 8
PG-LI
 10
483167.266
 20
4630542.7575
  0
VERTEX
 8
PG-LI
 10
483160.4265
 20
4630557.948
  0
VERTEX
 8
PG-LI
 10
483153.1565
 20
4630571.208
  0
VERTEX
 8
PG-LI
 10
483146.1065
 20
4630587.138
  0
VERTEX
 8
PG-LI
 10
483147.1965
 20
4630607.268
  0
VERTEX
 8
PG-LI
 10
483150.6865
 20
4630622.618
  0
VERTEX
 8
PG-LI
 10
483152.817
 20
4630642.848
  0
VERTEX
 8
PG-LI
 10
483159.257
 20
4630651.658
  0
SEQEND
  8
0
  0
POLYLINE
  8
PG-LI
 66
1
  0
VERTEX
 8
PG-LI
 10
483165.627
 20
4630660.358
  0
VERTEX
 8
PG-LI
 10
483170.277
 20
4630666.718
  0
VERTEX
 8
PG-LI
 10
483185.637
 20
4630682.508
  0
VERTEX
 8
PG-LI
 10
483202.0775
 20
4630699.2875
  0
VERTEX
 8
PG-LI
 10
483215.2275
 20
4630719.6375
  0
VERTEX
 8
PG-LI
 10
483226.3175
 20
4630738.1775
  0
VERTEX
 8
PG-LI
 10
483232.208
 20
4630750.1775
  0
VERTEX
 8
PG-LI
 10
483230.228
 20
4630766.2875
  0
VERTEX
 8
PG-LI
 10
483225.098
 20
4630787.1575
  0
VERTEX
 8
PG-LI
 10
483215.768
 20
4630799.3075
  0
VERTEX
 8
PG-LI
 10
483211.4785
 20
4630823.268
  0
VERTEX
 8
PG-LI
 10
483212.4285
 20
4630845.298
  0
SEQEND
  8
0
  0
LINE
  8
PG-LI
 10
483167.346
 20
4630536.4175
 11
483170.076
 21
4630535.6675
  0
POLYLINE
  8
PG-LI
 66
1
  0
VERTEX
 8
PG-LI
 10
483170.076
 20
4630535.6675
  0
VERTEX
 8
PG-LI
 10
483169.806
 20
4630543.1575
  0
VERTEX
 8
PG-LI
 10
483162.6465
 20
4630559.0875
  0
VERTEX
 8
PG-LI
 10
483155.3865
 20
4630572.338
  0
VERTEX
 8
PG-LI
 10
483148.6165
 20
4630587.628
  0
VERTEX
 8
PG-LI
 10
483149.6665
 20
4630606.938
  0
VERTEX
 8
PG-LI
 10
483153.1465
 20
4630622.218
  0
VERTEX
 8
PG-LI
 10
483155.207
 20
4630641.928
  0
VERTEX
 8
PG-LI
 10
483172.167
 20
4630665.108
  0
VERTEX
 8
PG-LI
 10
483187.397
 20
4630680.7675
  0
VERTEX
 8
PG-LI
 10
483204.0175
 20
4630697.7275
  0
VERTEX
 8
PG-LI
 10
483217.3275
 20
4630718.3275
  0
VERTEX
 8
PG-LI
 10
483228.4975
 20
4630736.9875
  0
VERTEX
 8
PG-LI
 10
483234.768
 20
4630749.7575
  0
VERTEX
 8
PG-LI
 10
483232.668
 20
4630766.7475
  0
SEQEND
  8
0
  0
POLYLINE
  8
PG-LI
 66
1
  0
VERTEX
 8
PG-LI
 10
483395.7365
 20
4630515.276
  0
VERTEX
 8
PG-LI
 10
483365.906
 20
4630508.176
  0
VERTEX
 8
PG-LI
 10
483349.616
 20
4630503.916
  0
VERTEX
 8
PG-LI
 10
483306.446
 20
4630489.2065
  0
VERTEX
 8
PG-LI
 10
483291.036
 20
4630485.8665
  0
VERTEX
 8
PG-LI
 10
483278.926
 20
4630480.2665
  0
VERTEX
 8
PG-LI
 10
483270.946
 20
4630484.357
  0
VERTEX
 8
PG-LI
 10
483256.236
 20
4630493.717
  0
VERTEX
 8
PG-LI
 10
483242.046
 20
4630500.797
  0
VERTEX
 8
PG-LI
 10
483222.416
 20
4630507.437
  0
VERTEX
 8
PG-LI
 10
483206.846
 20
4630514.2475
  0
VERTEX
 8
PG-LI
 10
483191.386
 20
4630522.5675
  0
VERTEX
 8
PG-LI
 10
483170.076
 20
4630535.6675
  0
SEQEND
  8
0
  0
LINE
  8
PG-LI
 10
483212.4285
 20
4630845.298
 11
483218.2085
 21
4630854.368
  0
POLYLINE
  8
PG-LI
 66
1
  0
VERTEX
 8
PG-LI
 10
483375.75
 20
4630977.427
  0
VERTEX
 8
PG-LI
 10
483357.9995
 20
4630958.797
  0
VERTEX
 8
PG-LI
 10
483329.2795
 20
4630935.097
  0
VERTEX
 8
PG-LI
 10
483301.579
 20
4630907.477
  0
VERTEX
 8
PG-LI
 10
483266.719
 20
4630871.6575
  0
VERTEX
 8
PG-LI
 10
483213.9585
 20
4630823.178
  0
SEQEND
  8
0
  0
POLYLINE
  8
PG-LI
 66
1
  0
VERTEX
 8
PG-LI
 10
483213.9585
 20
4630823.178
  0
VERTEX
 8
PG-LI
 10
483214.8785
 20
4630844.538
  0
VERTEX
 8
PG-LI
 10
483220.9085
 20
4630853.998
  0
VERTEX
 8
PG-LI
 10
483232.8485
 20
4630868.0975
  0
VERTEX
 8
PG-LI
 10
483243.659
 20
4630883.3375
  0
VERTEX
 8
PG-LI
 10
483252.309
 20
4630902.7375
  0
VERTEX
 8
PG-LI
 10
483258.169
 20
4630919.6875
  0
VERTEX
 8
PG-LI
 10
483269.9295
 20
4630947.7675
  0
VERTEX
 8
PG-LI
 10
483273.1395
 20
4630966.5975
  0
VERTEX
 8
PG-LI
 10
483289.0895
 20
4630991.0375
  0
VERTEX
 8
PG-LI
 10
483307.87
 20
4631004.2075
  0
SEQEND
  8
0
  0
LINE
  8
PG-LI
 10
483218.108
 20
4630800.3775
 11
483213.9585
 21
4630823.178
  0
LINE
  8
PG-LI
 10
483224.018
 20
4630806.3975
 11
483213.9585
 21
4630823.178
  0
POLYLINE
  8
PG-LI
 66
1
  0
VERTEX
 8
PG-LI
 10
483228.048
 20
4630785.6275
  0
VERTEX
 8
PG-LI
 10
483227.388
 20
4630788.2875
  0
VERTEX
 8
PG-LI
 10
483218.108
 20
4630800.3775
  0
SEQEND
  8
0
  0
POLYLINE
  8
PG-LI
 66
1
  0
VERTEX
 8
PG-LI
 10
483256.459
 20
4630922.0275
  0
VERTEX
 8
PG-LI
 10
483255.849
 20
4630920.5775
  0
VERTEX
 8
PG-LI
 10
483249.999
 20
4630903.6375
  0
VERTEX
 8
PG-LI
 10
483241.499
 20
4630884.5675
  0
VERTEX
 8
PG-LI
 10
483230.9085
 20
4630869.6375
  0
VERTEX
 8
PG-LI
 10
483218.9085
 20
4630855.468
  0
VERTEX
 8
PG-LI
 10
483218.2085
 20
4630854.368
  0
SEQEND
  8
0
  0
POLYLINE
  8
PG-LI
 66
1
  0
VERTEX
 8
PG-LI
 10
483448.1795
 20
4630921.716
  0
VERTEX
 8
PG-LI
 10
483437.1795
 20
4630919.816
  0
VERTEX
 8
PG-LI
 10
483428.2195
 20
4630917.5465
  0
VERTEX
 8
PG-LI
 10
483420.5395
 20
4630910.6165
  0
VERTEX
 8
PG-LI
 10
483398.319
 20
4630902.8565
  0
VERTEX
 8
PG-LI
 10
483380.029
 20
4630893.3865
  0
VERTEX
 8
PG-LI
 10
483360.509
 20
4630875.8865
  0
VERTEX
 8
PG-LI
 10
483344.399
 20
4630860.477
  0
VERTEX
 8
PG-LI
 10
483332.1885
 20
4630846.877
  0
VERTEX
 8
PG-LI
 10
483328.6685
 20
4630841.247
  0
VERTEX
 8
PG-LI
 10
483317.5585
 20
4630840.737
  0
VERTEX
 8
PG-LI
 10
483310.4885
 20
4630837.987
  0
VERTEX
 8
PG-LI
 10
483304.2185
 20
4630827.257
  0
VERTEX
 8
PG-LI
 10
483292.3285
 20
4630826.737
  0
VERTEX
 8
PG-LI
 10
483289.9685
 20
4630817.067
  0
VERTEX
 8
PG-LI
 10
483283.9185
 20
4630813.057
  0
VERTEX
 8
PG-LI
 10
483276.4485
 20
4630816.6575
  0
VERTEX
 8
PG-LI
 10
483268.7385
 20
4630815.9275
  0
VERTEX
 8
PG-LI
 10
483267.2585
 20
4630808.2875
  0
VERTEX
 8
PG-LI
 10
483258.9285
 20
4630804.8975
  0
VERTEX
 8
PG-LI
 10
483253.1985
 20
4630811.5575
  0
VERTEX
 8
PG-LI
 10
483248.8985
 20
4630811.8975
  0
VERTEX
 8
PG-LI
 10
483246.1385
 20
4630807.7975
  0
VERTEX
 8
PG-LI
 10
483239.9285
 20
4630812.0475
  0
VERTEX
 8
PG-LI
 10
483235.4885
 20
4630816.4475
  0
VERTEX
 8
PG-LI
 10
483226.3985
 20
4630812.5275
  0
VERTEX
 8
PG-LI
 10
483224.018
 20
4630806.3975
  0
SEQEND
  8
0
  0
LINE
  8
PG-LI
 10
483229.608
 20
4630779.2475
 11
483228.048
 21
4630785.6275
  0
POLYLINE
  8
PG-LI
 66
1
  0
VERTEX
 8
PG-LI
 10
483228.048
 20
4630785.6275
  0
VERTEX
 8
PG-LI
 10
483250.428
 20
4630780.4175
  0
VERTEX
 8
PG-LI
 10
483286.188
 20
4630786.157
  0
VERTEX
 8
PG-LI
 10
483323.4085
 20
4630802.197
  0
VERTEX
 8
PG-LI
 10
483364.8885
 20
4630827.5565
  0
VERTEX
 8
PG-LI
 10
483370.1585
 20
4630838.9265
  0
VERTEX
 8
PG-LI
 10
483403.499
 20
4630873.7065
  0
VERTEX
 8
PG-LI
 10
483437.549
 20
4630893.916
  0
VERTEX
 8
PG-LI
 10
483451.6995
 20
4630898.256
  0
SEQEND
  8
0
  0
LINE
  8
PG-LI
 10
483232.668
 20
4630766.7475
 11
483229.608
 21
4630779.2475
  0
POLYLINE
  8
PG-LI
 66
1
  0
VERTEX
 8
PG-LI
 10
483439.669
 20
4630888.396
  0
VERTEX
 8
PG-LI
 10
483407.129
 20
4630869.0965
  0
VERTEX
 8
PG-LI
 10
483375.0085
 20
4630835.5865
  0
VERTEX
 8
PG-LI
 10
483369.4085
 20
4630823.4965
  0
VERTEX
 8
PG-LI
 10
483326.0485
 20
4630796.977
  0
VERTEX
 8
PG-LI
 10
483287.778
 20
4630780.497
  0
VERTEX
 8
PG-LI
 10
483250.178
 20
4630774.4575
  0
VERTEX
 8
PG-LI
 10
483229.608
 20
4630779.2475
  0
SEQEND
  8
0
  0
LINE
  8
PG-LI
 10
483267.5395
 20
4630948.4575
 11
483256.459
 21
4630922.0275
  0
POLYLINE
  8
PG-LI
 66
1
  0
VERTEX
 8
PG-LI
 10
483324.5
 20
4631016.457
  0
VERTEX
 8
PG-LI
 10
483306.55
 20
4631006.3075
  0
VERTEX
 8
PG-LI
 10
483287.28
 20
4630992.8075
  0
VERTEX
 8
PG-LI
 10
483270.7795
 20
4630967.5175
  0
VERTEX
 8
PG-LI
 10
483267.5395
 20
4630948.4575
  0
SEQEND
  8
0
  0
LINE
  8
PG-LI
 10
483307.87
 20
4631004.2075
 11
483324.67
 21
4631013.907
  0
POLYLINE
  8
PG-LP
 66
1
  0
VERTEX
 8
PG-LP
 10
483312.911
 20
4631152.2775
  0
VERTEX
 8
PG-LP
 10
483313.651
 20
4631152.5675
  0
VERTEX
 8
PG-LP
 10
483319.621
 20
4631154.9475
  0
SEQEND
  8
0
  0
POLYLINE
  8
PG-LI
 66
1
  0
VERTEX
 8
PG-LI
 10
483312.911
 20
4631152.2775
  0
VERTEX
 8
PG-LI
 10
483317.751
 20
4631132.6175
  0
VERTEX
 8
PG-LI
 10
483328.7705
 20
4631107.8075
  0
VERTEX
 8
PG-LI
 10
483336.3105
 20
4631091.647
  0
VERTEX
 8
PG-LI
 10
483340.1805
 20
4631076.927
  0
SEQEND
  8
0
  0
POLYLINE
  8
PG-LP
 66
1
  0
VERTEX
 8
PG-LP
 10
483319.621
 20
4631154.9475
  0
VERTEX
 8
PG-LP
 10
483320.221
 20
4631155.1875
  0
VERTEX
 8
PG-LP
 10
483323.821
 20
4631157.1675
  0
VERTEX
 8
PG-LP
 10
483326.201
 20
4631158.4875
  0
SEQEND
  8
0
  0
LINE
  8
PG-LI
 10
483324.491
 20
4631134.9375
 11
483319.621
 21
4631154.9475
  0
POLYLINE
  8
PG-LI
 66
1
  0
VERTEX
 8
PG-LI
 10
483371.5505
 20
4631069.307
  0
VERTEX
 8
PG-LI
 10
483350.2905
 20
4631072.247
  0
VERTEX
 8
PG-LI
 10
483346.8605
 20
4631079.447
  0
VERTEX
 8
PG-LI
 10
483343.0005
 20
4631094.137
  0
VERTEX
 8
PG-LI
 10
483335.2105
 20
4631110.8075
  0
VERTEX
 8
PG-LI
 10
483324.491
 20
4631134.9375
  0
SEQEND
  8
0
  0
POLYLINE
  8
PG-LI
 66
1
  0
VERTEX
 8
PG-LI
 10
483324.5
 20
4631016.457
  0
VERTEX
 8
PG-LI
 10
483325.56
 20
4631032.847
  0
VERTEX
 8
PG-LI
 10
483333.7005
 20
4631051.617
  0
VERTEX
 8
PG-LI
 10
483344.2205
 20
4631068.477
  0
SEQEND
  8
0
  0
LINE
  8
PG-LI
 10
483324.67
 20
4631013.907
 11
483324.5
 21
4631016.457
  0
LINE
  8
PG-LI
 10
483324.67
 20
4631013.907
 11
483325.18
 21
4631006.317
  0
POLYLINE
  8
PG-LI
 66
1
  0
VERTEX
 8
PG-LI
 10
483325.18
 20
4631006.317
  0
VERTEX
 8
PG-LI
 10
483343.58
 20
4631017.047
  0
VERTEX
 8
PG-LI
 10
483358.36
 20
4631020.397
  0
VERTEX
 8
PG-LI
 10
483371.15
 20
4631017.617
  0
VERTEX
 8
PG-LI
 10
483379.91
 20
4631007.937
  0
VERTEX
 8
PG-LI
 10
483377.3
 20
4630996.737
  0
SEQEND
  8
0
  0
POLYLINE
  8
PG-LI
 66
1
  0
VERTEX
 8
PG-LI
 10
483325.18
 20
4631006.317
  0
VERTEX
 8
PG-LI
 10
483325.31
 20
4631004.407
  0
VERTEX
 8
PG-LI
 10
483305.64
 20
4630992.6275
  0
VERTEX
 8
PG-LI
 10
483302.62
 20
4630989.0275
  0
VERTEX
 8
PG-LI
 10
483316.5295
 20
4630959.847
  0
VERTEX
 8
PG-LI
 10
483323.7895
 20
4630946.467
  0
VERTEX
 8
PG-LI
 10
483340.7095
 20
4630954.017
  0
VERTEX
 8
PG-LI
 10
483351.7595
 20
4630969.267
  0
VERTEX
 8
PG-LI
 10
483368.57
 20
4630987.297
  0
SEQEND
  8
0
  0
POLYLINE
  8
PG-LP
 66
1
  0
VERTEX
 8
PG-LP
 10
483326.201
 20
4631158.4875
  0
VERTEX
 8
PG-LP
 10
483326.751
 20
4631158.7875
  0
VERTEX
 8
PG-LP
 10
483387.1415
 20
4631192.477
  0
VERTEX
 8
PG-LP
 10
483468.712
 20
4631243.7165
  0
VERTEX
 8
PG-LP
 10
483492.672
 20
4631259.9765
  0
VERTEX
 8
PG-LP
 10
483516.8025
 20
4631275.866
  0
VERTEX
 8
PG-LP
 10
483522.8525
 20
4631279.196
  0
VERTEX
 8
PG-LP
 10
483528.9025
 20
4631282.526
  0
VERTEX
 8
PG-LP
 10
483547.9725
 20
4631294.546
  0
VERTEX
 8
PG-LP
 10
483555.0125
 20
4631298.996
  0
VERTEX
 8
PG-LP
 10
483557.9825
 20
4631300.876
  0
VERTEX
 8
PG-LP
 10
483577.6325
 20
4631264.7955
  0
VERTEX
 8
PG-LP
 10
483577.8925
 20
4631264.3255
  0
VERTEX
 8
PG-LP
 10
483602.062
 20
4631216.4955
  0
VERTEX
 8
PG-LP
 10
483603.352
 20
4631213.9555
  0
VERTEX
 8
PG-LP
 10
483601.302
 20
4631209.4055
  0
VERTEX
 8
PG-LP
 10
483600.742
 20
4631204.5255
  0
VERTEX
 8
PG-LP
 10
483600.852
 20
4631201.7555
  0
VERTEX
 8
PG-LP
 10
483600.812
 20
4631198.4755
  0
VERTEX
 8
PG-LP
 10
483601.662
 20
4631195.6855
  0
SEQEND
  8
0
  0
LINE
  8
PG-LI
 10
483326.201
 20
4631158.4875
 11
483382.0105
 21
4631078.197
  0
LINE
  8
PG-LI
 10
483340.1805
 20
4631076.927
 11
483344.2205
 21
4631068.477
  0
POLYLINE
  8
PG-LI
 66
1
  0
VERTEX
 8
PG-LI
 10
483344.2205
 20
4631068.477
  0
VERTEX
 8
PG-LI
 10
483345.5505
 20
4631065.707
  0
VERTEX
 8
PG-LI
 10
483370.5305
 20
4631062.257
  0
SEQEND
  8
0
  0
LINE
  8
PG-LI
 10
483377.3
 20
4630996.737
 11
483368.57
 21
4630987.297
  0
LINE
  8
PG-LI
 10
483368.57
 20
4630987.297
 11
483375.75
 21
4630977.427
  0
LINE
  8
PG-LI
 10
483370.5305
 20
4631062.257
 11
483371.5505
 21
4631069.307
  0
LINE
  8
PG-LI
 10
483371.5505
 20
4631069.307
 11
483382.0105
 21
4631078.197
  0
LINE
  8
PG-LI
 10
483379.65
 20
4630981.5265
 11
483375.75
 21
4630977.427
  0
POLYLINE
  8
PG-LI
 66
1
  0
VERTEX
 8
PG-LI
 10
483430.99
 20
4631017.7065
  0
VERTEX
 8
PG-LI
 10
483424.9
 20
4631012.2565
  0
VERTEX
 8
PG-LI
 10
483403.72
 20
4630996.7765
  0
VERTEX
 8
PG-LI
 10
483379.65
 20
4630981.5265
  0
SEQEND
  8
0
  0
POLYLINE
  8
PG-LI
 66
1
  0
VERTEX
 8
PG-LI
 10
483382.0105
 20
4631078.197
  0
VERTEX
 8
PG-LI
 10
483405.9105
 20
4631074.2665
  0
VERTEX
 8
PG-LI
 10
483418.5005
 20
4631059.4265
  0
VERTEX
 8
PG-LI
 10
483435.2105
 20
4631053.2765
  0
VERTEX
 8
PG-LI
 10
483436.34
 20
4631025.2165
  0
VERTEX
 8
PG-LI
 10
483434.12
 20
4631022.0165
  0
SEQEND
  8
0
  0
LINE
  8
PG-LP
 10
483392.2465
 20
4630511.146
 11
483390.336
 21
4630508.886
  0
LINE
  8
PG-LP
 10
483395.4065
 20
4630514.876
 11
483392.2465
 21
4630511.146
  0
LINE
  8
PG-LP
 10
483395.7365
 20
4630515.276
 11
483395.4065
 21
4630514.876
  0
POLYLINE
  8
PG-LP
 66
1
  0
VERTEX
 8
PG-LP
 10
483606.1085
 20
4630758.2145
  0
VERTEX
 8
PG-LP
 10
483605.7985
 20
4630757.9045
  0
VERTEX
 8
PG-LP
 10
483601.8785
 20
4630754.1245
  0
VERTEX
 8
PG-LP
 10
483578.448
 20
4630729.545
  0
VERTEX
 8
PG-LP
 10
483538.518
 20
4630685.785
  0
VERTEX
 8
PG-LP
 10
483493.5875
 20
4630633.9555
  0
VERTEX
 8
PG-LP
 10
483398.9365
 20
4630519.076
  0
VERTEX
 8
PG-LP
 10
483395.7365
 20
4630515.276
  0
SEQEND
  8
0
  0
POLYLINE
  8
PG-LI
 66
1
  0
VERTEX
 8
PG-LI
 10
483419.0105
 20
4631057.1565
  0
VERTEX
 8
PG-LI
 10
483393.1405
 20
4631047.2065
  0
VERTEX
 8
PG-LI
 10
483393.8005
 20
4631045.0365
  0
VERTEX
 8
PG-LI
 10
483395.4505
 20
4631039.6065
  0
VERTEX
 8
PG-LI
 10
483400.2405
 20
4631040.9365
  0
VERTEX
 8
PG-LI
 10
483403.31
 20
4631033.2265
  0
VERTEX
 8
PG-LI
 10
483422.2505
 20
4631039.1465
  0
VERTEX
 8
PG-LI
 10
483419.4405
 20
4631054.7965
  0
VERTEX
 8
PG-LI
 10
483419.0105
 20
4631057.1565
  0
SEQEND
  8
0
  0
LINE
  8
PG-LI
 10
483434.12
 20
4631022.0165
 11
483430.99
 21
4631017.7065
  0
POLYLINE
  8
PG-LI
 66
1
  0
VERTEX
 8
PG-LI
 10
483430.99
 20
4631017.7065
  0
VERTEX
 8
PG-LI
 10
483444.15
 20
4630998.2665
  0
VERTEX
 8
PG-LI
 10
483467.56
 20
4630979.896
  0
SEQEND
  8
0
  0
LINE
  8
PG-LI
 10
483447.95
 20
4631001.8465
 11
483434.12
 21
4631022.0165
  0
LINE
  8
PG-LI
 10
483442.099
 20
4630889.206
 11
483439.669
 21
4630888.396
  0
POLYLINE
  8
PG-LI
 66
1
  0
VERTEX
 8
PG-LI
 10
483439.669
 20
4630888.396
  0
VERTEX
 8
PG-LI
 10
483441.029
 20
4630864.006
  0
VERTEX
 8
PG-LI
 10
483444.779
 20
4630836.606
  0
VERTEX
 8
PG-LI
 10
483452.209
 20
4630827.066
  0
VERTEX
 8
PG-LI
 10
483459.0585
 20
4630809.086
  0
VERTEX
 8
PG-LI
 10
483463.3185
 20
4630791.946
  0
VERTEX
 8
PG-LI
 10
483469.2685
 20
4630778.0555
  0
VERTEX
 8
PG-LI
 10
483477.8685
 20
4630767.1855
  0
VERTEX
 8
PG-LI
 10
483488.2485
 20
4630757.8455
  0
VERTEX
 8
PG-LI
 10
483495.8485
 20
4630754.7855
  0
VERTEX
 8
PG-LI
 10
483500.798
 20
4630746.3755
  0
VERTEX
 8
PG-LI
 10
483511.998
 20
4630741.3855
  0
VERTEX
 8
PG-LI
 10
483525.718
 20
4630741.4055
  0
VERTEX
 8
PG-LI
 10
483540.3185
 20
4630743.425
  0
VERTEX
 8
PG-LI
 10
483555.4885
 20
4630751.045
  0
VERTEX
 8
PG-LI
 10
483580.1385
 20
4630758.015
  0
SEQEND
  8
0
  0
POLYLINE
  8
PG-LI
 66
1
  0
VERTEX
 8
PG-LI
 10
483544.3395
 20
4630919.3755
  0
VERTEX
 8
PG-LI
 10
483529.0395
 20
4630908.0755
  0
VERTEX
 8
PG-LI
 10
483505.9795
 20
4630900.3955
  0
VERTEX
 8
PG-LI
 10
483476.7495
 20
4630895.666
  0
VERTEX
 8
PG-LI
 10
483452.889
 20
4630892.516
  0
VERTEX
 8
PG-LI
 10
483442.099
 20
4630889.206
  0
SEQEND
  8
0
  0
LINE
  8
PG-LI
 10
483443.499
 20
4630864.256
 11
483442.099
 21
4630889.206
  0
POLYLINE
  8
PG-LI
 66
1
  0
VERTEX
 8
PG-LI
 10
483608.3585
 20
4630760.4445
  0
VERTEX
 8
PG-LI
 10
483579.8485
 20
4630760.525
  0
VERTEX
 8
PG-LI
 10
483554.5985
 20
4630753.375
  0
VERTEX
 8
PG-LI
 10
483539.5885
 20
4630745.845
  0
VERTEX
 8
PG-LI
 10
483525.558
 20
4630743.9055
  0
VERTEX
 8
PG-LI
 10
483512.538
 20
4630743.8855
  0
VERTEX
 8
PG-LI
 10
483502.528
 20
4630748.3455
  0
VERTEX
 8
PG-LI
 10
483497.5685
 20
4630756.7955
  0
VERTEX
 8
PG-LI
 10
483489.5885
 20
4630760.0055
  0
VERTEX
 8
PG-LI
 10
483479.6885
 20
4630768.9055
  0
VERTEX
 8
PG-LI
 10
483471.4185
 20
4630779.3655
  0
VERTEX
 8
PG-LI
 10
483465.6685
 20
4630792.756
  0
VERTEX
 8
PG-LI
 10
483461.4385
 20
4630809.856
  0
VERTEX
 8
PG-LI
 10
483454.399
 20
4630828.316
  0
VERTEX
 8
PG-LI
 10
483447.149
 20
4630837.626
  0
VERTEX
 8
PG-LI
 10
483443.499
 20
4630864.256
  0
SEQEND
  8
0
  0
POLYLINE
  8
PG-LI
 66
1
  0
VERTEX
 8
PG-LI
 10
483479.52
 20
4630975.696
  0
VERTEX
 8
PG-LI
 10
483470.91
 20
4630983.826
  0
VERTEX
 8
PG-LI
 10
483447.95
 20
4631001.8465
  0
SEQEND
  8
0
  0
POLYLINE
  8
PG-LI
 66
1
  0
VERTEX
 8
PG-LI
 10
483478.9
 20
4630969.176
  0
VERTEX
 8
PG-LI
 10
483471.75
 20
4630965.286
  0
VERTEX
 8
PG-LI
 10
483463.5995
 20
4630949.836
  0
VERTEX
 8
PG-LI
 10
483456.0695
 20
4630936.666
  0
VERTEX
 8
PG-LI
 10
483448.1795
 20
4630921.716
  0
SEQEND
  8
0
  0
LINE
  8
PG-LI
 10
483458.5595
 20
4630917.006
 11
483448.1795
 21
4630921.716
  0
LINE
  8
PG-LI
 10
483451.6995
 20
4630898.256
 11
483471.8495
 21
4630900.926
  0
POLYLINE
  8
PG-LI
 66
1
  0
VERTEX
 8
PG-LI
 10
483470.2695
 20
4630917.026
  0
VERTEX
 8
PG-LI
 10
483466.3995
 20
4630916.596
  0
VERTEX
 8
PG-LI
 10
483458.5595
 20
4630917.006
  0
SEQEND
  8
0
  0
LINE
  8
PG-LI
 10
483467.56
 20
4630979.896
 11
483478.9
 21
4630969.176
  0
POLYLINE
  8
PG-LI
 66
1
  0
VERTEX
 8
PG-LI
 10
483478.9
 20
4630969.176
  0
VERTEX
 8
PG-LI
 10
483483.15
 20
4630960.086
  0
VERTEX
 8
PG-LI
 10
483484.2195
 20
4630946.896
  0
VERTEX
 8
PG-LI
 10
483487.3095
 20
4630933.726
  0
VERTEX
 8
PG-LI
 10
483491.7695
 20
4630926.656
  0
VERTEX
 8
PG-LI
 10
483486.7395
 20
4630920.886
  0
VERTEX
 8
PG-LI
 10
483479.0295
 20
4630917.996
  0
VERTEX
 8
PG-LI
 10
483470.2695
 20
4630917.026
  0
SEQEND
  8
0
  0
LINE
  8
PG-LI
 10
483471.8495
 20
4630900.926
 11
483470.2695
 21
4630917.026
  0
POLYLINE
  8
PG-LI
 66
1
  0
VERTEX
 8
PG-LI
 10
483539.6895
 20
4630923.3855
  0
VERTEX
 8
PG-LI
 10
483526.3495
 20
4630913.3255
  0
VERTEX
 8
PG-LI
 10
483504.6295
 20
4630906.0955
  0
VERTEX
 8
PG-LI
 10
483475.9495
 20
4630901.456
  0
VERTEX
 8
PG-LI
 10
483471.8495
 20
4630900.926
  0
SEQEND
  8
0
  0
LINE
  8
PG-LI
 10
483478.9
 20
4630969.176
 11
483484.59
 21
4630963.806
  0
LINE
  8
PG-LI
 10
483493.69
 20
4630980.266
 11
483479.52
 21
4630975.696
  0
LINE
  8
PG-LI
 10
483479.52
 20
4630975.696
 11
483488.05
 21
4630967.626
  0
POLYLINE
  8
PG-LI
 66
1
  0
VERTEX
 8
PG-LI
 10
483484.59
 20
4630963.806
  0
VERTEX
 8
PG-LI
 10
483502.2295
 20
4630948.296
  0
VERTEX
 8
PG-LI
 10
483522.3495
 20
4630935.6755
  0
SEQEND
  8
0
  0
LINE
  8
PG-LI
 10
483488.05
 20
4630967.626
 11
483500.82
 21
4630956.406
  0
POLYLINE
  8
PG-LI
 66
1
  0
VERTEX
 8
PG-LI
 10
483601.662
 20
4631195.6855
  0
VERTEX
 8
PG-LI
 10
483563.5215
 20
4631141.4655
  0
VERTEX
 8
PG-LI
 10
483536.681
 20
4631093.6555
  0
VERTEX
 8
PG-LI
 10
483509.8005
 20
4631052.206
  0
VERTEX
 8
PG-LI
 10
483500.8305
 20
4631024.426
  0
VERTEX
 8
PG-LI
 10
483494.89
 20
4630994.636
  0
VERTEX
 8
PG-LI
 10
483493.69
 20
4630980.266
  0
SEQEND
  8
0
  0
POLYLINE
  8
PG-LI
 66
1
  0
VERTEX
 8
PG-LI
 10
483500.82
 20
4630956.406
  0
VERTEX
 8
PG-LI
 10
483518.27
 20
4630965.5655
  0
VERTEX
 8
PG-LI
 10
483546.16
 20
4630978.7055
  0
VERTEX
 8
PG-LI
 10
483568.23
 20
4630991.7755
  0
VERTEX
 8
PG-LI
 10
483578.18
 20
4630998.6255
  0
VERTEX
 8
PG-LI
 10
483600.9605
 20
4631023.005
  0
VERTEX
 8
PG-LI
 10
483620.0905
 20
4631040.375
  0
VERTEX
 8
PG-LI
 10
483630.1605
 20
4631052.175
  0
VERTEX
 8
PG-LI
 10
483644.131
 20
4631068.205
  0
VERTEX
 8
PG-LI
 10
483662.493
 20
4631082.181
  0
VERTEX
 8
PG-LI
 10
483688.2205
 20
4631096.846
  0
VERTEX
 8
PG-LI
 10
483770.302
 20
4631189.664
  0
SEQEND
  8
0
  0
LINE
  8
PG-LI
 10
483500.82
 20
4630956.406
 11
483504.16
 21
4630953.476
  0
POLYLINE
  8
PG-LI
 66
1
  0
VERTEX
 8
PG-LI
 10
483504.16
 20
4630953.476
  0
VERTEX
 8
PG-LI
 10
483520.09
 20
4630961.8355
  0
VERTEX
 8
PG-LI
 10
483548.07
 20
4630975.0255
  0
SEQEND
  8
0
  0
POLYLINE
  8
PG-LI
 66
1
  0
VERTEX
 8
PG-LI
 10
483530.0695
 20
4630936.5455
  0
VERTEX
 8
PG-LI
 10
483525.2195
 20
4630939.9855
  0
VERTEX
 8
PG-LI
 10
483505.31
 20
4630952.4655
  0
VERTEX
 8
PG-LI
 10
483504.16
 20
4630953.476
  0
SEQEND
  8
0
  0
LINE
  8
PG-LI
 10
483522.3495
 20
4630935.6755
 11
483539.6895
 21
4630923.3855
  0
POLYLINE
  8
PG-LI
 66
1
  0
VERTEX
 8
PG-LI
 10
483570.42
 20
4630988.2755
  0
VERTEX
 8
PG-LI
 10
483556.82
 20
4630969.8055
  0
VERTEX
 8
PG-LI
 10
483540.22
 20
4630949.0555
  0
VERTEX
 8
PG-LI
 10
483530.0695
 20
4630936.5455
  0
SEQEND
  8
0
  0
LINE
  8
PG-LI
 10
483534.0595
 20
4630933.7055
 11
483530.0695
 21
4630936.5455
  0
LINE
  8
PG-LI
 10
483564.02
 20
4630970.9155
 11
483534.0595
 21
4630933.7055
  0
POLYLINE
  8
PG-LI
 66
1
  0
VERTEX
 8
PG-LI
 10
483534.0595
 20
4630933.7055
  0
VERTEX
 8
PG-LI
 10
483544.2295
 20
4630926.4855
  0
VERTEX
 8
PG-LI
 10
483556.9295
 20
4630914.8255
  0
VERTEX
 8
PG-LI
 10
483590.0595
 20
4630912.145
  0
VERTEX
 8
PG-LI
 10
483617.1195
 20
4630913.725
  0
VERTEX
 8
PG-LI
 10
483631.48
 20
4630922.6545
  0
VERTEX
 8
PG-LI
 10
483648.9
 20
4630930.4545
  0
VERTEX
 8
PG-LI
 10
483697.64
 20
4630942.9545
  0
VERTEX
 8
PG-LI
 10
483712.58
 20
4630938.934
  0
SEQEND
  8
0
  0
POLYLINE
  8
PG-LI
 66
1
  0
VERTEX
 8
PG-LI
 10
483539.6895
 20
4630923.3855
  0
VERTEX
 8
PG-LI
 10
483540.9995
 20
4630922.4555
  0
VERTEX
 8
PG-LI
 10
483544.3395
 20
4630919.3755
  0
SEQEND
  8
0
  0
LINE
  8
PG-LI
 10
483554.7395
 20
4630909.8255
 11
483544.3395
 21
4630919.3755
  0
LINE
  8
PG-LI
 10
483548.07
 20
4630975.0255
 11
483570.42
 21
4630988.2755
  0
POLYLINE
  8
PG-LI
 66
1
  0
VERTEX
 8
PG-LI
 10
483725.94
 20
4630917.464
  0
VERTEX
 8
PG-LI
 10
483709.34
 20
4630934.464
  0
VERTEX
 8
PG-LI
 10
483697.57
 20
4630937.6345
  0
VERTEX
 8
PG-LI
 10
483650.55
 20
4630925.5845
  0
VERTEX
 8
PG-LI
 10
483633.8595
 20
4630918.0845
  0
VERTEX
 8
PG-LI
 10
483618.6695
 20
4630908.655
  0
VERTEX
 8
PG-LI
 10
483589.9695
 20
4630906.985
  0
VERTEX
 8
PG-LI
 10
483554.7395
 20
4630909.8255
  0
SEQEND
  8
0
  0
LINE
  8
PG-LI
 10
483577.09
 20
4630992.8555
 11
483564.02
 21
4630970.9155
  0
LINE
  8
PG-LI
 10
483570.42
 20
4630988.2755
 11
483577.09
 21
4630992.8555
  0
POLYLINE
  8
PG-LI
 66
1
  0
VERTEX
 8
PG-LI
 10
483577.09
 20
4630992.8555
  0
VERTEX
 8
PG-LI
 10
483580.87
 20
4630995.455
  0
VERTEX
 8
PG-LI
 10
483603.8505
 20
4631020.045
  0
VERTEX
 8
PG-LI
 10
483623.0605
 20
4631037.475
  0
VERTEX
 8
PG-LI
 10
483633.2805
 20
4631049.465
  0
VERTEX
 8
PG-LI
 10
483647.001
 20
4631065.215
  0
SEQEND
  8
0
  0
LINE
  8
PG-LI
 10
483580.1385
 20
4630758.015
 11
483606.1085
 21
4630758.2145
  0
LINE
  8
PG-LP
 10
483601.662
 20
4631195.6855
 11
483603.452
 21
4631194.0955
  0
POLYLINE
  8
PG-LP
 66
1
  0
VERTEX
 8
PG-LP
 10
483603.452
 20
4631194.0955
  0
VERTEX
 8
PG-LP
 10
483606.722
 20
4631192.3655
  0
VERTEX
 8
PG-LP
 10
483611.2215
 20
4631189.9755
  0
VERTEX
 8
PG-LP
 10
483617.0515
 20
4631188.8555
  0
VERTEX
 8
PG-LP
 10
483626.112
 20
4631187.615
  0
VERTEX
 8
PG-LP
 10
483633.792
 20
4631187.985
  0
VERTEX
 8
PG-LP
 10
483643.712
 20
4631188.235
  0
VERTEX
 8
PG-LP
 10
483653.632
 20
4631188.855
  0
VERTEX
 8
PG-LP
 10
483664.792
 20
4631190.585
  0
VERTEX
 8
PG-LP
 10
483675.952
 20
4631191.965
  0
VERTEX
 8
PG-LP
 10
483690.832
 20
4631195.7945
  0
VERTEX
 8
PG-LP
 10
483702.362
 20
4631198.1545
  0
VERTEX
 8
PG-LP
 10
483706.512
 20
4631197.8645
  0
VERTEX
 8
PG-LP
 10
483735.022
 20
4631195.8645
  0
VERTEX
 8
PG-LP
 10
483770.302
 20
4631189.664
  0
SEQEND
  8
0
  0
LINE
  8
PG-LP
 10
483607.2485
 20
4630759.3545
 11
483606.1085
 21
4630758.2145
  0
LINE
  8
PG-LP
 10
483608.3585
 20
4630760.4445
 11
483607.2485
 21
4630759.3545
  0
POLYLINE
  8
PG-LP
 66
1
  0
VERTEX
 8
PG-LP
 10
483707.6295
 20
4630866.104
  0
VERTEX
 8
PG-LP
 10
483696.4295
 20
4630850.514
  0
VERTEX
 8
PG-LP
 10
483688.279
 20
4630841.214
  0
VERTEX
 8
PG-LP
 10
483679.729
 20
4630832.414
  0
VERTEX
 8
PG-LP
 10
483644.799
 20
4630797.7145
  0
VERTEX
 8
PG-LP
 10
483609.7385
 20
4630761.7945
  0
VERTEX
 8
PG-LP
 10
483608.3585
 20
4630760.4445
  0
SEQEND
  8
0
  0
LINE
  8
PG-LI
 10
483647.001
 20
4631065.215
 11
483690.981
 21
4631093.8145
  0
POLYLINE
  8
PG-LP
 66
1
  0
VERTEX
 8
PG-LP
 10
483770.302
 20
4631189.664
  0
VERTEX
 8
PG-LP
 10
483773.0125
 20
4631187.091
  0
VERTEX
 8
PG-LP
 10
483770.522
 20
4631184.304
  0
VERTEX
 8
PG-LP
 10
483744.4215
 20
4631154.504
  0
VERTEX
 8
PG-LP
 10
483739.247
 20
4631148.629
  0
VERTEX
 8
PG-LP
 10
483738.3715
 20
4631147.6345
  0
VERTEX
 8
PG-LP
 10
483732.2815
 20
4631140.7245
  0
VERTEX
 8
PG-LP
 10
483726.7415
 20
4631134.4345
  0
VERTEX
 8
PG-LP
 10
483712.7415
 20
4631118.5145
  0
VERTEX
 8
PG-LP
 10
483706.0415
 20
4631110.6245
  0
VERTEX
 8
PG-LP
 10
483701.721
 20
4631106.0045
  0
VERTEX
 8
PG-LP
 10
483699.351
 20
4631103.4045
  0
VERTEX
 8
PG-LP
 10
483698.241
 20
4631102.0645
  0
VERTEX
 8
PG-LP
 10
483690.981
 20
4631093.8145
  0
SEQEND
  8
0
  0
POLYLINE
  8
PG-LP
 66
1
  0
VERTEX
 8
PG-LP
 10
483690.981
 20
4631093.8145
  0
VERTEX
 8
PG-LP
 10
483767.111
 20
4631036.954
  0
VERTEX
 8
PG-LP
 10
483768.231
 20
4631036.114
  0
VERTEX
 8
PG-LP
 10
483727.77
 20
4630922.604
  0
SEQEND
  8
0
  0
LINE
  8
PG-LP
 10
483725.94
 20
4630917.464
 11
483707.6295
 21
4630866.104
  0
LINE
  8
PG-LI
 10
483712.58
 20
4630938.934
 11
483727.77
 21
4630922.604
  0
LINE
  8
PG-LP
 10
483727.77
 20
4630922.604
 11
483725.94
 21
4630917.464
  0
ENDSEC
  0
EOF
