  0
SECTION
  2
ENTITIES
  0
TEXT
  8
PG-AA
 10
483753.58
 20
4631306.93
 40
.4
 50
0.0
  1
c
 72
1
 73
3
 11
483753.58
 21
4631306.93
  0
TEXT
  8
PG-AS
 10
483753.58
 20
4631306.93
 40
.4
 50
0.0
  1
6469
 72
1
 73
1
 11
483753.58
 21
4631306.93
  0
TEXT
  8
PG-AA
 10
483749.06
 20
4631227.53
 40
.4
 50
0.0
  1
a
 72
1
 73
3
 11
483749.06
 21
4631227.53
  0
TEXT
  8
PG-AS
 10
483749.06
 20
4631227.53
 40
.4
 50
0.0
  1
4796
 72
1
 73
1
 11
483749.06
 21
4631227.53
  0
TEXT
  8
PG-AA
 10
483776.51
 20
4631305.74
 40
.4
 50
0.0
  1
b
 72
1
 73
3
 11
483776.51
 21
4631305.74
  0
TEXT
  8
PG-AS
 10
483776.51
 20
4631305.74
 40
.4
 50
0.0
  1
2267
 72
1
 73
1
 11
483776.51
 21
4631305.74
  0
POLYLINE
  8
PG-LP
 66
1
  0
VERTEX
 8
PG-LP
 10
483722.0855
 20
4631274.3205
  0
VERTEX
 8
PG-LP
 10
483722.0025
 20
4631276.7945
  0
VERTEX
 8
PG-LP
 10
483720.8025
 20
4631292.9945
  0
VERTEX
 8
PG-LP
 10
483719.073
 20
4631307.2345
  0
VERTEX
 8
PG-LP
 10
483717.923
 20
4631324.8945
  0
VERTEX
 8
PG-LP
 10
483717.453
 20
4631331.9745
  0
VERTEX
 8
PG-LP
 10
483717.603
 20
4631336.0345
  0
VERTEX
 8
PG-LP
 10
483717.863
 20
4631343.4745
  0
VERTEX
 8
PG-LP
 10
483718.153
 20
4631353.1745
  0
VERTEX
 8
PG-LP
 10
483719.533
 20
4631363.875
  0
VERTEX
 8
PG-LP
 10
483721.1235
 20
4631369.905
  0
VERTEX
 8
PG-LP
 10
483723.6935
 20
4631377.7345
  0
VERTEX
 8
PG-LP
 10
483737.4735
 20
4631363.8345
  0
VERTEX
 8
PG-LP
 10
483746.523
 20
4631360.4745
  0
VERTEX
 8
PG-LP
 10
483774.113
 20
4631350.2845
  0
VERTEX
 8
PG-LP
 10
483773.783
 20
4631349.7345
  0
VERTEX
 8
PG-LP
 10
483782.363
 20
4631346.7455
  0
SEQEND
  8
0
  0
POLYLINE
  8
PG-LP
 66
1
  0
VERTEX
 8
PG-LP
 10
483795.2555
 20
4631245.148
  0
VERTEX
 8
PG-LP
 10
483790.8285
 20
4631232.9935
  0
VERTEX
 8
PG-LP
 10
483787.82
 20
4631222.8225
  0
VERTEX
 8
PG-LP
 10
483783.937
 20
4631212.9525
  0
VERTEX
 8
PG-LP
 10
483782.486
 20
4631209.8105
  0
VERTEX
 8
PG-LP
 10
483779.2085
 20
4631203.4585
  0
VERTEX
 8
PG-LP
 10
483773.67
 20
4631194.4125
  0
VERTEX
 8
PG-LP
 10
483770.302
 20
4631189.664
  0
VERTEX
 8
PG-LP
 10
483735.022
 20
4631195.8645
  0
VERTEX
 8
PG-LP
 10
483706.512
 20
4631197.8645
  0
VERTEX
 8
PG-LP
 10
483702.362
 20
4631198.1545
  0
VERTEX
 8
PG-LP
 10
483707.152
 20
4631208.7745
  0
VERTEX
 8
PG-LP
 10
483710.722
 20
4631216.6845
  0
VERTEX
 8
PG-LP
 10
483715.612
 20
4631227.9345
  0
VERTEX
 8
PG-LP
 10
483719.4925
 20
4631239.1345
  0
VERTEX
 8
PG-LP
 10
483720.0925
 20
4631240.6345
  0
VERTEX
 8
PG-LP
 10
483721.8325
 20
4631250.6245
  0
VERTEX
 8
PG-LP
 10
483722.5125
 20
4631261.5545
  0
VERTEX
 8
PG-LP
 10
483722.0855
 20
4631274.3205
  0
SEQEND
  8
0
  0
LINE
  8
PG-LI
 10
483730.2345
 20
4631270.82
 11
483722.0855
 21
4631274.3205
  0
LINE
  8
PG-LI
 10
483795.2555
 20
4631245.148
 11
483730.2345
 21
4631270.82
  0
LINE
  8
PG-LI
 10
483782.363
 20
4631346.7455
 11
483768.546
 21
4631295.1785
  0
LINE
  8
PG-LI
 10
483768.546
 20
4631295.1785
 11
483807.3625
 21
4631278.104
  0
LINE
  8
PG-LP
 10
483782.363
 20
4631346.7455
 11
483812.363
 21
4631336.294
  0
POLYLINE
  8
PG-LP
 66
1
  0
VERTEX
 8
PG-LP
 10
483790.816
 20
4631310.4015
  0
VERTEX
 8
PG-LP
 10
483786.272
 20
4631311.936
  0
VERTEX
 8
PG-LP
 10
483787.442
 20
4631315.4015
  0
VERTEX
 8
PG-LP
 10
483784.012
 20
4631316.56
  0
VERTEX
 8
PG-LP
 10
483781.176
 20
4631308.1615
  0
VERTEX
 8
PG-LP
 10
483789.1505
 20
4631305.4685
  0
VERTEX
 8
PG-LP
 10
483789.4335
 20
4631305.373
  0
VERTEX
 8
PG-LP
 10
483794.1725
 20
4631303.773
  0
VERTEX
 8
PG-LP
 10
483800.5955
 20
4631301.604
  0
VERTEX
 8
PG-LP
 10
483802.1225
 20
4631306.126
  0
VERTEX
 8
PG-LP
 10
483803.88
 20
4631311.3305
  0
VERTEX
 8
PG-LP
 10
483792.4345
 20
4631315.195
  0
VERTEX
 8
PG-LP
 10
483790.816
 20
4631310.4015
  0
SEQEND
  8
0
  0
POLYLINE
  8
PG-LP
 66
1
  0
VERTEX
 8
PG-LP
 10
483807.3625
 20
4631278.104
  0
VERTEX
 8
PG-LP
 10
483806.1725
 20
4631274.994
  0
VERTEX
 8
PG-LP
 10
483805.2225
 20
4631272.514
  0
VERTEX
 8
PG-LP
 10
483795.2555
 20
4631245.148
  0
SEQEND
  8
0
  0
POLYLINE
  8
PG-LP
 66
1
  0
VERTEX
 8
PG-LP
 10
483812.363
 20
4631336.294
  0
VERTEX
 8
PG-LP
 10
483822.703
 20
4631332.684
  0
VERTEX
 8
PG-LP
 10
483826.633
 20
4631331.434
  0
VERTEX
 8
PG-LP
 10
483825.623
 20
4631328.604
  0
VERTEX
 8
PG-LP
 10
483814.143
 20
4631296.514
  0
VERTEX
 8
PG-LP
 10
483814.053
 20
4631296.254
  0
VERTEX
 8
PG-LP
 10
483813.303
 20
4631294.164
  0
VERTEX
 8
PG-LP
 10
483810.653
 20
4631286.984
  0
VERTEX
 8
PG-LP
 10
483809.883
 20
4631284.894
  0
VERTEX
 8
PG-LP
 10
483808.2625
 20
4631280.494
  0
VERTEX
 8
PG-LP
 10
483807.9225
 20
4631279.604
  0
VERTEX
 8
PG-LP
 10
483807.3625
 20
4631278.104
  0
SEQEND
  8
0
  0
ENDSEC
  0
EOF
