  0
SECTION
  2
ENTITIES
  0
TEXT
  8
PG-AA
 10
483588.4
 20
4631413.45
 40
.4
 50
0.0
  1
II
 72
1
 73
3
 11
483588.4
 21
4631413.45
  0
TEXT
  8
PG-AS
 10
483588.4
 20
4631413.45
 40
.4
 50
0.0
  1
60
 72
1
 73
1
 11
483588.4
 21
4631413.45
  0
TEXT
  8
PG-AA
 10
483593.52
 20
4631410.03
 40
.4
 50
0.0
  1
I
 72
1
 73
3
 11
483593.52
 21
4631410.03
  0
TEXT
  8
PG-AS
 10
483593.52
 20
4631410.03
 40
.4
 50
0.0
  1
184
 72
1
 73
1
 11
483593.52
 21
4631410.03
  0
TEXT
  8
PG-AA
 10
483586.54
 20
4631395.52
 40
.4
 50
0.0
  1
P
 72
1
 73
3
 11
483586.54
 21
4631395.52
  0
TEXT
  8
PG-AS
 10
483586.54
 20
4631395.52
 40
.4
 50
0.0
  1
1340
 72
1
 73
1
 11
483586.54
 21
4631395.52
  0
TEXT
  8
PG-AA
 10
483587.42
 20
4631427.73
 40
.4
 50
0.0
  1
PI
 72
1
 73
3
 11
483587.42
 21
4631427.73
  0
TEXT
  8
PG-AS
 10
483587.42
 20
4631427.73
 40
.4
 50
0.0
  1
36
 72
1
 73
1
 11
483587.42
 21
4631427.73
  0
TEXT
  8
PG-AA
 10
483578.55
 20
4631415.89
 40
.4
 50
0.0
  1
POR
 72
1
 73
3
 11
483578.55
 21
4631415.89
  0
TEXT
  8
PG-AS
 10
483578.55
 20
4631415.89
 40
.4
 50
0.0
  1
42
 72
1
 73
1
 11
483578.55
 21
4631415.89
  0
TEXT
  8
PG-AA
 10
483581.58
 20
4631418.98
 40
.4
 50
0.0
  1
I
 72
1
 73
3
 11
483581.58
 21
4631418.98
  0
TEXT
  8
PG-AS
 10
483581.58
 20
4631418.98
 40
.4
 50
0.0
  1
64
 72
1
 73
1
 11
483581.58
 21
4631418.98
  0
POLYLINE
  8
PG-LI
 66
1
  0
VERTEX
 8
PG-LI
 10
483579.8615
 20
4631424.8115
  0
VERTEX
 8
PG-LI
 10
483578.673
 20
4631425.8485
  0
VERTEX
 8
PG-LI
 10
483573.1815
 20
4631419.2995
  0
VERTEX
 8
PG-LI
 10
483585.266
 20
4631408.5315
  0
SEQEND
  8
0
  0
POLYLINE
  8
PG-LI
 66
1
  0
VERTEX
 8
PG-LI
 10
483579.8615
 20
4631424.8115
  0
VERTEX
 8
PG-LI
 10
483575.912
 20
4631419.739
  0
VERTEX
 8
PG-LI
 10
483583.042
 20
4631413.1375
  0
SEQEND
  8
0
  0
LINE
  8
PG-LI
 10
483587.358
 20
4631418.28
 11
483579.8615
 21
4631424.8115
  0
LINE
  8
PG-LI
 10
483583.042
 20
4631413.1375
 11
483587.358
 21
4631418.28
  0
POLYLINE
  8
PG-LI
 66
1
  0
VERTEX
 8
PG-LI
 10
483585.2215
 20
4631409.16
  0
VERTEX
 8
PG-LI
 10
483585.065
 20
4631411.295
  0
VERTEX
 8
PG-LI
 10
483583.042
 20
4631413.1375
  0
SEQEND
  8
0
  0
POLYLINE
  8
PG-LI
 66
1
  0
VERTEX
 8
PG-LI
 10
483587.358
 20
4631418.28
  0
VERTEX
 8
PG-LI
 10
483592.4115
 20
4631416.3325
  0
VERTEX
 8
PG-LI
 10
483592.7505
 20
4631410.302
  0
VERTEX
 8
PG-LI
 10
483585.2215
 20
4631409.16
  0
SEQEND
  8
0
  0
LINE
  8
PG-LI
 10
483585.266
 20
4631408.5315
 11
483585.2215
 21
4631409.16
  0
POLYLINE
  8
PG-LI
 66
1
  0
VERTEX
 8
PG-LI
 10
483587.358
 20
4631418.28
  0
VERTEX
 8
PG-LI
 10
483600.8985
 20
4631421.5815
  0
VERTEX
 8
PG-LI
 10
483602.6435
 20
4631413.8255
  0
VERTEX
 8
PG-LI
 10
483597.524
 20
4631412.2045
  0
VERTEX
 8
PG-LI
 10
483597.2395
 20
4631412.65
  0
VERTEX
 8
PG-LI
 10
483594.1705
 20
4631412.362
  0
VERTEX
 8
PG-LI
 10
483594.8405
 20
4631399.3395
  0
VERTEX
 8
PG-LI
 10
483585.968
 20
4631398.595
  0
VERTEX
 8
PG-LI
 10
483585.266
 20
4631408.5315
  0
SEQEND
  8
0
  0
POLYLINE
  8
PG-LI
 66
1
  0
VERTEX
 8
PG-LI
 10
483587.4355
 20
4631424.364
  0
VERTEX
 8
PG-LI
 10
483589.5045
 20
4631425.0265
  0
VERTEX
 8
PG-LI
 10
483589.489
 20
4631425.2845
  0
VERTEX
 8
PG-LI
 10
483589.6245
 20
4631425.6825
  0
VERTEX
 8
PG-LI
 10
483589.9285
 20
4631425.973
  0
VERTEX
 8
PG-LI
 10
483589.9405
 20
4631425.98
  0
VERTEX
 8
PG-LI
 10
483590.3325
 20
4631426.0905
  0
VERTEX
 8
PG-LI
 10
483590.7175
 20
4631426.0795
  0
VERTEX
 8
PG-LI
 10
483590.8425
 20
4631426.051
  0
VERTEX
 8
PG-LI
 10
483591.2985
 20
4631425.8185
  0
VERTEX
 8
PG-LI
 10
483591.3715
 20
4631425.7855
  0
VERTEX
 8
PG-LI
 10
483591.7675
 20
4631425.7385
  0
VERTEX
 8
PG-LI
 10
483592.136
 20
4631425.8895
  0
VERTEX
 8
PG-LI
 10
483592.187
 20
4631425.9315
  0
VERTEX
 8
PG-LI
 10
483592.3845
 20
4631426.201
  0
VERTEX
 8
PG-LI
 10
483592.5675
 20
4631426.7195
  0
VERTEX
 8
PG-LI
 10
483592.559
 20
4631427.2405
  0
VERTEX
 8
PG-LI
 10
483592.553
 20
4631427.2695
  0
VERTEX
 8
PG-LI
 10
483592.3115
 20
4631427.9395
  0
VERTEX
 8
PG-LI
 10
483592.1225
 20
4631428.242
  0
VERTEX
 8
PG-LI
 10
483591.893
 20
4631428.516
  0
VERTEX
 8
PG-LI
 10
483591.3305
 20
4631428.953
  0
VERTEX
 8
PG-LI
 10
483589.456
 20
4631429.018
  0
VERTEX
 8
PG-LI
 10
483589.044
 20
4631429.0105
  0
VERTEX
 8
PG-LI
 10
483588.389
 20
4631429.0985
  0
VERTEX
 8
PG-LI
 10
483588.2125
 20
4631429.1445
  0
VERTEX
 8
PG-LI
 10
483587.4355
 20
4631429.4705
  0
VERTEX
 8
PG-LI
 10
483584.8335
 20
4631430.7955
  0
VERTEX
 8
PG-LI
 10
483584.6605
 20
4631430.852
  0
VERTEX
 8
PG-LI
 10
483584.0715
 20
4631430.907
  0
VERTEX
 8
PG-LI
 10
483583.4975
 20
4631430.763
  0
VERTEX
 8
PG-LI
 10
483583.0045
 20
4631430.436
  0
VERTEX
 8
PG-LI
 10
483582.9585
 20
4631430.3915
  0
VERTEX
 8
PG-LI
 10
483582.648
 20
4631429.9635
  0
VERTEX
 8
PG-LI
 10
483582.47
 20
4631429.3995
  0
VERTEX
 8
PG-LI
 10
483582.49
 20
4631428.808
  0
VERTEX
 8
PG-LI
 10
483587.4355
 20
4631424.364
  0
SEQEND
  8
0
  0
POLYLINE
  8
PG-LP
 66
1
  0
VERTEX
 8
PG-LP
 10
483618.5225
 20
4631412.116
  0
VERTEX
 8
PG-LP
 10
483606.3435
 20
4631398.5155
  0
VERTEX
 8
PG-LP
 10
483602.8735
 20
4631394.7255
  0
VERTEX
 8
PG-LP
 10
483598.9305
 20
4631390.552
  0
VERTEX
 8
PG-LP
 10
483597.566
 20
4631391.0115
  0
VERTEX
 8
PG-LP
 10
483596.151
 20
4631391.2775
  0
VERTEX
 8
PG-LP
 10
483594.713
 20
4631391.3435
  0
VERTEX
 8
PG-LP
 10
483594.0345
 20
4631391.306
  0
VERTEX
 8
PG-LP
 10
483593.2795
 20
4631391.21
  0
VERTEX
 8
PG-LP
 10
483591.8785
 20
4631390.8785
  0
VERTEX
 8
PG-LP
 10
483591.8105
 20
4631390.852
  0
VERTEX
 8
PG-LP
 10
483591.788
 20
4631390.843
  0
VERTEX
 8
PG-LP
 10
483590.5375
 20
4631390.355
  0
VERTEX
 8
PG-LP
 10
483589.515
 20
4631389.7995
  0
VERTEX
 8
PG-LP
 10
483589.1115
 20
4631389.4825
  0
VERTEX
 8
PG-LP
 10
483559.1515
 20
4631418.911
  0
VERTEX
 8
PG-LP
 10
483559.1975
 20
4631418.9515
  0
VERTEX
 8
PG-LP
 10
483584.476
 20
4631445.163
  0
VERTEX
 8
PG-LP
 10
483586.3135
 20
4631443.373
  0
VERTEX
 8
PG-LP
 10
483618.5225
 20
4631412.116
  0
SEQEND
  8
0
  0
ENDSEC
  0
EOF
