  0
SECTION
  2
ENTITIES
  0
TEXT
  8
PG-AA
 10
483409.55
 20
4631395.96
 40
.4
 50
0.0
  1
b
 72
1
 73
3
 11
483409.55
 21
4631395.96
  0
TEXT
  8
PG-AS
 10
483409.55
 20
4631395.96
 40
.4
 50
0.0
  1
818
 72
1
 73
1
 11
483409.55
 21
4631395.96
  0
TEXT
  8
PG-AA
 10
483440.06
 20
4631391.42
 40
.4
 50
0.0
  1
d
 72
1
 73
3
 11
483440.06
 21
4631391.42
  0
TEXT
  8
PG-AS
 10
483440.06
 20
4631391.42
 40
.4
 50
0.0
  1
4559
 72
1
 73
1
 11
483440.06
 21
4631391.42
  0
TEXT
  8
PG-AA
 10
483457.92
 20
4631435.67
 40
.4
 50
0.0
  1
c
 72
1
 73
3
 11
483457.92
 21
4631435.67
  0
TEXT
  8
PG-AS
 10
483457.92
 20
4631435.67
 40
.4
 50
0.0
  1
2717
 72
1
 73
1
 11
483457.92
 21
4631435.67
  0
TEXT
  8
PG-AA
 10
483410.3
 20
4631430.11
 40
.4
 50
0.0
  1
a
 72
1
 73
3
 11
483410.3
 21
4631430.11
  0
TEXT
  8
PG-AS
 10
483410.3
 20
4631430.11
 40
.4
 50
0.0
  1
1422
 72
1
 73
1
 11
483410.3
 21
4631430.11
  0
TEXT
  8
PG-AA
 10
483394.69
 20
4631383.14
 40
.4
 50
0.0
  1
I
 72
1
 73
3
 11
483394.69
 21
4631383.14
  0
TEXT
  8
PG-AS
 10
483394.69
 20
4631383.14
 40
.4
 50
0.0
  1
16
 72
1
 73
1
 11
483394.69
 21
4631383.14
  0
TEXT
  8
PG-AA
 10
483396.44
 20
4631387.91
 40
.4
 50
0.0
  1
I
 72
1
 73
3
 11
483396.44
 21
4631387.91
  0
TEXT
  8
PG-AS
 10
483396.44
 20
4631387.91
 40
.4
 50
0.0
  1
20
 72
1
 73
1
 11
483396.44
 21
4631387.91
  0
TEXT
  8
PG-AA
 10
483477.85
 20
4631425.02
 40
.4
 50
0.0
  1
ZBE
 72
1
 73
3
 11
483477.85
 21
4631425.02
  0
TEXT
  8
PG-AS
 10
483477.85
 20
4631425.02
 40
.4
 50
0.0
  1
88
 72
1
 73
1
 11
483477.85
 21
4631425.02
  0
LINE
  8
PG-LI
 10
483393.953
 20
4631381.9875
 11
483393.97
 21
4631382.09
  0
POLYLINE
  8
PG-LP
 66
1
  0
VERTEX
 8
PG-LP
 10
483393.953
 20
4631381.9875
  0
VERTEX
 8
PG-LP
 10
483387.773
 20
4631384.6675
  0
VERTEX
 8
PG-LP
 10
483388.633
 20
4631390.6075
  0
VERTEX
 8
PG-LP
 10
483389.763
 20
4631398.3475
  0
VERTEX
 8
PG-LP
 10
483390.773
 20
4631405.2975
  0
VERTEX
 8
PG-LP
 10
483396.4635
 20
4631448.2875
  0
VERTEX
 8
PG-LP
 10
483400.6135
 20
4631457.9275
  0
VERTEX
 8
PG-LP
 10
483404.8635
 20
4631456.2775
  0
VERTEX
 8
PG-LP
 10
483426.0735
 20
4631459.417
  0
VERTEX
 8
PG-LP
 10
483428.0235
 20
4631459.567
  0
SEQEND
  8
0
  0
POLYLINE
  8
PG-LP
 66
1
  0
VERTEX
 8
PG-LP
 10
483412.963
 20
4631373.377
  0
VERTEX
 8
PG-LP
 10
483397.383
 20
4631380.507
  0
VERTEX
 8
PG-LP
 10
483393.953
 20
4631381.9875
  0
SEQEND
  8
0
  0
POLYLINE
  8
PG-LI
 66
1
  0
VERTEX
 8
PG-LI
 10
483394.47
 20
4631384.45
  0
VERTEX
 8
PG-LI
 10
483389.06
 20
4631386.64
  0
VERTEX
 8
PG-LI
 10
483388.3
 20
4631384.66
  0
VERTEX
 8
PG-LI
 10
483393.97
 20
4631382.09
  0
SEQEND
  8
0
  0
POLYLINE
  8
PG-LI
 66
1
  0
VERTEX
 8
PG-LI
 10
483393.97
 20
4631382.09
  0
VERTEX
 8
PG-LI
 10
483394.58
 20
4631381.82
  0
VERTEX
 8
PG-LI
 10
483395.58
 20
4631384.0
  0
SEQEND
  8
0
  0
LINE
  8
PG-LI
 10
483394.47
 20
4631384.45
 11
483394.95
 21
4631386.75
  0
LINE
  8
PG-LI
 10
483395.58
 20
4631384.0
 11
483394.47
 21
4631384.45
  0
POLYLINE
  8
PG-LI
 66
1
  0
VERTEX
 8
PG-LI
 10
483395.51
 20
4631389.42
  0
VERTEX
 8
PG-LI
 10
483390.55
 20
4631390.08
  0
VERTEX
 8
PG-LI
 10
483390.27
 20
4631387.4
  0
VERTEX
 8
PG-LI
 10
483394.95
 20
4631386.75
  0
SEQEND
  8
0
  0
POLYLINE
  8
PG-LI
 66
1
  0
VERTEX
 8
PG-LI
 10
483394.95
 20
4631386.75
  0
VERTEX
 8
PG-LI
 10
483397.46
 20
4631386.4
  0
VERTEX
 8
PG-LI
 10
483397.84
 20
4631389.14
  0
SEQEND
  8
0
  0
LINE
  8
PG-LI
 10
483395.51
 20
4631389.42
 11
483399.73
 21
4631409.64
  0
LINE
  8
PG-LI
 10
483397.84
 20
4631389.14
 11
483395.51
 21
4631389.42
  0
LINE
  8
PG-LI
 10
483399.73
 20
4631409.64
 11
483426.97
 21
4631416.54
  0
POLYLINE
  8
PG-LP
 66
1
  0
VERTEX
 8
PG-LP
 10
483408.1585
 20
4631426.6145
  0
VERTEX
 8
PG-LP
 10
483404.9935
 20
4631426.7085
  0
VERTEX
 8
PG-LP
 10
483405.1365
 20
4631428.2505
  0
VERTEX
 8
PG-LP
 10
483405.179
 20
4631428.703
  0
VERTEX
 8
PG-LP
 10
483406.516
 20
4631443.103
  0
VERTEX
 8
PG-LP
 10
483406.8815
 20
4631446.8775
  0
VERTEX
 8
PG-LP
 10
483400.317
 20
4631447.38
  0
VERTEX
 8
PG-LP
 10
483399.932
 20
4631443.607
  0
VERTEX
 8
PG-LP
 10
483398.188
 20
4631443.74
  0
VERTEX
 8
PG-LP
 10
483396.276
 20
4631424.545
  0
VERTEX
 8
PG-LP
 10
483396.001
 20
4631420.886
  0
VERTEX
 8
PG-LP
 10
483407.592
 20
4631420.543
  0
VERTEX
 8
PG-LP
 10
483408.1585
 20
4631426.6145
  0
SEQEND
  8
0
  0
LINE
  8
PG-LI
 10
483426.97
 20
4631416.54
 11
483412.963
 21
4631373.377
  0
POLYLINE
  8
PG-LP
 66
1
  0
VERTEX
 8
PG-LP
 10
483491.493
 20
4631406.7665
  0
VERTEX
 8
PG-LP
 10
483499.3725
 20
4631336.1065
  0
VERTEX
 8
PG-LP
 10
483499.7725
 20
4631332.5265
  0
VERTEX
 8
PG-LP
 10
483418.573
 20
4631370.807
  0
VERTEX
 8
PG-LP
 10
483412.963
 20
4631373.377
  0
SEQEND
  8
0
  0
LINE
  8
PG-LI
 10
483426.97
 20
4631416.54
 11
483430.69
 21
4631417.49
  0
LINE
  8
PG-LI
 10
483426.97
 20
4631416.54
 11
483427.48
 21
4631418.12
  0
LINE
  8
PG-LI
 10
483427.48
 20
4631418.12
 11
483428.0235
 21
4631459.567
  0
POLYLINE
  8
PG-LP
 66
1
  0
VERTEX
 8
PG-LP
 10
483428.0235
 20
4631459.567
  0
VERTEX
 8
PG-LP
 10
483442.9735
 20
4631460.687
  0
VERTEX
 8
PG-LP
 10
483460.3835
 20
4631460.257
  0
VERTEX
 8
PG-LP
 10
483465.5735
 20
4631459.827
  0
VERTEX
 8
PG-LP
 10
483484.6535
 20
4631455.4165
  0
VERTEX
 8
PG-LP
 10
483484.8535
 20
4631454.0065
  0
VERTEX
 8
PG-LP
 10
483485.1735
 20
4631451.7565
  0
VERTEX
 8
PG-LP
 10
483491.493
 20
4631406.7665
  0
SEQEND
  8
0
  0
LINE
  8
PG-LI
 10
483430.69
 20
4631417.49
 11
483491.493
 21
4631406.7665
  0
POLYLINE
  8
PG-LI
 66
1
  0
VERTEX
 8
PG-LI
 10
483474.96
 20
4631418.59
  0
VERTEX
 8
PG-LI
 10
483482.38
 20
4631419.65
  0
VERTEX
 8
PG-LI
 10
483480.54
 20
4631431.6
  0
VERTEX
 8
PG-LI
 10
483473.47
 20
4631430.4
  0
VERTEX
 8
PG-LI
 10
483474.96
 20
4631418.59
  0
SEQEND
  8
0
  0
ENDSEC
  0
EOF
