  0
SECTION
  2
ENTITIES
  0
TEXT
  8
PG-AA
 10
483667.77
 20
4631211.57
 40
.4
 50
0.0
  1
0
 72
1
 73
3
 11
483667.77
 21
4631211.57
  0
TEXT
  8
PG-AS
 10
483667.77
 20
4631211.57
 40
.4
 50
0.0
  1
5632
 72
1
 73
1
 11
483667.77
 21
4631211.57
  0
POLYLINE
  8
PG-LP
 66
1
  0
VERTEX
 8
PG-LP
 10
483601.662
 20
4631195.6855
  0
VERTEX
 8
PG-LP
 10
483600.812
 20
4631198.4755
  0
VERTEX
 8
PG-LP
 10
483600.852
 20
4631201.7555
  0
VERTEX
 8
PG-LP
 10
483600.742
 20
4631204.5255
  0
VERTEX
 8
PG-LP
 10
483601.302
 20
4631209.4055
  0
VERTEX
 8
PG-LP
 10
483603.352
 20
4631213.9555
  0
VERTEX
 8
PG-LP
 10
483611.952
 20
4631222.1855
  0
VERTEX
 8
PG-LP
 10
483620.432
 20
4631230.4255
  0
VERTEX
 8
PG-LP
 10
483630.142
 20
4631239.735
  0
VERTEX
 8
PG-LP
 10
483648.0225
 20
4631256.235
  0
VERTEX
 8
PG-LP
 10
483683.4125
 20
4631248.205
  0
VERTEX
 8
PG-LP
 10
483715.8525
 20
4631240.0445
  0
VERTEX
 8
PG-LP
 10
483719.4925
 20
4631239.1345
  0
VERTEX
 8
PG-LP
 10
483715.612
 20
4631227.9345
  0
VERTEX
 8
PG-LP
 10
483710.722
 20
4631216.6845
  0
VERTEX
 8
PG-LP
 10
483707.152
 20
4631208.7745
  0
VERTEX
 8
PG-LP
 10
483702.362
 20
4631198.1545
  0
VERTEX
 8
PG-LP
 10
483690.832
 20
4631195.7945
  0
VERTEX
 8
PG-LP
 10
483675.952
 20
4631191.965
  0
VERTEX
 8
PG-LP
 10
483664.792
 20
4631190.585
  0
VERTEX
 8
PG-LP
 10
483653.632
 20
4631188.855
  0
VERTEX
 8
PG-LP
 10
483643.712
 20
4631188.235
  0
VERTEX
 8
PG-LP
 10
483633.792
 20
4631187.985
  0
VERTEX
 8
PG-LP
 10
483626.112
 20
4631187.615
  0
VERTEX
 8
PG-LP
 10
483617.0515
 20
4631188.8555
  0
VERTEX
 8
PG-LP
 10
483611.2215
 20
4631189.9755
  0
VERTEX
 8
PG-LP
 10
483606.722
 20
4631192.3655
  0
VERTEX
 8
PG-LP
 10
483603.452
 20
4631194.0955
  0
VERTEX
 8
PG-LP
 10
483601.662
 20
4631195.6855
  0
SEQEND
  8
0
  0
ENDSEC
  0
EOF
