  0
SECTION
  2
ENTITIES
  0
TEXT
  8
PG-AA
 10
483174.3
 20
4631514.92
 40
.4
 50
0.0
  1
0
 72
1
 73
3
 11
483174.3
 21
4631514.92
  0
TEXT
  8
PG-AS
 10
483174.3
 20
4631514.92
 40
.4
 50
0.0
  1
2999
 72
1
 73
1
 11
483174.3
 21
4631514.92
  0
POLYLINE
  8
PG-LP
 66
1
  0
VERTEX
 8
PG-LP
 10
483483.6375
 20
4631461.291
  0
VERTEX
 8
PG-LP
 10
483490.921
 20
4631459.6285
  0
VERTEX
 8
PG-LP
 10
483491.174
 20
4631458.707
  0
VERTEX
 8
PG-LP
 10
483493.103
 20
4631454.2955
  0
VERTEX
 8
PG-LP
 10
483484.6535
 20
4631455.4165
  0
VERTEX
 8
PG-LP
 10
483465.5735
 20
4631459.827
  0
VERTEX
 8
PG-LP
 10
483460.3835
 20
4631460.257
  0
VERTEX
 8
PG-LP
 10
483442.9735
 20
4631460.687
  0
VERTEX
 8
PG-LP
 10
483428.0235
 20
4631459.567
  0
VERTEX
 8
PG-LP
 10
483426.0735
 20
4631459.417
  0
VERTEX
 8
PG-LP
 10
483404.8635
 20
4631456.2775
  0
VERTEX
 8
PG-LP
 10
483400.6135
 20
4631457.9275
  0
VERTEX
 8
PG-LP
 10
483395.1535
 20
4631463.4775
  0
VERTEX
 8
PG-LP
 10
483386.1335
 20
4631499.5475
  0
VERTEX
 8
PG-LP
 10
483385.134
 20
4631503.5875
  0
VERTEX
 8
PG-LP
 10
483384.374
 20
4631505.1175
  0
VERTEX
 8
PG-LP
 10
483377.244
 20
4631523.7075
  0
VERTEX
 8
PG-LP
 10
483375.384
 20
4631524.9175
  0
VERTEX
 8
PG-LP
 10
483363.954
 20
4631532.3375
  0
VERTEX
 8
PG-LP
 10
483362.594
 20
4631533.2175
  0
VERTEX
 8
PG-LP
 10
483360.744
 20
4631533.7075
  0
VERTEX
 8
PG-LP
 10
483341.994
 20
4631538.738
  0
VERTEX
 8
PG-LP
 10
483336.724
 20
4631540.148
  0
VERTEX
 8
PG-LP
 10
483323.064
 20
4631543.808
  0
VERTEX
 8
PG-LP
 10
483317.234
 20
4631544.968
  0
VERTEX
 8
PG-LP
 10
483289.954
 20
4631549.6685
  0
VERTEX
 8
PG-LP
 10
483275.044
 20
4631545.5085
  0
VERTEX
 8
PG-LP
 10
483267.314
 20
4631542.1385
  0
VERTEX
 8
PG-LP
 10
483258.024
 20
4631538.0985
  0
VERTEX
 8
PG-LP
 10
483245.014
 20
4631532.9285
  0
VERTEX
 8
PG-LP
 10
483230.0935
 20
4631528.5185
  0
VERTEX
 8
PG-LP
 10
483215.7835
 20
4631524.279
  0
VERTEX
 8
PG-LP
 10
483200.6735
 20
4631519.939
  0
VERTEX
 8
PG-LP
 10
483193.2035
 20
4631517.799
  0
VERTEX
 8
PG-LP
 10
483183.4135
 20
4631514.989
  0
VERTEX
 8
PG-LP
 10
483147.1335
 20
4631505.6095
  0
VERTEX
 8
PG-LP
 10
483111.8335
 20
4631500.6095
  0
VERTEX
 8
PG-LP
 10
483106.7435
 20
4631501.4795
  0
VERTEX
 8
PG-LP
 10
483096.7435
 20
4631503.4195
  0
VERTEX
 8
PG-LP
 10
483091.1835
 20
4631504.4995
  0
VERTEX
 8
PG-LP
 10
483060.2135
 20
4631511.06
  0
VERTEX
 8
PG-LP
 10
483053.8835
 20
4631512.84
  0
VERTEX
 8
PG-LP
 10
483046.8435
 20
4631516.31
  0
VERTEX
 8
PG-LP
 10
483041.8935
 20
4631520.47
  0
VERTEX
 8
PG-LP
 10
483034.2635
 20
4631528.0
  0
VERTEX
 8
PG-LP
 10
483031.0935
 20
4631529.09
  0
VERTEX
 8
PG-LP
 10
483026.1435
 20
4631527.2005
  0
VERTEX
 8
PG-LP
 10
483014.7535
 20
4631515.2705
  0
VERTEX
 8
PG-LP
 10
482996.893
 20
4631507.2405
  0
VERTEX
 8
PG-LP
 10
482967.853
 20
4631507.0005
  0
VERTEX
 8
PG-LP
 10
482956.863
 20
4631507.791
  0
VERTEX
 8
PG-LP
 10
482934.533
 20
4631511.371
  0
VERTEX
 8
PG-LP
 10
482887.823
 20
4631504.4215
  0
VERTEX
 8
PG-LP
 10
482850.153
 20
4631499.6315
  0
VERTEX
 8
PG-LP
 10
482850.263
 20
4631499.7815
  0
VERTEX
 8
PG-LP
 10
482854.373
 20
4631504.2215
  0
VERTEX
 8
PG-LP
 10
482902.753
 20
4631510.411
  0
VERTEX
 8
PG-LP
 10
482904.913
 20
4631510.771
  0
VERTEX
 8
PG-LP
 10
482907.133
 20
4631511.141
  0
VERTEX
 8
PG-LP
 10
482934.573
 20
4631514.831
  0
VERTEX
 8
PG-LP
 10
482939.113
 20
4631514.141
  0
VERTEX
 8
PG-LP
 10
482945.073
 20
4631513.241
  0
VERTEX
 8
PG-LP
 10
482948.643
 20
4631512.641
  0
VERTEX
 8
PG-LP
 10
482955.773
 20
4631511.451
  0
VERTEX
 8
PG-LP
 10
482968.663
 20
4631511.2605
  0
VERTEX
 8
PG-LP
 10
482995.913
 20
4631511.2405
  0
VERTEX
 8
PG-LP
 10
483012.2835
 20
4631518.5905
  0
VERTEX
 8
PG-LP
 10
483024.8635
 20
4631531.6605
  0
VERTEX
 8
PG-LP
 10
483030.6035
 20
4631533.7405
  0
VERTEX
 8
PG-LP
 10
483034.0035
 20
4631532.86
  0
VERTEX
 8
PG-LP
 10
483035.5535
 20
4631532.46
  0
VERTEX
 8
PG-LP
 10
483040.1035
 20
4631527.72
  0
VERTEX
 8
PG-LP
 10
483040.6035
 20
4631527.2
  0
VERTEX
 8
PG-LP
 10
483044.9635
 20
4631523.04
  0
VERTEX
 8
PG-LP
 10
483051.0035
 20
4631518.59
  0
VERTEX
 8
PG-LP
 10
483057.0235
 20
4631516.4
  0
VERTEX
 8
PG-LP
 10
483059.4235
 20
4631515.52
  0
VERTEX
 8
PG-LP
 10
483080.2735
 20
4631510.92
  0
VERTEX
 8
PG-LP
 10
483088.1435
 20
4631509.18
  0
VERTEX
 8
PG-LP
 10
483112.1535
 20
4631504.5395
  0
VERTEX
 8
PG-LP
 10
483146.5335
 20
4631509.9695
  0
VERTEX
 8
PG-LP
 10
483186.8535
 20
4631520.469
  0
VERTEX
 8
PG-LP
 10
483217.7035
 20
4631529.189
  0
VERTEX
 8
PG-LP
 10
483236.924
 20
4631535.3185
  0
VERTEX
 8
PG-LP
 10
483243.344
 20
4631537.1185
  0
VERTEX
 8
PG-LP
 10
483257.024
 20
4631541.9585
  0
VERTEX
 8
PG-LP
 10
483273.824
 20
4631549.4785
  0
VERTEX
 8
PG-LP
 10
483289.424
 20
4631553.9585
  0
VERTEX
 8
PG-LP
 10
483323.984
 20
4631547.708
  0
VERTEX
 8
PG-LP
 10
483336.034
 20
4631544.478
  0
VERTEX
 8
PG-LP
 10
483343.034
 20
4631542.598
  0
VERTEX
 8
PG-LP
 10
483359.704
 20
4631538.138
  0
VERTEX
 8
PG-LP
 10
483364.244
 20
4631536.9175
  0
VERTEX
 8
PG-LP
 10
483366.404
 20
4631535.5075
  0
VERTEX
 8
PG-LP
 10
483375.584
 20
4631529.5575
  0
VERTEX
 8
PG-LP
 10
483377.564
 20
4631528.2675
  0
VERTEX
 8
PG-LP
 10
483380.514
 20
4631526.3475
  0
VERTEX
 8
PG-LP
 10
483384.094
 20
4631517.4475
  0
VERTEX
 8
PG-LP
 10
483389.224
 20
4631504.6975
  0
VERTEX
 8
PG-LP
 10
483399.1735
 20
4631465.3375
  0
VERTEX
 8
PG-LP
 10
483404.2535
 20
4631460.9575
  0
VERTEX
 8
PG-LP
 10
483431.4035
 20
4631464.427
  0
VERTEX
 8
PG-LP
 10
483435.1235
 20
4631464.907
  0
VERTEX
 8
PG-LP
 10
483439.6385
 20
4631465.361
  0
VERTEX
 8
PG-LP
 10
483450.2505
 20
4631465.7635
  0
VERTEX
 8
PG-LP
 10
483460.857
 20
4631465.24
  0
VERTEX
 8
PG-LP
 10
483465.5535
 20
4631464.71
  0
VERTEX
 8
PG-LP
 10
483471.378
 20
4631463.794
  0
VERTEX
 8
PG-LP
 10
483480.039
 20
4631462.0255
  0
VERTEX
 8
PG-LP
 10
483483.6375
 20
4631461.291
  0
SEQEND
  8
0
  0
ENDSEC
  0
EOF
