  0
SECTION
  2
ENTITIES
  0
TEXT
  8
PG-AA
 10
483600.54
 20
4631445.86
 40
.4
 50
0.0
  1
I
 72
1
 73
3
 11
483600.54
 21
4631445.86
  0
TEXT
  8
PG-AS
 10
483600.54
 20
4631445.86
 40
.4
 50
0.0
  1
139
 72
1
 73
1
 11
483600.54
 21
4631445.86
  0
TEXT
  8
PG-AA
 10
483609.13
 20
4631437.7
 40
.4
 50
0.0
  1
-I+I
 72
1
 73
3
 11
483609.13
 21
4631437.7
  0
TEXT
  8
PG-AS
 10
483609.13
 20
4631437.7
 40
.4
 50
0.0
  1
88
 72
1
 73
1
 11
483609.13
 21
4631437.7
  0
TEXT
  8
PG-AA
 10
483626.03
 20
4631449.17
 40
.4
 50
0.0
  1
I
 72
1
 73
3
 11
483626.03
 21
4631449.17
  0
TEXT
  8
PG-AS
 10
483626.03
 20
4631449.17
 40
.4
 50
0.0
  1
166
 72
1
 73
1
 11
483626.03
 21
4631449.17
  0
TEXT
  8
PG-AA
 10
483611.57
 20
4631455.84
 40
.4
 50
0.0
  1
P
 72
1
 73
3
 11
483611.57
 21
4631455.84
  0
TEXT
  8
PG-AS
 10
483611.57
 20
4631455.84
 40
.4
 50
0.0
  1
2562
 72
1
 73
1
 11
483611.57
 21
4631455.84
  0
TEXT
  8
PG-AA
 10
483609.62
 20
4631430.2
 40
.4
 50
0.0
  1
I
 72
1
 73
3
 11
483609.62
 21
4631430.2
  0
TEXT
  8
PG-AS
 10
483609.62
 20
4631430.2
 40
.4
 50
0.0
  1
158
 72
1
 73
1
 11
483609.62
 21
4631430.2
  0
TEXT
  8
PG-AA
 10
483582.87
 20
4631449.87
 40
.4
 50
0.0
  1
POR
 72
1
 73
3
 11
483582.87
 21
4631449.87
  0
TEXT
  8
PG-AS
 10
483582.87
 20
4631449.87
 40
.4
 50
0.0
  1
36
 72
1
 73
1
 11
483582.87
 21
4631449.87
  0
LINE
  8
PG-LI
 10
483582.6555
 20
4631453.221
 11
483579.515
 21
4631449.998
  0
POLYLINE
  8
PG-LP
 66
1
  0
VERTEX
 8
PG-LP
 10
483579.515
 20
4631449.998
  0
VERTEX
 8
PG-LP
 10
483571.8375
 20
4631457.4795
  0
VERTEX
 8
PG-LP
 10
483593.6445
 20
4631478.154
  0
VERTEX
 8
PG-LP
 10
483593.6445
 20
4631490.103
  0
VERTEX
 8
PG-LP
 10
483594.6
 20
4631490.1585
  0
VERTEX
 8
PG-LP
 10
483596.948
 20
4631490.1925
  0
VERTEX
 8
PG-LP
 10
483597.022
 20
4631490.1935
  0
VERTEX
 8
PG-LP
 10
483600.44
 20
4631490.0195
  0
VERTEX
 8
PG-LP
 10
483601.889
 20
4631489.9455
  0
VERTEX
 8
PG-LP
 10
483606.7155
 20
4631489.2745
  0
VERTEX
 8
PG-LP
 10
483607.9705
 20
4631489.029
  0
VERTEX
 8
PG-LP
 10
483609.2335
 20
4631488.782
  0
VERTEX
 8
PG-LP
 10
483609.2445
 20
4631488.7795
  0
VERTEX
 8
PG-LP
 10
483622.6465
 20
4631486.1565
  0
VERTEX
 8
PG-LP
 10
483625.248
 20
4631485.6475
  0
VERTEX
 8
PG-LP
 10
483619.0715
 20
4631476.6025
  0
VERTEX
 8
PG-LP
 10
483649.7485
 20
4631448.375
  0
VERTEX
 8
PG-LP
 10
483648.911
 20
4631446.4575
  0
VERTEX
 8
PG-LP
 10
483648.897
 20
4631446.4255
  0
VERTEX
 8
PG-LP
 10
483648.5265
 20
4631445.5775
  0
VERTEX
 8
PG-LP
 10
483640.307
 20
4631436.106
  0
VERTEX
 8
PG-LP
 10
483618.8625
 20
4631412.4965
  0
VERTEX
 8
PG-LP
 10
483618.5225
 20
4631412.116
  0
VERTEX
 8
PG-LP
 10
483608.8185
 20
4631421.5335
  0
SEQEND
  8
0
  0
LINE
  8
PG-LP
 10
483583.0955
 20
4631446.508
 11
483579.515
 21
4631449.998
  0
POLYLINE
  8
PG-LI
 66
1
  0
VERTEX
 8
PG-LI
 10
483583.0955
 20
4631446.508
  0
VERTEX
 8
PG-LI
 10
483586.2365
 20
4631449.7315
  0
VERTEX
 8
PG-LI
 10
483588.104
 20
4631451.6475
  0
VERTEX
 8
PG-LI
 10
483587.746
 20
4631451.9965
  0
VERTEX
 8
PG-LI
 10
483584.5235
 20
4631455.1375
  0
VERTEX
 8
PG-LI
 10
483582.6555
 20
4631453.221
  0
SEQEND
  8
0
  0
POLYLINE
  8
PG-LP
 66
1
  0
VERTEX
 8
PG-LP
 10
483598.994
 20
4631431.0675
  0
VERTEX
 8
PG-LP
 10
483586.3135
 20
4631443.373
  0
VERTEX
 8
PG-LP
 10
483584.476
 20
4631445.163
  0
VERTEX
 8
PG-LP
 10
483583.0955
 20
4631446.508
  0
SEQEND
  8
0
  0
LINE
  8
PG-LI
 10
483603.827
 20
4631436.115
 11
483598.994
 21
4631431.0675
  0
LINE
  8
PG-LP
 10
483608.8185
 20
4631421.5335
 11
483598.994
 21
4631431.0675
  0
LINE
  8
PG-LI
 10
483609.1855
 20
4631444.299
 11
483602.4735
 21
4631437.411
  0
POLYLINE
  8
PG-LI
 66
1
  0
VERTEX
 8
PG-LI
 10
483602.4735
 20
4631437.411
  0
VERTEX
 8
PG-LI
 10
483598.1435
 20
4631441.556
  0
VERTEX
 8
PG-LI
 10
483591.997
 20
4631447.475
  0
VERTEX
 8
PG-LI
 10
483598.2445
 20
4631454.2495
  0
VERTEX
 8
PG-LI
 10
483605.1835
 20
4631448.106
  0
VERTEX
 8
PG-LI
 10
483606.3435
 20
4631447.0055
  0
SEQEND
  8
0
  0
LINE
  8
PG-LI
 10
483603.827
 20
4631436.115
 11
483602.4735
 21
4631437.411
  0
LINE
  8
PG-LI
 10
483606.3435
 20
4631433.7055
 11
483603.827
 21
4631436.115
  0
POLYLINE
  8
PG-LI
 66
1
  0
VERTEX
 8
PG-LI
 10
483615.7835
 20
4631438.0155
  0
VERTEX
 8
PG-LI
 10
483609.1035
 20
4631431.0755
  0
VERTEX
 8
PG-LI
 10
483606.3435
 20
4631433.7055
  0
SEQEND
  8
0
  0
LINE
  8
PG-LI
 10
483606.3435
 20
4631447.0055
 11
483609.1855
 21
4631444.299
  0
LINE
  8
PG-LI
 10
483608.8185
 20
4631421.5335
 11
483620.3755
 21
4631433.605
  0
POLYLINE
  8
PG-LI
 66
1
  0
VERTEX
 8
PG-LI
 10
483609.1855
 20
4631444.299
  0
VERTEX
 8
PG-LI
 10
483612.819
 20
4631440.8385
  0
VERTEX
 8
PG-LI
 10
483615.7835
 20
4631438.0155
  0
SEQEND
  8
0
  0
LINE
  8
PG-LI
 10
483620.3755
 20
4631433.605
 11
483615.7835
 21
4631438.0155
  0
POLYLINE
  8
PG-LI
 66
1
  0
VERTEX
 8
PG-LI
 10
483628.014
 20
4631456.3035
  0
VERTEX
 8
PG-LI
 10
483631.147
 20
4631456.4415
  0
VERTEX
 8
PG-LI
 10
483631.3155
 20
4631455.03
  0
VERTEX
 8
PG-LI
 10
483634.902
 20
4631455.0745
  0
VERTEX
 8
PG-LI
 10
483635.141
 20
4631449.2425
  0
VERTEX
 8
PG-LI
 10
483634.7505
 20
4631449.1715
  0
VERTEX
 8
PG-LI
 10
483634.0935
 20
4631449.1715
  0
VERTEX
 8
PG-LI
 10
483634.2265
 20
4631447.1475
  0
VERTEX
 8
PG-LI
 10
483631.155
 20
4631446.7215
  0
VERTEX
 8
PG-LI
 10
483631.3685
 20
4631444.9725
  0
VERTEX
 8
PG-LI
 10
483629.3175
 20
4631444.6885
  0
VERTEX
 8
PG-LI
 10
483629.22
 20
4631444.067
  0
VERTEX
 8
PG-LI
 10
483620.725
 20
4631443.659
  0
VERTEX
 8
PG-LI
 10
483619.402
 20
4631442.4695
  0
VERTEX
 8
PG-LI
 10
483615.656
 20
4631445.887
  0
VERTEX
 8
PG-LI
 10
483617.0585
 20
4631447.618
  0
VERTEX
 8
PG-LI
 10
483617.183
 20
4631450.574
  0
VERTEX
 8
PG-LI
 10
483617.8485
 20
4631450.6895
  0
VERTEX
 8
PG-LI
 10
483617.884
 20
4631452.021
  0
VERTEX
 8
PG-LI
 10
483623.486
 20
4631452.234
  0
VERTEX
 8
PG-LI
 10
483623.548
 20
4631453.2635
  0
VERTEX
 8
PG-LI
 10
483627.7205
 20
4631453.45
  0
VERTEX
 8
PG-LI
 10
483627.7205
 20
4631453.9425
  0
VERTEX
 8
PG-LI
 10
483628.014
 20
4631453.9555
  0
VERTEX
 8
PG-LI
 10
483628.014
 20
4631456.3035
  0
SEQEND
  8
0
  0
ENDSEC
  0
EOF
