  0
SECTION
  2
ENTITIES
  0
TEXT
  8
PG-AA
 10
483585.19
 20
4631485.94
 40
.4
 50
0.0
  1
-I
 72
1
 73
3
 11
483585.19
 21
4631485.94
  0
TEXT
  8
PG-AS
 10
483585.19
 20
4631485.94
 40
.4
 50
0.0
  1
4
 72
1
 73
1
 11
483585.19
 21
4631485.94
  0
TEXT
  8
PG-AA
 10
483574.45
 20
4631474.87
 40
.4
 50
0.0
  1
P
 72
1
 73
3
 11
483574.45
 21
4631474.87
  0
TEXT
  8
PG-AS
 10
483574.45
 20
4631474.87
 40
.4
 50
0.0
  1
572
 72
1
 73
1
 11
483574.45
 21
4631474.87
  0
TEXT
  8
PG-AA
 10
483558.95
 20
4631477.57
 40
.4
 50
0.0
  1
-I+I
 72
1
 73
3
 11
483558.95
 21
4631477.57
  0
TEXT
  8
PG-AS
 10
483558.95
 20
4631477.57
 40
.4
 50
0.0
  1
20
 72
1
 73
1
 11
483558.95
 21
4631477.57
  0
TEXT
  8
PG-AA
 10
483585.73
 20
4631482.78
 40
.4
 50
0.0
  1
-I+I
 72
1
 73
3
 11
483585.73
 21
4631482.78
  0
TEXT
  8
PG-AS
 10
483585.73
 20
4631482.78
 40
.4
 50
0.0
  1
23
 72
1
 73
1
 11
483585.73
 21
4631482.78
  0
TEXT
  8
PG-AA
 10
483563.16
 20
4631480.07
 40
.4
 50
0.0
  1
-I+I
 72
1
 73
3
 11
483563.16
 21
4631480.07
  0
TEXT
  8
PG-AS
 10
483563.16
 20
4631480.07
 40
.4
 50
0.0
  1
23
 72
1
 73
1
 11
483563.16
 21
4631480.07
  0
TEXT
  8
PG-AA
 10
483574.16
 20
4631480.78
 40
.4
 50
0.0
  1
-I+II
 72
1
 73
3
 11
483574.16
 21
4631480.78
  0
TEXT
  8
PG-AS
 10
483574.16
 20
4631480.78
 40
.4
 50
0.0
  1
106
 72
1
 73
1
 11
483574.16
 21
4631480.78
  0
TEXT
  8
PG-AA
 10
483567.96
 20
4631482.87
 40
.4
 50
0.0
  1
-I+I
 72
1
 73
3
 11
483567.96
 21
4631482.87
  0
TEXT
  8
PG-AS
 10
483567.96
 20
4631482.87
 40
.4
 50
0.0
  1
1
 72
1
 73
1
 11
483567.96
 21
4631482.87
  0
TEXT
  8
PG-AA
 10
483572.02
 20
4631483.57
 40
.4
 50
0.0
  1
-POR+I
 72
1
 73
3
 11
483572.02
 21
4631483.57
  0
TEXT
  8
PG-AS
 10
483572.02
 20
4631483.57
 40
.4
 50
0.0
  1
9
 72
1
 73
1
 11
483572.02
 21
4631483.57
  0
TEXT
  8
PG-AA
 10
483577.01
 20
4631483.62
 40
.4
 50
0.0
  1
-POR+II
 72
1
 73
3
 11
483577.01
 21
4631483.62
  0
TEXT
  8
PG-AS
 10
483577.01
 20
4631483.62
 40
.4
 50
0.0
  1
7
 72
1
 73
1
 11
483577.01
 21
4631483.62
  0
TEXT
  8
PG-AA
 10
483572.77
 20
4631477.16
 40
.4
 50
0.0
  1
-I+POR
 72
1
 73
3
 11
483572.77
 21
4631477.16
  0
TEXT
  8
PG-AS
 10
483572.77
 20
4631477.16
 40
.4
 50
0.0
  1
41
 72
1
 73
1
 11
483572.77
 21
4631477.16
  0
LINE
  8
PG-LI
 10
483561.602
 20
4631475.8925
 11
483557.019
 21
4631475.105
  0
POLYLINE
  8
PG-LI
 66
1
  0
VERTEX
 8
PG-LI
 10
483560.8905
 20
4631480.032
  0
VERTEX
 8
PG-LI
 10
483556.3075
 20
4631479.2445
  0
VERTEX
 8
PG-LI
 10
483557.019
 20
4631475.105
  0
SEQEND
  8
0
  0
POLYLINE
  8
PG-LI
 66
1
  0
VERTEX
 8
PG-LI
 10
483557.019
 20
4631475.105
  0
VERTEX
 8
PG-LI
 10
483557.239
 20
4631473.8255
  0
VERTEX
 8
PG-LI
 10
483588.53
 20
4631479.204
  0
SEQEND
  8
0
  0
POLYLINE
  8
PG-LP
 66
1
  0
VERTEX
 8
PG-LP
 10
483559.1275
 20
4631469.8655
  0
VERTEX
 8
PG-LP
 10
483550.4275
 20
4631478.344
  0
VERTEX
 8
PG-LP
 10
483550.953
 20
4631478.6405
  0
VERTEX
 8
PG-LP
 10
483552.384
 20
4631479.5605
  0
VERTEX
 8
PG-LP
 10
483555.789
 20
4631481.7505
  0
VERTEX
 8
PG-LP
 10
483559.7645
 20
4631484.0395
  0
VERTEX
 8
PG-LP
 10
483562.452
 20
4631485.2135
  0
VERTEX
 8
PG-LP
 10
483563.6335
 20
4631485.644
  0
VERTEX
 8
PG-LP
 10
483565.2315
 20
4631486.149
  0
VERTEX
 8
PG-LP
 10
483568.08
 20
4631486.854
  0
VERTEX
 8
PG-LP
 10
483568.3195
 20
4631486.893
  0
VERTEX
 8
PG-LP
 10
483569.4
 20
4631487.07
  0
VERTEX
 8
PG-LP
 10
483579.368
 20
4631488.7015
  0
VERTEX
 8
PG-LP
 10
483585.106
 20
4631489.385
  0
VERTEX
 8
PG-LP
 10
483592.152
 20
4631490.0165
  0
VERTEX
 8
PG-LP
 10
483593.6445
 20
4631490.103
  0
VERTEX
 8
PG-LP
 10
483593.6445
 20
4631478.154
  0
VERTEX
 8
PG-LP
 10
483573.473
 20
4631459.03
  0
VERTEX
 8
PG-LP
 10
483571.8375
 20
4631457.4795
  0
VERTEX
 8
PG-LP
 10
483571.635
 20
4631457.677
  0
VERTEX
 8
PG-LP
 10
483559.1275
 20
4631469.8655
  0
SEQEND
  8
0
  0
LINE
  8
PG-LI
 10
483564.9525
 20
4631482.9625
 11
483560.5175
 21
4631482.2
  0
LINE
  8
PG-LI
 10
483560.5175
 20
4631482.2
 11
483560.8905
 21
4631480.032
  0
LINE
  8
PG-LI
 10
483560.8905
 20
4631480.032
 11
483561.3815
 21
4631477.1745
  0
LINE
  8
PG-LI
 10
483565.8165
 20
4631477.937
 11
483561.3815
 21
4631477.1745
  0
LINE
  8
PG-LI
 10
483561.3815
 20
4631477.1745
 11
483561.602
 21
4631475.8925
  0
LINE
  8
PG-LI
 10
483584.0725
 20
4631479.755
 11
483561.602
 21
4631475.8925
  0
LINE
  8
PG-LI
 10
483567.564
 20
4631483.4115
 11
483564.9525
 21
4631482.9625
  0
LINE
  8
PG-LI
 10
483564.9525
 20
4631482.9625
 11
483565.8165
 21
4631477.937
  0
LINE
  8
PG-LI
 10
483568.1555
 20
4631483.513
 11
483567.564
 21
4631483.4115
  0
POLYLINE
  8
PG-LI
 66
1
  0
VERTEX
 8
PG-LI
 10
483567.564
 20
4631483.4115
  0
VERTEX
 8
PG-LI
 10
483567.7675
 20
4631482.2285
  0
VERTEX
 8
PG-LI
 10
483568.359
 20
4631482.3305
  0
SEQEND
  8
0
  0
LINE
  8
PG-LI
 10
483575.695
 20
4631484.809
 11
483568.1555
 21
4631483.513
  0
LINE
  8
PG-LI
 10
483568.1555
 20
4631483.513
 11
483568.359
 21
4631482.3305
  0
LINE
  8
PG-LI
 10
483575.898
 20
4631483.6265
 11
483568.359
 21
4631482.3305
  0
POLYLINE
  8
PG-LI
 66
1
  0
VERTEX
 8
PG-LI
 10
483568.359
 20
4631482.3305
  0
VERTEX
 8
PG-LI
 10
483568.427
 20
4631481.936
  0
VERTEX
 8
PG-LI
 10
483569.0175
 20
4631482.0375
  0
VERTEX
 8
PG-LI
 10
483578.1345
 20
4631483.6045
  0
SEQEND
  8
0
  0
LINE
  8
PG-LI
 10
483577.8635
 20
4631485.1815
 11
483575.695
 21
4631484.809
  0
LINE
  8
PG-LI
 10
483575.695
 20
4631484.809
 11
483575.898
 21
4631483.6265
  0
LINE
  8
PG-LI
 10
483582.988
 20
4631486.0625
 11
483577.8635
 21
4631485.1815
  0
LINE
  8
PG-LI
 10
483578.1345
 20
4631483.6045
 11
483577.8635
 21
4631485.1815
  0
POLYLINE
  8
PG-LI
 66
1
  0
VERTEX
 8
PG-LI
 10
483582.988
 20
4631486.0625
  0
VERTEX
 8
PG-LI
 10
483587.226
 20
4631486.791
  0
VERTEX
 8
PG-LI
 10
483587.3955
 20
4631485.8055
  0
SEQEND
  8
0
  0
LINE
  8
PG-LI
 10
483583.1575
 20
4631485.077
 11
483582.988
 21
4631486.0625
  0
LINE
  8
PG-LI
 10
483587.3955
 20
4631485.8055
 11
483583.1575
 21
4631485.077
  0
LINE
  8
PG-LI
 10
483584.0725
 20
4631479.755
 11
483583.1575
 21
4631485.077
  0
LINE
  8
PG-LI
 10
483588.31
 20
4631480.4835
 11
483584.0725
 21
4631479.755
  0
LINE
  8
PG-LI
 10
483587.7625
 20
4631483.67
 11
483587.3955
 21
4631485.8055
  0
LINE
  8
PG-LI
 10
483588.31
 20
4631480.4835
 11
483587.7625
 21
4631483.67
  0
LINE
  8
PG-LI
 10
483588.53
 20
4631479.204
 11
483588.31
 21
4631480.4835
  0
ENDSEC
  0
EOF
