  0
SECTION
  2
ENTITIES
  0
TEXT
  8
PG-AA
 10
483524.05
 20
4631394.41
 40
.4
 50
0.0
  1
I
 72
1
 73
3
 11
483524.05
 21
4631394.41
  0
TEXT
  8
PG-AS
 10
483524.05
 20
4631394.41
 40
.4
 50
0.0
  1
4
 72
1
 73
1
 11
483524.05
 21
4631394.41
  0
TEXT
  8
PG-AA
 10
483529.41
 20
4631396.98
 40
.4
 50
0.0
  1
II
 72
1
 73
3
 11
483529.41
 21
4631396.98
  0
TEXT
  8
PG-AS
 10
483529.41
 20
4631396.98
 40
.4
 50
0.0
  1
64
 72
1
 73
1
 11
483529.41
 21
4631396.98
  0
TEXT
  8
PG-AA
 10
483528.96
 20
4631389.13
 40
.4
 50
0.0
  1
POR
 72
1
 73
3
 11
483528.96
 21
4631389.13
  0
TEXT
  8
PG-AS
 10
483528.96
 20
4631389.13
 40
.4
 50
0.0
  1
24
 72
1
 73
1
 11
483528.96
 21
4631389.13
  0
TEXT
  8
PG-AA
 10
483527.25
 20
4631392.49
 40
.4
 50
0.0
  1
POR+I
 72
1
 73
3
 11
483527.25
 21
4631392.49
  0
TEXT
  8
PG-AS
 10
483527.25
 20
4631392.49
 40
.4
 50
0.0
  1
0
 72
1
 73
1
 11
483527.25
 21
4631392.49
  0
TEXT
  8
PG-AA
 10
483539.52
 20
4631400.07
 40
.4
 50
0.0
  1
I
 72
1
 73
3
 11
483539.52
 21
4631400.07
  0
TEXT
  8
PG-AS
 10
483539.52
 20
4631400.07
 40
.4
 50
0.0
  1
205
 72
1
 73
1
 11
483539.52
 21
4631400.07
  0
TEXT
  8
PG-AA
 10
483531.1
 20
4631401.98
 40
.4
 50
0.0
  1
POR+I
 72
1
 73
3
 11
483531.1
 21
4631401.98
  0
TEXT
  8
PG-AS
 10
483531.1
 20
4631401.98
 40
.4
 50
0.0
  1
8
 72
1
 73
1
 11
483531.1
 21
4631401.98
  0
TEXT
  8
PG-AA
 10
483538.25
 20
4631386.93
 40
.4
 50
0.0
  1
P
 72
1
 73
3
 11
483538.25
 21
4631386.93
  0
TEXT
  8
PG-AS
 10
483538.25
 20
4631386.93
 40
.4
 50
0.0
  1
1206
 72
1
 73
1
 11
483538.25
 21
4631386.93
  0
LINE
  8
PG-LI
 10
483522.7
 20
4631395.08
 11
483523.69
 21
4631396.1
  0
LINE
  8
PG-LI
 10
483526.26
 20
4631391.65
 11
483522.7
 21
4631395.08
  0
LINE
  8
PG-LI
 10
483523.69
 20
4631396.1
 11
483529.15
 21
4631401.72
  0
LINE
  8
PG-LI
 10
483523.69
 20
4631396.1
 11
483526.26
 21
4631391.65
  0
LINE
  8
PG-LI
 10
483525.17
 20
4631390.52
 11
483526.26
 21
4631391.65
  0
POLYLINE
  8
PG-LI
 66
1
  0
VERTEX
 8
PG-LI
 10
483532.7
 20
4631387.85
  0
VERTEX
 8
PG-LI
 10
483530.41
 20
4631385.47
  0
VERTEX
 8
PG-LI
 10
483525.17
 20
4631390.52
  0
SEQEND
  8
0
  0
LINE
  8
PG-LI
 10
483526.26
 20
4631391.65
 11
483527.81
 21
4631392.55
  0
POLYLINE
  8
PG-LI
 66
1
  0
VERTEX
 8
PG-LI
 10
483527.81
 20
4631392.55
  0
VERTEX
 8
PG-LI
 10
483527.47
 20
4631392.88
  0
VERTEX
 8
PG-LI
 10
483526.26
 20
4631391.65
  0
SEQEND
  8
0
  0
LINE
  8
PG-LI
 10
483535.58
 20
4631397.07
 11
483527.81
 21
4631392.55
  0
LINE
  8
PG-LI
 10
483527.81
 20
4631392.55
 11
483532.7
 21
4631387.85
  0
LINE
  8
PG-LI
 10
483529.15
 20
4631401.72
 11
483531.47
 21
4631404.11
  0
POLYLINE
  8
PG-LI
 66
1
  0
VERTEX
 8
PG-LI
 10
483529.15
 20
4631401.72
  0
VERTEX
 8
PG-LI
 10
483530.71
 20
4631400.2
  0
VERTEX
 8
PG-LI
 10
483532.97
 20
4631401.53
  0
SEQEND
  8
0
  0
LINE
  8
PG-LI
 10
483531.47
 20
4631404.11
 11
483532.97
 21
4631401.53
  0
LINE
  8
PG-LI
 10
483537.09
 20
4631392.38
 11
483532.7
 21
4631387.85
  0
POLYLINE
  8
PG-LI
 66
1
  0
VERTEX
 8
PG-LI
 10
483532.97
 20
4631401.53
  0
VERTEX
 8
PG-LI
 10
483539.32
 20
4631405.26
  0
VERTEX
 8
PG-LI
 10
483537.45
 20
4631407.05
  0
VERTEX
 8
PG-LI
 10
483542.24
 20
4631411.98
  0
VERTEX
 8
PG-LI
 10
483549.7
 20
4631404.79
  0
VERTEX
 8
PG-LI
 10
483545.36
 20
4631400.31
  0
VERTEX
 8
PG-LI
 10
483546.71
 20
4631397.99
  0
VERTEX
 8
PG-LI
 10
483537.09
 20
4631392.38
  0
SEQEND
  8
0
  0
LINE
  8
PG-LI
 10
483532.97
 20
4631401.53
 11
483535.58
 21
4631397.07
  0
POLYLINE
  8
PG-LP
 66
1
  0
VERTEX
 8
PG-LP
 10
483543.854
 20
4631419.3735
  0
VERTEX
 8
PG-LP
 10
483562.95
 20
4631400.94
  0
VERTEX
 8
PG-LP
 10
483545.51
 20
4631382.48
  0
VERTEX
 8
PG-LP
 10
483552.24
 20
4631372.04
  0
VERTEX
 8
PG-LP
 10
483528.79
 20
4631357.12
  0
VERTEX
 8
PG-LP
 10
483515.7675
 20
4631392.503
  0
VERTEX
 8
PG-LP
 10
483520.5405
 20
4631397.0695
  0
VERTEX
 8
PG-LP
 10
483539.866
 20
4631415.558
  0
VERTEX
 8
PG-LP
 10
483543.854
 20
4631419.3735
  0
SEQEND
  8
0
  0
ENDSEC
  0
EOF
