  0
SECTION
  2
ENTITIES
  0
TEXT
  8
PG-AA
 10
483558.0
 20
4631345.97
 40
.4
 50
0.0
  1
I
 72
1
 73
3
 11
483558.0
 21
4631345.97
  0
TEXT
  8
PG-AS
 10
483558.0
 20
4631345.97
 40
.4
 50
0.0
  1
348
 72
1
 73
1
 11
483558.0
 21
4631345.97
  0
TEXT
  8
PG-AA
 10
483564.38
 20
4631344.89
 40
.4
 50
0.0
  1
P
 72
1
 73
3
 11
483564.38
 21
4631344.89
  0
TEXT
  8
PG-AS
 10
483564.38
 20
4631344.89
 40
.4
 50
0.0
  1
7
 72
1
 73
1
 11
483564.38
 21
4631344.89
  0
TEXT
  8
PG-AA
 10
483569.98
 20
4631342.22
 40
.4
 50
0.0
  1
P
 72
1
 73
3
 11
483569.98
 21
4631342.22
  0
TEXT
  8
PG-AS
 10
483569.98
 20
4631342.22
 40
.4
 50
0.0
  1
3
 72
1
 73
1
 11
483569.98
 21
4631342.22
  0
TEXT
  8
PG-AA
 10
483574.3
 20
4631341.0
 40
.4
 50
0.0
  1
P
 72
1
 73
3
 11
483574.3
 21
4631341.0
  0
TEXT
  8
PG-AS
 10
483574.3
 20
4631341.0
 40
.4
 50
0.0
  1
6
 72
1
 73
1
 11
483574.3
 21
4631341.0
  0
TEXT
  8
PG-AA
 10
483569.79
 20
4631325.06
 40
.4
 50
0.0
  1
P
 72
1
 73
3
 11
483569.79
 21
4631325.06
  0
TEXT
  8
PG-AS
 10
483569.79
 20
4631325.06
 40
.4
 50
0.0
  1
2294
 72
1
 73
1
 11
483569.79
 21
4631325.06
  0
POLYLINE
  8
PG-LI
 66
1
  0
VERTEX
 8
PG-LI
 10
483563.07
 20
4631345.42
  0
VERTEX
 8
PG-LI
 10
483564.07
 20
4631345.84
  0
VERTEX
 8
PG-LI
 10
483564.91
 20
4631346.12
  0
VERTEX
 8
PG-LI
 10
483565.52
 20
4631346.27
  0
VERTEX
 8
PG-LI
 10
483566.43
 20
4631346.33
  0
VERTEX
 8
PG-LI
 10
483567.01
 20
4631346.28
  0
SEQEND
  8
0
  0
POLYLINE
  8
PG-LI
 66
1
  0
VERTEX
 8
PG-LI
 10
483575.7
 20
4631341.77
  0
VERTEX
 8
PG-LI
 10
483577.24
 20
4631341.0
  0
VERTEX
 8
PG-LI
 10
483579.91
 20
4631339.75
  0
VERTEX
 8
PG-LI
 10
483577.64
 20
4631333.54
  0
VERTEX
 8
PG-LI
 10
483574.9
 20
4631334.59
  0
VERTEX
 8
PG-LI
 10
483574.69
 20
4631333.95
  0
VERTEX
 8
PG-LI
 10
483569.8
 20
4631335.36
  0
VERTEX
 8
PG-LI
 10
483566.49
 20
4631336.79
  0
VERTEX
 8
PG-LI
 10
483563.29
 20
4631338.3
  0
VERTEX
 8
PG-LI
 10
483556.12
 20
4631339.13
  0
VERTEX
 8
PG-LI
 10
483556.2
 20
4631339.78
  0
VERTEX
 8
PG-LI
 10
483552.92
 20
4631339.63
  0
VERTEX
 8
PG-LI
 10
483552.79
 20
4631343.38
  0
VERTEX
 8
PG-LI
 10
483552.04
 20
4631343.36
  0
VERTEX
 8
PG-LI
 10
483551.72
 20
4631352.08
  0
VERTEX
 8
PG-LI
 10
483549.07
 20
4631356.75
  0
VERTEX
 8
PG-LI
 10
483545.9
 20
4631361.58
  0
VERTEX
 8
PG-LI
 10
483551.66
 20
4631365.44
  0
VERTEX
 8
PG-LI
 10
483555.0
 20
4631360.18
  0
VERTEX
 8
PG-LI
 10
483559.15
 20
4631354.0
  0
VERTEX
 8
PG-LI
 10
483560.08
 20
4631352.5
  0
VERTEX
 8
PG-LI
 10
483560.55
 20
4631351.61
  0
VERTEX
 8
PG-LI
 10
483561.14
 20
4631350.29
  0
VERTEX
 8
PG-LI
 10
483563.07
 20
4631345.42
  0
SEQEND
  8
0
  0
POLYLINE
  8
PG-LI
 66
1
  0
VERTEX
 8
PG-LI
 10
483563.07
 20
4631345.42
  0
VERTEX
 8
PG-LI
 10
483563.77
 20
4631343.63
  0
VERTEX
 8
PG-LI
 10
483564.58
 20
4631343.34
  0
VERTEX
 8
PG-LI
 10
483565.25
 20
4631345.18
  0
VERTEX
 8
PG-LI
 10
483566.94
 20
4631344.55
  0
VERTEX
 8
PG-LI
 10
483567.53
 20
4631346.19
  0
SEQEND
  8
0
  0
LINE
  8
PG-LI
 10
483567.01
 20
4631346.28
 11
483567.53
 21
4631346.19
  0
POLYLINE
  8
PG-LI
 66
1
  0
VERTEX
 8
PG-LI
 10
483567.53
 20
4631346.19
  0
VERTEX
 8
PG-LI
 10
483568.22
 20
4631345.96
  0
VERTEX
 8
PG-LI
 10
483568.56
 20
4631345.8
  0
SEQEND
  8
0
  0
LINE
  8
PG-LI
 10
483568.56
 20
4631345.8
 11
483573.86
 21
4631342.77
  0
POLYLINE
  8
PG-LI
 66
1
  0
VERTEX
 8
PG-LI
 10
483571.08
 20
4631342.89
  0
VERTEX
 8
PG-LI
 10
483569.57
 20
4631343.44
  0
VERTEX
 8
PG-LI
 10
483568.87
 20
4631341.55
  0
VERTEX
 8
PG-LI
 10
483570.39
 20
4631340.99
  0
VERTEX
 8
PG-LI
 10
483571.08
 20
4631342.89
  0
SEQEND
  8
0
  0
POLYLINE
  8
PG-LI
 66
1
  0
VERTEX
 8
PG-LI
 10
483573.86
 20
4631342.77
  0
VERTEX
 8
PG-LI
 10
483572.88
 20
4631340.08
  0
VERTEX
 8
PG-LI
 10
483574.82
 20
4631339.36
  0
VERTEX
 8
PG-LI
 10
483575.7
 20
4631341.77
  0
SEQEND
  8
0
  0
LINE
  8
PG-LI
 10
483573.86
 20
4631342.77
 11
483575.7
 21
4631341.77
  0
POLYLINE
  8
PG-LP
 66
1
  0
VERTEX
 8
PG-LP
 10
483603.69
 20
4631361.59
  0
VERTEX
 8
PG-LP
 10
483615.235
 20
4631350.44
  0
VERTEX
 8
PG-LP
 10
483556.282
 20
4631305.2265
  0
VERTEX
 8
PG-LP
 10
483555.7445
 20
4631305.9715
  0
VERTEX
 8
PG-LP
 10
483554.57
 20
4631307.6
  0
VERTEX
 8
PG-LP
 10
483552.93
 20
4631306.46
  0
VERTEX
 8
PG-LP
 10
483546.3665
 20
4631309.344
  0
VERTEX
 8
PG-LP
 10
483528.79
 20
4631357.12
  0
VERTEX
 8
PG-LP
 10
483552.24
 20
4631372.04
  0
VERTEX
 8
PG-LP
 10
483584.2755
 20
4631341.0555
  0
VERTEX
 8
PG-LP
 10
483584.8555
 20
4631340.495
  0
VERTEX
 8
PG-LP
 10
483603.69
 20
4631361.59
  0
SEQEND
  8
0
  0
ENDSEC
  0
EOF
