  0
SECTION
  2
ENTITIES
  0
TEXT
  8
PG-AA
 10
483623.43
 20
4631369.05
 40
.4
 50
0.0
  1
POR
 72
1
 73
3
 11
483623.43
 21
4631369.05
  0
TEXT
  8
PG-AS
 10
483623.43
 20
4631369.05
 40
.4
 50
0.0
  1
35
 72
1
 73
1
 11
483623.43
 21
4631369.05
  0
TEXT
  8
PG-AA
 10
483615.47
 20
4631374.34
 40
.4
 50
0.0
  1
I
 72
1
 73
3
 11
483615.47
 21
4631374.34
  0
TEXT
  8
PG-AS
 10
483615.47
 20
4631374.34
 40
.4
 50
0.0
  1
3
 72
1
 73
1
 11
483615.47
 21
4631374.34
  0
TEXT
  8
PG-AA
 10
483624.99
 20
4631376.46
 40
.4
 50
0.0
  1
I
 72
1
 73
3
 11
483624.99
 21
4631376.46
  0
TEXT
  8
PG-AS
 10
483624.99
 20
4631376.46
 40
.4
 50
0.0
  1
4
 72
1
 73
1
 11
483624.99
 21
4631376.46
  0
TEXT
  8
PG-AA
 10
483619.2
 20
4631373.43
 40
.4
 50
0.0
  1
-I+I
 72
1
 73
3
 11
483619.2
 21
4631373.43
  0
TEXT
  8
PG-AS
 10
483619.2
 20
4631373.43
 40
.4
 50
0.0
  1
126
 72
1
 73
1
 11
483619.2
 21
4631373.43
  0
TEXT
  8
PG-AA
 10
483628.78
 20
4631365.42
 40
.4
 50
0.0
  1
P
 72
1
 73
3
 11
483628.78
 21
4631365.42
  0
TEXT
  8
PG-AS
 10
483628.78
 20
4631365.42
 40
.4
 50
0.0
  1
466
 72
1
 73
1
 11
483628.78
 21
4631365.42
  0
LINE
  8
PG-LI
 10
483612.403
 20
4631369.484
 11
483615.513
 21
4631372.941
  0
LINE
  8
PG-LI
 10
483617.793
 20
4631364.6355
 11
483612.403
 21
4631369.484
  0
LINE
  8
PG-LI
 10
483614.777
 20
4631375.487
 11
483614.877
 21
4631375.598
  0
POLYLINE
  8
PG-LI
 66
1
  0
VERTEX
 8
PG-LI
 10
483615.513
 20
4631372.941
  0
VERTEX
 8
PG-LI
 10
483614.881
 20
4631373.5095
  0
VERTEX
 8
PG-LI
 10
483614.777
 20
4631375.487
  0
SEQEND
  8
0
  0
POLYLINE
  8
PG-LI
 66
1
  0
VERTEX
 8
PG-LI
 10
483614.877
 20
4631375.598
  0
VERTEX
 8
PG-LI
 10
483614.1335
 20
4631376.267
  0
VERTEX
 8
PG-LI
 10
483615.705
 20
4631378.014
  0
VERTEX
 8
PG-LI
 10
483615.482
 20
4631378.215
  0
VERTEX
 8
PG-LI
 10
483619.194
 20
4631382.341
  0
VERTEX
 8
PG-LI
 10
483622.1965
 20
4631379.64
  0
SEQEND
  8
0
  0
POLYLINE
  8
PG-LI
 66
1
  0
VERTEX
 8
PG-LI
 10
483614.877
 20
4631375.598
  0
VERTEX
 8
PG-LI
 10
483616.5495
 20
4631374.0935
  0
VERTEX
 8
PG-LI
 10
483615.513
 20
4631372.941
  0
SEQEND
  8
0
  0
LINE
  8
PG-LI
 10
483617.793
 20
4631364.6355
 11
483627.223
 21
4631375.118
  0
LINE
  8
PG-LI
 10
483619.6515
 20
4631362.963
 11
483617.793
 21
4631364.6355
  0
POLYLINE
  8
PG-LI
 66
1
  0
VERTEX
 8
PG-LI
 10
483627.223
 20
4631375.118
  0
VERTEX
 8
PG-LI
 10
483629.082
 20
4631373.446
  0
VERTEX
 8
PG-LI
 10
483619.6515
 20
4631362.963
  0
SEQEND
  8
0
  0
LINE
  8
PG-LI
 10
483622.1965
 20
4631379.64
 11
483623.6545
 21
4631378.328
  0
POLYLINE
  8
PG-LI
 66
1
  0
VERTEX
 8
PG-LI
 10
483627.0
 20
4631375.3185
  0
VERTEX
 8
PG-LI
 10
483626.3315
 20
4631374.575
  0
VERTEX
 8
PG-LI
 10
483623.729
 20
4631376.9155
  0
VERTEX
 8
PG-LI
 10
483623.6545
 20
4631378.328
  0
SEQEND
  8
0
  0
LINE
  8
PG-LI
 10
483623.6545
 20
4631378.328
 11
483627.0
 21
4631375.3185
  0
LINE
  8
PG-LI
 10
483627.0
 20
4631375.3185
 11
483627.223
 21
4631375.118
  0
POLYLINE
  8
PG-LP
 66
1
  0
VERTEX
 8
PG-LP
 10
483638.8155
 20
4631368.7245
  0
VERTEX
 8
PG-LP
 10
483636.4575
 20
4631366.8105
  0
VERTEX
 8
PG-LP
 10
483620.6685
 20
4631353.994
  0
VERTEX
 8
PG-LP
 10
483605.736
 20
4631366.676
  0
VERTEX
 8
PG-LP
 10
483606.8885
 20
4631367.8675
  0
VERTEX
 8
PG-LP
 10
483607.8895
 20
4631369.189
  0
VERTEX
 8
PG-LP
 10
483608.724
 20
4631370.6215
  0
VERTEX
 8
PG-LP
 10
483609.3795
 20
4631372.1435
  0
VERTEX
 8
PG-LP
 10
483609.847
 20
4631373.734
  0
VERTEX
 8
PG-LP
 10
483609.926
 20
4631374.1015
  0
VERTEX
 8
PG-LP
 10
483610.12
 20
4631375.369
  0
VERTEX
 8
PG-LP
 10
483610.1935
 20
4631377.025
  0
VERTEX
 8
PG-LP
 10
483610.0675
 20
4631378.678
  0
VERTEX
 8
PG-LP
 10
483609.743
 20
4631380.3035
  0
VERTEX
 8
PG-LP
 10
483609.2255
 20
4631381.8785
  0
VERTEX
 8
PG-LP
 10
483608.522
 20
4631383.3795
  0
VERTEX
 8
PG-LP
 10
483607.6425
 20
4631384.7845
  0
VERTEX
 8
PG-LP
 10
483607.427
 20
4631385.0785
  0
VERTEX
 8
PG-LP
 10
483611.343
 20
4631389.404
  0
VERTEX
 8
PG-LP
 10
483613.3565
 20
4631391.628
  0
VERTEX
 8
PG-LP
 10
483638.8155
 20
4631368.7245
  0
SEQEND
  8
0
  0
ENDSEC
  0
EOF
