  0
SECTION
  2
ENTITIES
  0
TEXT
  8
PG-AA
 10
483403.41
 20
4631445.24
 40
.4
 50
0.0
  1
I
 72
1
 73
3
 11
483403.41
 21
4631445.24
  0
TEXT
  8
PG-AS
 10
483403.41
 20
4631445.24
 40
.4
 50
0.0
  1
25
 72
1
 73
1
 11
483403.41
 21
4631445.24
  0
TEXT
  8
PG-AA
 10
483397.86
 20
4631427.67
 40
.4
 50
0.0
  1
I
 72
1
 73
3
 11
483397.86
 21
4631427.67
  0
TEXT
  8
PG-AS
 10
483397.86
 20
4631427.67
 40
.4
 50
0.0
  1
16
 72
1
 73
1
 11
483397.86
 21
4631427.67
  0
TEXT
  8
PG-AA
 10
483402.64
 20
4631422.98
 40
.4
 50
0.0
  1
POR
 72
1
 73
3
 11
483402.64
 21
4631422.98
  0
TEXT
  8
PG-AS
 10
483402.64
 20
4631422.98
 40
.4
 50
0.0
  1
50
 72
1
 73
1
 11
483402.64
 21
4631422.98
  0
TEXT
  8
PG-AA
 10
483401.8
 20
4631436.25
 40
.4
 50
0.0
  1
II
 72
1
 73
3
 11
483401.8
 21
4631436.25
  0
TEXT
  8
PG-AS
 10
483401.8
 20
4631436.25
 40
.4
 50
0.0
  1
145
 72
1
 73
1
 11
483401.8
 21
4631436.25
  0
LINE
  8
PG-LP
 10
483396.276
 20
4631424.545
 11
483396.9245
 21
4631431.054
  0
POLYLINE
  8
PG-LP
 66
1
  0
VERTEX
 8
PG-LP
 10
483404.9935
 20
4631426.7085
  0
VERTEX
 8
PG-LP
 10
483408.1585
 20
4631426.6145
  0
VERTEX
 8
PG-LP
 10
483407.592
 20
4631420.543
  0
VERTEX
 8
PG-LP
 10
483396.001
 20
4631420.886
  0
VERTEX
 8
PG-LP
 10
483396.276
 20
4631424.545
  0
SEQEND
  8
0
  0
LINE
  8
PG-LI
 10
483398.587
 20
4631424.458
 11
483396.276
 21
4631424.545
  0
LINE
  8
PG-LP
 10
483396.9245
 20
4631431.054
 11
483398.188
 21
4631443.74
  0
POLYLINE
  8
PG-LI
 66
1
  0
VERTEX
 8
PG-LI
 10
483396.9245
 20
4631431.054
  0
VERTEX
 8
PG-LI
 10
483399.277
 20
4631430.9435
  0
VERTEX
 8
PG-LI
 10
483399.1715
 20
4631428.7065
  0
SEQEND
  8
0
  0
LINE
  8
PG-LP
 10
483398.188
 20
4631443.74
 11
483399.932
 21
4631443.607
  0
LINE
  8
PG-LI
 10
483398.971
 20
4631424.4435
 11
483398.587
 21
4631424.458
  0
LINE
  8
PG-LI
 10
483399.1715
 20
4631428.7065
 11
483398.971
 21
4631424.4435
  0
LINE
  8
PG-LI
 10
483398.971
 20
4631424.4435
 11
483404.763
 21
4631424.226
  0
POLYLINE
  8
PG-LP
 66
1
  0
VERTEX
 8
PG-LP
 10
483399.932
 20
4631443.607
  0
VERTEX
 8
PG-LP
 10
483400.317
 20
4631447.38
  0
VERTEX
 8
PG-LP
 10
483406.8815
 20
4631446.8775
  0
VERTEX
 8
PG-LP
 10
483406.516
 20
4631443.103
  0
SEQEND
  8
0
  0
LINE
  8
PG-LI
 10
483406.516
 20
4631443.103
 11
483399.932
 21
4631443.607
  0
LINE
  8
PG-LI
 10
483404.763
 20
4631424.226
 11
483404.9935
 21
4631426.7085
  0
POLYLINE
  8
PG-LP
 66
1
  0
VERTEX
 8
PG-LP
 10
483405.179
 20
4631428.703
  0
VERTEX
 8
PG-LP
 10
483405.1365
 20
4631428.2505
  0
VERTEX
 8
PG-LP
 10
483404.9935
 20
4631426.7085
  0
SEQEND
  8
0
  0
LINE
  8
PG-LP
 10
483406.516
 20
4631443.103
 11
483405.179
 21
4631428.703
  0
ENDSEC
  0
EOF
