  0
SECTION
  2
ENTITIES
  0
TEXT
  8
PG-AA
 10
483781.88
 20
4631159.16
 40
.4
 50
0.0
  1
P
 72
1
 73
3
 11
483781.88
 21
4631159.16
  0
TEXT
  8
PG-AS
 10
483781.88
 20
4631159.16
 40
.4
 50
0.0
  1
2752
 72
1
 73
1
 11
483781.88
 21
4631159.16
  0
TEXT
  8
PG-AA
 10
483777.23
 20
4631177.24
 40
.4
 50
0.0
  1
-I+I
 72
1
 73
3
 11
483777.23
 21
4631177.24
  0
TEXT
  8
PG-AS
 10
483777.23
 20
4631177.24
 40
.4
 50
0.0
  1
60
 72
1
 73
1
 11
483777.23
 21
4631177.24
  0
TEXT
  8
PG-AA
 10
483785.56
 20
4631183.04
 40
.4
 50
0.0
  1
-I+II
 72
1
 73
3
 11
483785.56
 21
4631183.04
  0
TEXT
  8
PG-AS
 10
483785.56
 20
4631183.04
 40
.4
 50
0.0
  1
59
 72
1
 73
1
 11
483785.56
 21
4631183.04
  0
TEXT
  8
PG-AA
 10
483784.58
 20
4631176.81
 40
.4
 50
0.0
  1
-I+I
 72
1
 73
3
 11
483784.58
 21
4631176.81
  0
TEXT
  8
PG-AS
 10
483784.58
 20
4631176.81
 40
.4
 50
0.0
  1
59
 72
1
 73
1
 11
483784.58
 21
4631176.81
  0
TEXT
  8
PG-AA
 10
483791.58
 20
4631175.5
 40
.4
 50
0.0
  1
-I+I
 72
1
 73
3
 11
483791.58
 21
4631175.5
  0
TEXT
  8
PG-AS
 10
483791.58
 20
4631175.5
 40
.4
 50
0.0
  1
70
 72
1
 73
1
 11
483791.58
 21
4631175.5
  0
LINE
  8
PG-LI
 10
483780.1
 20
4631185.73
 11
483778.44
 21
4631183.46
  0
POLYLINE
  8
PG-LI
 66
1
  0
VERTEX
 8
PG-LI
 10
483778.44
 20
4631183.46
  0
VERTEX
 8
PG-LI
 10
483772.65
 20
4631175.57
  0
VERTEX
 8
PG-LI
 10
483778.86
 20
4631171.02
  0
VERTEX
 8
PG-LI
 10
483780.89
 20
4631173.78
  0
SEQEND
  8
0
  0
LINE
  8
PG-LI
 10
483778.44
 20
4631183.46
 11
483782.36
 21
4631180.59
  0
POLYLINE
  8
PG-LI
 66
1
  0
VERTEX
 8
PG-LI
 10
483792.73
 20
4631182.0
  0
VERTEX
 8
PG-LI
 10
483791.85
 20
4631184.21
  0
VERTEX
 8
PG-LI
 10
483788.11
 20
4631184.68
  0
VERTEX
 8
PG-LI
 10
483787.85
 20
4631186.0
  0
VERTEX
 8
PG-LI
 10
483785.14
 20
4631186.4
  0
VERTEX
 8
PG-LI
 10
483784.39
 20
4631185.18
  0
VERTEX
 8
PG-LI
 10
483780.1
 20
4631185.73
  0
SEQEND
  8
0
  0
POLYLINE
  8
PG-LI
 66
1
  0
VERTEX
 8
PG-LI
 10
483782.36
 20
4631180.59
  0
VERTEX
 8
PG-LI
 10
483779.24
 20
4631176.34
  0
VERTEX
 8
PG-LI
 10
483781.53
 20
4631174.65
  0
VERTEX
 8
PG-LI
 10
483780.89
 20
4631173.78
  0
SEQEND
  8
0
  0
POLYLINE
  8
PG-LI
 66
1
  0
VERTEX
 8
PG-LI
 10
483780.89
 20
4631173.78
  0
VERTEX
 8
PG-LI
 10
483782.95
 20
4631172.27
  0
VERTEX
 8
PG-LI
 10
483785.36
 20
4631171.82
  0
VERTEX
 8
PG-LI
 10
483787.73
 20
4631172.74
  0
SEQEND
  8
0
  0
LINE
  8
PG-LI
 10
483787.4
 20
4631179.87
 11
483782.36
 21
4631180.59
  0
LINE
  8
PG-LI
 10
483792.73
 20
4631182.0
 11
483787.4
 21
4631179.87
  0
POLYLINE
  8
PG-LI
 66
1
  0
VERTEX
 8
PG-LI
 10
483787.4
 20
4631179.87
  0
VERTEX
 8
PG-LI
 10
483789.55
 20
4631174.49
  0
VERTEX
 8
PG-LI
 10
483787.37
 20
4631173.61
  0
VERTEX
 8
PG-LI
 10
483787.73
 20
4631172.74
  0
SEQEND
  8
0
  0
POLYLINE
  8
PG-LI
 66
1
  0
VERTEX
 8
PG-LI
 10
483787.73
 20
4631172.74
  0
VERTEX
 8
PG-LI
 10
483789.08
 20
4631169.4
  0
VERTEX
 8
PG-LI
 10
483796.57
 20
4631172.4
  0
SEQEND
  8
0
  0
LINE
  8
PG-LI
 10
483796.57
 20
4631172.4
 11
483792.73
 21
4631182.0
  0
POLYLINE
  8
PG-LP
 66
1
  0
VERTEX
 8
PG-LP
 10
483792.9695
 20
4631129.4185
  0
VERTEX
 8
PG-LP
 10
483739.247
 20
4631148.629
  0
VERTEX
 8
PG-LP
 10
483744.4215
 20
4631154.504
  0
VERTEX
 8
PG-LP
 10
483770.522
 20
4631184.304
  0
VERTEX
 8
PG-LP
 10
483787.912
 20
4631203.764
  0
VERTEX
 8
PG-LP
 10
483791.142
 20
4631203.714
  0
VERTEX
 8
PG-LP
 10
483807.952
 20
4631167.264
  0
VERTEX
 8
PG-LP
 10
483808.462
 20
4631165.904
  0
VERTEX
 8
PG-LP
 10
483809.391
 20
4631163.9325
  0
VERTEX
 8
PG-LP
 10
483810.1355
 20
4631161.884
  0
VERTEX
 8
PG-LP
 10
483810.689
 20
4631159.776
  0
VERTEX
 8
PG-LP
 10
483811.0465
 20
4631157.6265
  0
VERTEX
 8
PG-LP
 10
483811.076
 20
4631157.3675
  0
VERTEX
 8
PG-LP
 10
483811.206
 20
4631155.453
  0
VERTEX
 8
PG-LP
 10
483811.165
 20
4631153.274
  0
VERTEX
 8
PG-LP
 10
483810.925
 20
4631151.108
  0
VERTEX
 8
PG-LP
 10
483810.4865
 20
4631148.9735
  0
VERTEX
 8
PG-LP
 10
483810.135
 20
4631147.7295
  0
VERTEX
 8
PG-LP
 10
483802.932
 20
4631125.8555
  0
VERTEX
 8
PG-LP
 10
483792.9695
 20
4631129.4185
  0
SEQEND
  8
0
  0
ENDSEC
  0
EOF
