  0
SECTION
  2
ENTITIES
  0
TEXT
  8
PG-AA
 10
483330.69
 20
4631370.38
 40
.4
 50
0.0
  1
e
 72
1
 73
3
 11
483330.69
 21
4631370.38
  0
TEXT
  8
PG-AS
 10
483330.69
 20
4631370.38
 40
.4
 50
0.0
  1
181
 72
1
 73
1
 11
483330.69
 21
4631370.38
  0
TEXT
  8
PG-AA
 10
483330.09
 20
4631340.98
 40
.4
 50
0.0
  1
d
 72
1
 73
3
 11
483330.09
 21
4631340.98
  0
TEXT
  8
PG-AS
 10
483330.09
 20
4631340.98
 40
.4
 50
0.0
  1
1364
 72
1
 73
1
 11
483330.09
 21
4631340.98
  0
TEXT
  8
PG-AA
 10
483213.63
 20
4631394.0
 40
.4
 50
0.0
  1
i
 72
1
 73
3
 11
483213.63
 21
4631394.0
  0
TEXT
  8
PG-AS
 10
483213.63
 20
4631394.0
 40
.4
 50
0.0
  1
84
 72
1
 73
1
 11
483213.63
 21
4631394.0
  0
TEXT
  8
PG-AA
 10
483383.28
 20
4631398.44
 40
.4
 50
0.0
  1
a
 72
1
 73
3
 11
483383.28
 21
4631398.44
  0
TEXT
  8
PG-AS
 10
483383.28
 20
4631398.44
 40
.4
 50
0.0
  1
1449
 72
1
 73
1
 11
483383.28
 21
4631398.44
  0
TEXT
  8
PG-AA
 10
483348.46
 20
4631426.38
 40
.4
 50
0.0
  1
b
 72
1
 73
3
 11
483348.46
 21
4631426.38
  0
TEXT
  8
PG-AS
 10
483348.46
 20
4631426.38
 40
.4
 50
0.0
  1
5023
 72
1
 73
1
 11
483348.46
 21
4631426.38
  0
TEXT
  8
PG-AA
 10
483335.11
 20
4631306.21
 40
.4
 50
0.0
  1
e
 72
1
 73
3
 11
483335.11
 21
4631306.21
  0
TEXT
  8
PG-AS
 10
483335.11
 20
4631306.21
 40
.4
 50
0.0
  1
709
 72
1
 73
1
 11
483335.11
 21
4631306.21
  0
TEXT
  8
PG-AA
 10
483317.01
 20
4631280.4
 40
.4
 50
0.0
  1
j
 72
1
 73
3
 11
483317.01
 21
4631280.4
  0
TEXT
  8
PG-AS
 10
483317.01
 20
4631280.4
 40
.4
 50
0.0
  1
421
 72
1
 73
1
 11
483317.01
 21
4631280.4
  0
TEXT
  8
PG-AA
 10
483262.97
 20
4631379.82
 40
.4
 50
0.0
  1
f
 72
1
 73
3
 11
483262.97
 21
4631379.82
  0
TEXT
  8
PG-AS
 10
483262.97
 20
4631379.82
 40
.4
 50
0.0
  1
12884
 72
1
 73
1
 11
483262.97
 21
4631379.82
  0
TEXT
  8
PG-AA
 10
483307.8
 20
4631422.17
 40
.4
 50
0.0
  1
c
 72
1
 73
3
 11
483307.8
 21
4631422.17
  0
TEXT
  8
PG-AS
 10
483307.8
 20
4631422.17
 40
.4
 50
0.0
  1
1062
 72
1
 73
1
 11
483307.8
 21
4631422.17
  0
POLYLINE
  8
PG-LI
 66
1
  0
VERTEX
 8
PG-LI
 10
483214.4825
 20
4631388.6085
  0
VERTEX
 8
PG-LI
 10
483209.7725
 20
4631389.8585
  0
VERTEX
 8
PG-LI
 10
483208.4325
 20
4631393.6085
  0
VERTEX
 8
PG-LI
 10
483211.1225
 20
4631399.8485
  0
VERTEX
 8
PG-LI
 10
483216.5025
 20
4631397.3485
  0
VERTEX
 8
PG-LI
 10
483220.5325
 20
4631396.0985
  0
VERTEX
 8
PG-LI
 10
483217.8425
 20
4631391.1085
  0
VERTEX
 8
PG-LI
 10
483214.4825
 20
4631388.6085
  0
SEQEND
  8
0
  0
LINE
  8
PG-LP
 10
483283.813
 20
4631440.688
 11
483300.703
 21
4631444.488
  0
POLYLINE
  8
PG-LP
 66
1
  0
VERTEX
 8
PG-LP
 10
483296.452
 20
4631289.388
  0
VERTEX
 8
PG-LP
 10
483270.792
 20
4631317.118
  0
VERTEX
 8
PG-LP
 10
483248.3125
 20
4631341.3885
  0
VERTEX
 8
PG-LP
 10
483233.1025
 20
4631354.7585
  0
VERTEX
 8
PG-LP
 10
483223.1425
 20
4631363.1385
  0
VERTEX
 8
PG-LP
 10
483219.7825
 20
4631365.9485
  0
VERTEX
 8
PG-LP
 10
483195.3925
 20
4631384.749
  0
VERTEX
 8
PG-LP
 10
483172.2425
 20
4631404.879
  0
VERTEX
 8
PG-LP
 10
483164.123
 20
4631412.999
  0
VERTEX
 8
PG-LP
 10
483173.403
 20
4631415.159
  0
VERTEX
 8
PG-LP
 10
483226.983
 20
4631427.5985
  0
VERTEX
 8
PG-LP
 10
483229.973
 20
4631428.2885
  0
VERTEX
 8
PG-LP
 10
483267.443
 20
4631436.9885
  0
VERTEX
 8
PG-LP
 10
483269.393
 20
4631437.4385
  0
VERTEX
 8
PG-LP
 10
483283.813
 20
4631440.688
  0
SEQEND
  8
0
  0
POLYLINE
  8
PG-LI
 66
1
  0
VERTEX
 8
PG-LI
 10
483283.813
 20
4631440.688
  0
VERTEX
 8
PG-LI
 10
483288.013
 20
4631432.168
  0
VERTEX
 8
PG-LI
 10
483296.243
 20
4631422.318
  0
VERTEX
 8
PG-LI
 10
483301.923
 20
4631410.458
  0
SEQEND
  8
0
  0
LINE
  8
PG-LP
 10
483306.662
 20
4631276.218
 11
483296.452
 21
4631289.388
  0
LINE
  8
PG-LP
 10
483300.703
 20
4631444.488
 11
483301.903
 21
4631444.758
  0
POLYLINE
  8
PG-LP
 66
1
  0
VERTEX
 8
PG-LP
 10
483301.903
 20
4631444.758
  0
VERTEX
 8
PG-LP
 10
483312.003
 20
4631447.028
  0
VERTEX
 8
PG-LP
 10
483343.1235
 20
4631454.038
  0
VERTEX
 8
PG-LP
 10
483352.0535
 20
4631455.5975
  0
VERTEX
 8
PG-LP
 10
483370.1435
 20
4631458.7675
  0
VERTEX
 8
PG-LP
 10
483370.2935
 20
4631458.7875
  0
VERTEX
 8
PG-LP
 10
483370.8135
 20
4631458.8775
  0
VERTEX
 8
PG-LP
 10
483371.8235
 20
4631459.0575
  0
VERTEX
 8
PG-LP
 10
483391.4135
 20
4631462.7675
  0
SEQEND
  8
0
  0
LINE
  8
PG-LI
 10
483327.523
 20
4631419.338
 11
483301.903
 21
4631444.758
  0
LINE
  8
PG-LI
 10
483301.923
 20
4631410.458
 11
483308.943
 21
4631399.158
  0
LINE
  8
PG-LI
 10
483306.662
 20
4631276.218
 11
483324.442
 21
4631298.3775
  0
POLYLINE
  8
PG-LP
 66
1
  0
VERTEX
 8
PG-LP
 10
483313.632
 20
4631263.8275
  0
VERTEX
 8
PG-LP
 10
483309.972
 20
4631271.9575
  0
VERTEX
 8
PG-LP
 10
483306.662
 20
4631276.218
  0
SEQEND
  8
0
  0
LINE
  8
PG-LI
 10
483308.943
 20
4631399.158
 11
483313.713
 21
4631402.998
  0
POLYLINE
  8
PG-LI
 66
1
  0
VERTEX
 8
PG-LI
 10
483329.673
 20
4631379.8975
  0
VERTEX
 8
PG-LI
 10
483323.333
 20
4631386.098
  0
VERTEX
 8
PG-LI
 10
483308.943
 20
4631399.158
  0
SEQEND
  8
0
  0
LINE
  8
PG-LI
 10
483313.0825
 20
4631357.018
 11
483329.5225
 21
4631361.8975
  0
LINE
  8
PG-LI
 10
483336.9425
 20
4631313.3575
 11
483313.0825
 21
4631357.018
  0
LINE
  8
PG-LP
 10
483335.912
 20
4631290.7675
 11
483313.632
 21
4631263.8275
  0
LINE
  8
PG-LI
 10
483313.713
 20
4631402.998
 11
483323.243
 21
4631394.328
  0
POLYLINE
  8
PG-LP
 66
1
  0
VERTEX
 8
PG-LP
 10
483314.498
 20
4631407.5205
  0
VERTEX
 8
PG-LP
 10
483322.203
 20
4631413.5675
  0
VERTEX
 8
PG-LP
 10
483324.403
 20
4631410.764
  0
VERTEX
 8
PG-LP
 10
483327.758
 20
4631413.397
  0
VERTEX
 8
PG-LP
 10
483324.452
 20
4631417.61
  0
VERTEX
 8
PG-LP
 10
483321.171
 20
4631415.035
  0
VERTEX
 8
PG-LP
 10
483316.5045
 20
4631420.981
  0
VERTEX
 8
PG-LP
 10
483312.0955
 20
4631417.521
  0
VERTEX
 8
PG-LP
 10
483309.5095
 20
4631420.817
  0
VERTEX
 8
PG-LP
 10
483306.139
 20
4631418.1715
  0
VERTEX
 8
PG-LP
 10
483314.498
 20
4631407.5205
  0
SEQEND
  8
0
  0
LINE
  8
PG-LI
 10
483320.4625
 20
4631371.798
 11
483329.673
 21
4631379.8975
  0
LINE
  8
PG-LI
 10
483329.5225
 20
4631361.8975
 11
483320.4625
 21
4631371.798
  0
POLYLINE
  8
PG-LI
 66
1
  0
VERTEX
 8
PG-LI
 10
483323.243
 20
4631394.328
  0
VERTEX
 8
PG-LI
 10
483332.723
 20
4631402.988
  0
VERTEX
 8
PG-LI
 10
483334.483
 20
4631407.8275
  0
VERTEX
 8
PG-LI
 10
483327.523
 20
4631419.338
  0
SEQEND
  8
0
  0
POLYLINE
  8
PG-LI
 66
1
  0
VERTEX
 8
PG-LI
 10
483323.243
 20
4631394.328
  0
VERTEX
 8
PG-LI
 10
483329.103
 20
4631388.998
  0
VERTEX
 8
PG-LI
 10
483338.853
 20
4631380.0475
  0
VERTEX
 8
PG-LI
 10
483364.8025
 20
4631357.2575
  0
VERTEX
 8
PG-LI
 10
483375.743
 20
4631379.0075
  0
VERTEX
 8
PG-LI
 10
483383.133
 20
4631404.1975
  0
VERTEX
 8
PG-LI
 10
483388.0035
 20
4631452.4075
  0
SEQEND
  8
0
  0
LINE
  8
PG-LI
 10
483324.442
 20
4631298.3775
 11
483336.9425
 21
4631313.3575
  0
LINE
  8
PG-LI
 10
483335.912
 20
4631290.7675
 11
483324.442
 21
4631298.3775
  0
LINE
  8
PG-LI
 10
483340.5325
 20
4631370.2675
 11
483329.5225
 21
4631361.8975
  0
LINE
  8
PG-LI
 10
483329.673
 20
4631379.8975
 11
483340.5325
 21
4631370.2675
  0
POLYLINE
  8
PG-LP
 66
1
  0
VERTEX
 8
PG-LP
 10
483349.9825
 20
4631313.9475
  0
VERTEX
 8
PG-LP
 10
483344.532
 20
4631304.0475
  0
VERTEX
 8
PG-LP
 10
483335.912
 20
4631290.7675
  0
SEQEND
  8
0
  0
POLYLINE
  8
PG-LI
 66
1
  0
VERTEX
 8
PG-LI
 10
483361.7725
 20
4631352.1075
  0
VERTEX
 8
PG-LI
 10
483350.4825
 20
4631334.0175
  0
VERTEX
 8
PG-LI
 10
483342.8925
 20
4631321.5275
  0
VERTEX
 8
PG-LI
 10
483336.9425
 20
4631313.3575
  0
SEQEND
  8
0
  0
LINE
  8
PG-LI
 10
483340.5325
 20
4631370.2675
 11
483361.7725
 21
4631352.1075
  0
LINE
  8
PG-LP
 10
483370.8325
 20
4631349.3375
 11
483349.9825
 21
4631313.9475
  0
LINE
  8
PG-LI
 10
483370.8325
 20
4631349.3375
 11
483361.7725
 21
4631352.1075
  0
POLYLINE
  8
PG-LP
 66
1
  0
VERTEX
 8
PG-LP
 10
483391.4135
 20
4631462.7675
  0
VERTEX
 8
PG-LP
 10
483395.1535
 20
4631463.4775
  0
VERTEX
 8
PG-LP
 10
483400.6135
 20
4631457.9275
  0
VERTEX
 8
PG-LP
 10
483396.4635
 20
4631448.2875
  0
VERTEX
 8
PG-LP
 10
483390.773
 20
4631405.2975
  0
VERTEX
 8
PG-LP
 10
483389.763
 20
4631398.3475
  0
VERTEX
 8
PG-LP
 10
483388.633
 20
4631390.6075
  0
VERTEX
 8
PG-LP
 10
483387.773
 20
4631384.6675
  0
VERTEX
 8
PG-LP
 10
483384.103
 20
4631374.4675
  0
VERTEX
 8
PG-LP
 10
483371.4425
 20
4631350.3675
  0
VERTEX
 8
PG-LP
 10
483370.8325
 20
4631349.3375
  0
SEQEND
  8
0
  0
LINE
  8
PG-LI
 10
483388.0035
 20
4631452.4075
 11
483391.4135
 21
4631462.7675
  0
ENDSEC
  0
EOF
