  0
SECTION
  2
ENTITIES
  0
TEXT
  8
PG-AA
 10
483410.34
 20
4631281.32
 40
.4
 50
0.0
  1
0
 72
1
 73
3
 11
483410.34
 21
4631281.32
  0
TEXT
  8
PG-AS
 10
483410.34
 20
4631281.32
 40
.4
 50
0.0
  1
25186
 72
1
 73
1
 11
483410.34
 21
4631281.32
  0
POLYLINE
  8
PG-LP
 66
1
  0
VERTEX
 8
PG-LP
 10
483517.9325
 20
4631282.316
  0
VERTEX
 8
PG-LP
 10
483465.282
 20
4631248.8265
  0
VERTEX
 8
PG-LP
 10
483383.9915
 20
4631197.797
  0
VERTEX
 8
PG-LP
 10
483327.041
 20
4631165.9475
  0
VERTEX
 8
PG-LP
 10
483325.931
 20
4631172.3975
  0
VERTEX
 8
PG-LP
 10
483324.761
 20
4631179.0875
  0
VERTEX
 8
PG-LP
 10
483323.0215
 20
4631194.4975
  0
VERTEX
 8
PG-LP
 10
483320.5415
 20
4631205.9875
  0
VERTEX
 8
PG-LP
 10
483318.0115
 20
4631208.4675
  0
VERTEX
 8
PG-LP
 10
483316.2415
 20
4631235.8975
  0
VERTEX
 8
PG-LP
 10
483313.632
 20
4631263.8275
  0
VERTEX
 8
PG-LP
 10
483335.912
 20
4631290.7675
  0
VERTEX
 8
PG-LP
 10
483344.532
 20
4631304.0475
  0
VERTEX
 8
PG-LP
 10
483349.9825
 20
4631313.9475
  0
VERTEX
 8
PG-LP
 10
483370.8325
 20
4631349.3375
  0
VERTEX
 8
PG-LP
 10
483371.4425
 20
4631350.3675
  0
VERTEX
 8
PG-LP
 10
483384.103
 20
4631374.4675
  0
VERTEX
 8
PG-LP
 10
483387.773
 20
4631384.6675
  0
VERTEX
 8
PG-LP
 10
483393.953
 20
4631381.9875
  0
VERTEX
 8
PG-LP
 10
483397.383
 20
4631380.507
  0
VERTEX
 8
PG-LP
 10
483412.963
 20
4631373.377
  0
VERTEX
 8
PG-LP
 10
483418.573
 20
4631370.807
  0
VERTEX
 8
PG-LP
 10
483499.7725
 20
4631332.5265
  0
VERTEX
 8
PG-LP
 10
483526.4745
 20
4631319.241
  0
VERTEX
 8
PG-LP
 10
483546.3665
 20
4631309.344
  0
VERTEX
 8
PG-LP
 10
483552.93
 20
4631306.46
  0
VERTEX
 8
PG-LP
 10
483554.57
 20
4631307.6
  0
VERTEX
 8
PG-LP
 10
483555.7445
 20
4631305.9715
  0
VERTEX
 8
PG-LP
 10
483556.282
 20
4631305.2265
  0
VERTEX
 8
PG-LP
 10
483517.9325
 20
4631282.316
  0
SEQEND
  8
0
  0
ENDSEC
  0
EOF
