  0
SECTION
  2
ENTITIES
  0
TEXT
  8
PG-AA
 10
483083.02
 20
4630974.4
 40
.4
 50
0.0
  1
0
 72
1
 73
3
 11
483083.02
 21
4630974.4
  0
TEXT
  8
PG-AS
 10
483083.02
 20
4630974.4
 40
.4
 50
0.0
  1
6959
 72
1
 73
1
 11
483083.02
 21
4630974.4
  0
POLYLINE
  8
PG-LP
 66
1
  0
VERTEX
 8
PG-LP
 10
483517.9325
 20
4631282.316
  0
VERTEX
 8
PG-LP
 10
483556.282
 20
4631305.2265
  0
VERTEX
 8
PG-LP
 10
483557.9825
 20
4631300.876
  0
VERTEX
 8
PG-LP
 10
483555.0125
 20
4631298.996
  0
VERTEX
 8
PG-LP
 10
483547.9725
 20
4631294.546
  0
VERTEX
 8
PG-LP
 10
483528.9025
 20
4631282.526
  0
VERTEX
 8
PG-LP
 10
483522.8525
 20
4631279.196
  0
VERTEX
 8
PG-LP
 10
483516.8025
 20
4631275.866
  0
VERTEX
 8
PG-LP
 10
483492.672
 20
4631259.9765
  0
VERTEX
 8
PG-LP
 10
483468.712
 20
4631243.7165
  0
VERTEX
 8
PG-LP
 10
483387.1415
 20
4631192.477
  0
VERTEX
 8
PG-LP
 10
483326.751
 20
4631158.7875
  0
VERTEX
 8
PG-LP
 10
483326.201
 20
4631158.4875
  0
VERTEX
 8
PG-LP
 10
483323.821
 20
4631157.1675
  0
VERTEX
 8
PG-LP
 10
483320.221
 20
4631155.1875
  0
VERTEX
 8
PG-LP
 10
483319.621
 20
4631154.9475
  0
VERTEX
 8
PG-LP
 10
483313.651
 20
4631152.5675
  0
VERTEX
 8
PG-LP
 10
483312.911
 20
4631152.2775
  0
VERTEX
 8
PG-LP
 10
483249.3705
 20
4631127.388
  0
VERTEX
 8
PG-LP
 10
483234.9705
 20
4631121.028
  0
VERTEX
 8
PG-LP
 10
483220.5905
 20
4631114.668
  0
VERTEX
 8
PG-LP
 10
483196.3105
 20
4631092.7185
  0
VERTEX
 8
PG-LP
 10
483179.86
 20
4631077.3685
  0
VERTEX
 8
PG-LP
 10
483163.41
 20
4631062.0085
  0
VERTEX
 8
PG-LP
 10
483148.22
 20
4631042.4485
  0
VERTEX
 8
PG-LP
 10
483133.0295
 20
4631022.8985
  0
VERTEX
 8
PG-LP
 10
483118.2895
 20
4631006.739
  0
VERTEX
 8
PG-LP
 10
483103.5595
 20
4630990.569
  0
VERTEX
 8
PG-LP
 10
483078.039
 20
4630961.799
  0
VERTEX
 8
PG-LP
 10
483076.589
 20
4630960.289
  0
VERTEX
 8
PG-LP
 10
483064.829
 20
4630948.059
  0
VERTEX
 8
PG-LP
 10
483034.289
 20
4630919.6795
  0
VERTEX
 8
PG-LP
 10
483010.2485
 20
4630906.3195
  0
VERTEX
 8
PG-LP
 10
482982.6085
 20
4630892.8995
  0
VERTEX
 8
PG-LP
 10
482945.2885
 20
4630876.88
  0
VERTEX
 8
PG-LP
 10
482943.5185
 20
4630876.07
  0
VERTEX
 8
PG-LP
 10
482942.6785
 20
4630875.73
  0
VERTEX
 8
PG-LP
 10
482931.5885
 20
4630871.26
  0
VERTEX
 8
PG-LP
 10
482910.658
 20
4630861.78
  0
VERTEX
 8
PG-LP
 10
482890.018
 20
4630852.8405
  0
VERTEX
 8
PG-LP
 10
482872.088
 20
4630846.8505
  0
VERTEX
 8
PG-LP
 10
482852.108
 20
4630841.1305
  0
VERTEX
 8
PG-LP
 10
482842.008
 20
4630837.2905
  0
VERTEX
 8
PG-LP
 10
482833.358
 20
4630832.6105
  0
VERTEX
 8
PG-LP
 10
482829.168
 20
4630829.0405
  0
VERTEX
 8
PG-LP
 10
482818.5775
 20
4630814.3505
  0
VERTEX
 8
PG-LP
 10
482806.8975
 20
4630791.221
  0
VERTEX
 8
PG-LP
 10
482801.4175
 20
4630780.361
  0
VERTEX
 8
PG-LP
 10
482785.607
 20
4630747.341
  0
VERTEX
 8
PG-LP
 10
482782.957
 20
4630742.081
  0
VERTEX
 8
PG-LP
 10
482781.737
 20
4630739.671
  0
VERTEX
 8
PG-LP
 10
482773.717
 20
4630723.751
  0
VERTEX
 8
PG-LP
 10
482772.497
 20
4630721.201
  0
VERTEX
 8
PG-LP
 10
482750.0365
 20
4630674.291
  0
VERTEX
 8
PG-LP
 10
482743.8565
 20
4630660.461
  0
VERTEX
 8
PG-LP
 10
482737.5365
 20
4630646.491
  0
VERTEX
 8
PG-LP
 10
482727.236
 20
4630627.881
  0
VERTEX
 8
PG-LP
 10
482725.716
 20
4630624.511
  0
VERTEX
 8
PG-LP
 10
482720.606
 20
4630615.641
  0
VERTEX
 8
PG-LP
 10
482716.946
 20
4630612.021
  0
VERTEX
 8
PG-LP
 10
482697.266
 20
4630592.5215
  0
VERTEX
 8
PG-LP
 10
482693.656
 20
4630597.7115
  0
VERTEX
 8
PG-LP
 10
482712.326
 20
4630615.581
  0
VERTEX
 8
PG-LP
 10
482715.116
 20
4630618.731
  0
VERTEX
 8
PG-LP
 10
482723.936
 20
4630633.331
  0
VERTEX
 8
PG-LP
 10
482732.8265
 20
4630648.971
  0
VERTEX
 8
PG-LP
 10
482744.8465
 20
4630677.771
  0
VERTEX
 8
PG-LP
 10
482765.977
 20
4630724.161
  0
VERTEX
 8
PG-LP
 10
482769.057
 20
4630729.461
  0
VERTEX
 8
PG-LP
 10
482775.667
 20
4630741.981
  0
VERTEX
 8
PG-LP
 10
482780.287
 20
4630750.561
  0
VERTEX
 8
PG-LP
 10
482787.7375
 20
4630766.421
  0
VERTEX
 8
PG-LP
 10
482804.6975
 20
4630800.091
  0
VERTEX
 8
PG-LP
 10
482813.1475
 20
4630817.421
  0
VERTEX
 8
PG-LP
 10
482820.618
 20
4630828.111
  0
VERTEX
 8
PG-LP
 10
482825.768
 20
4630834.2805
  0
VERTEX
 8
PG-LP
 10
482831.518
 20
4630838.3405
  0
VERTEX
 8
PG-LP
 10
482849.868
 20
4630846.6005
  0
VERTEX
 8
PG-LP
 10
482875.908
 20
4630853.9005
  0
VERTEX
 8
PG-LP
 10
482887.628
 20
4630858.6405
  0
VERTEX
 8
PG-LP
 10
482929.1685
 20
4630876.95
  0
VERTEX
 8
PG-LP
 10
482954.4585
 20
4630887.92
  0
VERTEX
 8
PG-LP
 10
482979.6685
 20
4630898.7295
  0
VERTEX
 8
PG-LP
 10
483006.0785
 20
4630911.3595
  0
VERTEX
 8
PG-LP
 10
483029.639
 20
4630925.4695
  0
VERTEX
 8
PG-LP
 10
483045.819
 20
4630938.129
  0
VERTEX
 8
PG-LP
 10
483060.069
 20
4630952.299
  0
VERTEX
 8
PG-LP
 10
483066.739
 20
4630958.499
  0
VERTEX
 8
PG-LP
 10
483073.189
 20
4630965.789
  0
VERTEX
 8
PG-LP
 10
483098.9595
 20
4630994.699
  0
VERTEX
 8
PG-LP
 10
483123.9795
 20
4631022.1485
  0
VERTEX
 8
PG-LP
 10
483126.54
 20
4631024.9585
  0
VERTEX
 8
PG-LP
 10
483128.29
 20
4631026.8785
  0
VERTEX
 8
PG-LP
 10
483158.83
 20
4631066.1985
  0
VERTEX
 8
PG-LP
 10
483163.06
 20
4631070.1485
  0
VERTEX
 8
PG-LP
 10
483174.26
 20
4631080.5985
  0
VERTEX
 8
PG-LP
 10
483175.8905
 20
4631082.1185
  0
VERTEX
 8
PG-LP
 10
483177.5205
 20
4631083.6485
  0
VERTEX
 8
PG-LP
 10
483184.8905
 20
4631090.5185
  0
VERTEX
 8
PG-LP
 10
483192.2605
 20
4631097.3985
  0
VERTEX
 8
PG-LP
 10
483197.4405
 20
4631102.0285
  0
VERTEX
 8
PG-LP
 10
483216.9605
 20
4631119.918
  0
VERTEX
 8
PG-LP
 10
483232.1105
 20
4631125.588
  0
VERTEX
 8
PG-LP
 10
483247.7305
 20
4631131.318
  0
VERTEX
 8
PG-LP
 10
483256.601
 20
4631135.268
  0
VERTEX
 8
PG-LP
 10
483316.901
 20
4631160.3475
  0
VERTEX
 8
PG-LP
 10
483323.121
 20
4631163.7775
  0
VERTEX
 8
PG-LP
 10
483327.041
 20
4631165.9475
  0
VERTEX
 8
PG-LP
 10
483383.9915
 20
4631197.797
  0
VERTEX
 8
PG-LP
 10
483465.282
 20
4631248.8265
  0
VERTEX
 8
PG-LP
 10
483517.9325
 20
4631282.316
  0
SEQEND
  8
0
  0
ENDSEC
  0
EOF
