  0
SECTION
  2
ENTITIES
  0
TEXT
  8
PG-AA
 10
483688.89
 20
4631343.49
 40
.4
 50
0.0
  1
e
 72
1
 73
3
 11
483688.89
 21
4631343.49
  0
TEXT
  8
PG-AS
 10
483688.89
 20
4631343.49
 40
.4
 50
0.0
  1
1000
 72
1
 73
1
 11
483688.89
 21
4631343.49
  0
TEXT
  8
PG-AA
 10
483681.13
 20
4631328.68
 40
.4
 50
0.0
  1
d
 72
1
 73
3
 11
483681.13
 21
4631328.68
  0
TEXT
  8
PG-AS
 10
483681.13
 20
4631328.68
 40
.4
 50
0.0
  1
2025
 72
1
 73
1
 11
483681.13
 21
4631328.68
  0
TEXT
  8
PG-AA
 10
483667.69
 20
4631313.23
 40
.4
 50
0.0
  1
c
 72
1
 73
3
 11
483667.69
 21
4631313.23
  0
TEXT
  8
PG-AS
 10
483667.69
 20
4631313.23
 40
.4
 50
0.0
  1
1501
 72
1
 73
1
 11
483667.69
 21
4631313.23
  0
TEXT
  8
PG-AA
 10
483659.08
 20
4631260.62
 40
.4
 50
0.0
  1
b
 72
1
 73
3
 11
483659.08
 21
4631260.62
  0
TEXT
  8
PG-AS
 10
483659.08
 20
4631260.62
 40
.4
 50
0.0
  1
955
 72
1
 73
1
 11
483659.08
 21
4631260.62
  0
TEXT
  8
PG-AA
 10
483685.93
 20
4631275.81
 40
.4
 50
0.0
  1
a
 72
1
 73
3
 11
483685.93
 21
4631275.81
  0
TEXT
  8
PG-AS
 10
483685.93
 20
4631275.81
 40
.4
 50
0.0
  1
2250
 72
1
 73
1
 11
483685.93
 21
4631275.81
  0
TEXT
  8
PG-AA
 10
483686.2
 20
4631357.49
 40
.4
 50
0.0
  1
f
 72
1
 73
3
 11
483686.2
 21
4631357.49
  0
TEXT
  8
PG-AS
 10
483686.2
 20
4631357.49
 40
.4
 50
0.0
  1
1059
 72
1
 73
1
 11
483686.2
 21
4631357.49
  0
TEXT
  8
PG-AA
 10
483698.62
 20
4631389.03
 40
.4
 50
0.0
  1
g
 72
1
 73
3
 11
483698.62
 21
4631389.03
  0
TEXT
  8
PG-AS
 10
483698.62
 20
4631389.03
 40
.4
 50
0.0
  1
828
 72
1
 73
1
 11
483698.62
 21
4631389.03
  0
TEXT
  8
PG-AA
 10
483682.27
 20
4631364.79
 40
.4
 50
0.0
  1
I
 72
1
 73
3
 11
483682.27
 21
4631364.79
  0
TEXT
  8
PG-AS
 10
483682.27
 20
4631364.79
 40
.4
 50
0.0
  1
28
 72
1
 73
1
 11
483682.27
 21
4631364.79
  0
TEXT
  8
PG-AA
 10
483692.56
 20
4631366.44
 40
.4
 50
0.0
  1
II
 72
1
 73
3
 11
483692.56
 21
4631366.44
  0
TEXT
  8
PG-AS
 10
483692.56
 20
4631366.44
 40
.4
 50
0.0
  1
240
 72
1
 73
1
 11
483692.56
 21
4631366.44
  0
TEXT
  8
PG-AA
 10
483709.73
 20
4631355.53
 40
.4
 50
0.0
  1
POR
 72
1
 73
3
 11
483709.73
 21
4631355.53
  0
TEXT
  8
PG-AS
 10
483709.73
 20
4631355.53
 40
.4
 50
0.0
  1
24
 72
1
 73
1
 11
483709.73
 21
4631355.53
  0
TEXT
  8
PG-AA
 10
483715.69
 20
4631335.37
 40
.4
 50
0.0
  1
I
 72
1
 73
3
 11
483715.69
 21
4631335.37
  0
TEXT
  8
PG-AS
 10
483715.69
 20
4631335.37
 40
.4
 50
0.0
  1
26
 72
1
 73
1
 11
483715.69
 21
4631335.37
  0
TEXT
  8
PG-AA
 10
483707.59
 20
4631364.91
 40
.4
 50
0.0
  1
I
 72
1
 73
3
 11
483707.59
 21
4631364.91
  0
TEXT
  8
PG-AS
 10
483707.59
 20
4631364.91
 40
.4
 50
0.0
  1
183
 72
1
 73
1
 11
483707.59
 21
4631364.91
  0
POLYLINE
  8
PG-LP
 66
1
  0
VERTEX
 8
PG-LP
 10
483649.455
 20
4631324.0115
  0
VERTEX
 8
PG-LP
 10
483640.713
 20
4631363.9155
  0
VERTEX
 8
PG-LP
 10
483640.173
 20
4631366.3655
  0
VERTEX
 8
PG-LP
 10
483640.943
 20
4631367.0155
  0
VERTEX
 8
PG-LP
 10
483655.383
 20
4631379.2755
  0
VERTEX
 8
PG-LP
 10
483658.4035
 20
4631381.825
  0
VERTEX
 8
PG-LP
 10
483658.5535
 20
4631381.955
  0
VERTEX
 8
PG-LP
 10
483659.827
 20
4631383.033
  0
SEQEND
  8
0
  0
POLYLINE
  8
PG-LP
 66
1
  0
VERTEX
 8
PG-LP
 10
483722.5125
 20
4631261.5545
  0
VERTEX
 8
PG-LP
 10
483721.8325
 20
4631250.6245
  0
VERTEX
 8
PG-LP
 10
483720.0925
 20
4631240.6345
  0
VERTEX
 8
PG-LP
 10
483719.4925
 20
4631239.1345
  0
VERTEX
 8
PG-LP
 10
483715.8525
 20
4631240.0445
  0
VERTEX
 8
PG-LP
 10
483683.4125
 20
4631248.205
  0
VERTEX
 8
PG-LP
 10
483648.0225
 20
4631256.235
  0
VERTEX
 8
PG-LP
 10
483653.8625
 20
4631262.365
  0
VERTEX
 8
PG-LP
 10
483660.1925
 20
4631268.915
  0
VERTEX
 8
PG-LP
 10
483657.9425
 20
4631282.245
  0
VERTEX
 8
PG-LP
 10
483655.3325
 20
4631295.265
  0
VERTEX
 8
PG-LP
 10
483654.9525
 20
4631298.925
  0
VERTEX
 8
PG-LP
 10
483654.7625
 20
4631299.785
  0
VERTEX
 8
PG-LP
 10
483649.455
 20
4631324.0115
  0
SEQEND
  8
0
  0
LINE
  8
PG-LI
 10
483656.072
 20
4631318.7385
 11
483649.455
 21
4631324.0115
  0
POLYLINE
  8
PG-LI
 66
1
  0
VERTEX
 8
PG-LI
 10
483715.282
 20
4631277.535
  0
VERTEX
 8
PG-LI
 10
483714.975
 20
4631291.0575
  0
VERTEX
 8
PG-LI
 10
483710.854
 20
4631299.299
  0
VERTEX
 8
PG-LI
 10
483698.749
 20
4631306.768
  0
VERTEX
 8
PG-LI
 10
483670.933
 20
4631311.1465
  0
VERTEX
 8
PG-LI
 10
483663.336
 20
4631369.043
  0
VERTEX
 8
PG-LI
 10
483661.9185
 20
4631372.4445
  0
VERTEX
 8
PG-LI
 10
483655.7375
 20
4631369.869
  0
VERTEX
 8
PG-LI
 10
483649.8135
 20
4631363.6875
  0
VERTEX
 8
PG-LI
 10
483648.526
 20
4631358.0215
  0
VERTEX
 8
PG-LI
 10
483656.072
 20
4631318.7385
  0
SEQEND
  8
0
  0
LINE
  8
PG-LI
 10
483656.072
 20
4631318.7385
 11
483667.07
 21
4631258.0905
  0
POLYLINE
  8
PG-LI
 66
1
  0
VERTEX
 8
PG-LI
 10
483715.282
 20
4631277.535
  0
VERTEX
 8
PG-LI
 10
483708.7175
 20
4631280.8295
  0
VERTEX
 8
PG-LI
 10
483698.442
 20
4631286.7735
  0
VERTEX
 8
PG-LI
 10
483688.5375
 20
4631293.317
  0
VERTEX
 8
PG-LI
 10
483679.038
 20
4631300.436
  0
VERTEX
 8
PG-LI
 10
483656.072
 20
4631318.7385
  0
SEQEND
  8
0
  0
LINE
  8
PG-LP
 10
483659.827
 20
4631383.033
 11
483662.7235
 21
4631385.485
  0
LINE
  8
PG-LI
 10
483659.827
 20
4631383.033
 11
483666.812
 21
4631381.459
  0
POLYLINE
  8
PG-LP
 66
1
  0
VERTEX
 8
PG-LP
 10
483662.7235
 20
4631385.485
  0
VERTEX
 8
PG-LP
 10
483663.8335
 20
4631386.235
  0
VERTEX
 8
PG-LP
 10
483666.0735
 20
4631387.725
  0
VERTEX
 8
PG-LP
 10
483666.3735
 20
4631387.915
  0
VERTEX
 8
PG-LP
 10
483672.5805
 20
4631391.514
  0
SEQEND
  8
0
  0
POLYLINE
  8
PG-LI
 66
1
  0
VERTEX
 8
PG-LI
 10
483717.923
 20
4631324.8945
  0
VERTEX
 8
PG-LI
 10
483701.582
 20
4631328.145
  0
VERTEX
 8
PG-LI
 10
483678.6595
 20
4631330.463
  0
VERTEX
 8
PG-LI
 10
483674.0235
 20
4631334.069
  0
VERTEX
 8
PG-LI
 10
483666.812
 20
4631381.459
  0
SEQEND
  8
0
  0
POLYLINE
  8
PG-LI
 66
1
  0
VERTEX
 8
PG-LI
 10
483666.812
 20
4631381.459
  0
VERTEX
 8
PG-LI
 10
483672.221
 20
4631375.2775
  0
VERTEX
 8
PG-LI
 10
483674.2815
 20
4631366.521
  0
VERTEX
 8
PG-LI
 10
483676.1425
 20
4631358.611
  0
VERTEX
 8
PG-LI
 10
483680.72
 20
4631355.446
  0
VERTEX
 8
PG-LI
 10
483693.3405
 20
4631354.6735
  0
VERTEX
 8
PG-LI
 10
483697.461
 20
4631353.128
  0
VERTEX
 8
PG-LI
 10
483699.5215
 20
4631349.2645
  0
VERTEX
 8
PG-LI
 10
483700.0365
 20
4631341.7955
  0
VERTEX
 8
PG-LI
 10
483702.8695
 20
4631340.25
  0
VERTEX
 8
PG-LI
 10
483713.816
 20
4631338.7695
  0
SEQEND
  8
0
  0
POLYLINE
  8
PG-LI
 66
1
  0
VERTEX
 8
PG-LI
 10
483667.07
 20
4631258.0905
  0
VERTEX
 8
PG-LI
 10
483714.717
 20
4631245.213
  0
VERTEX
 8
PG-LI
 10
483715.49
 20
4631266.0745
  0
SEQEND
  8
0
  0
LINE
  8
PG-LP
 10
483672.5805
 20
4631391.514
 11
483680.506
 21
4631396.11
  0
POLYLINE
  8
PG-LI
 66
1
  0
VERTEX
 8
PG-LI
 10
483672.5805
 20
4631391.514
  0
VERTEX
 8
PG-LI
 10
483672.5805
 20
4631386.095
  0
VERTEX
 8
PG-LI
 10
483674.7965
 20
4631383.777
  0
VERTEX
 8
PG-LI
 10
483687.9315
 20
4631383.004
  0
VERTEX
 8
PG-LI
 10
483701.3245
 20
4631380.686
  0
VERTEX
 8
PG-LI
 10
483711.884
 20
4631377.0805
  0
VERTEX
 8
PG-LI
 10
483721.1235
 20
4631369.905
  0
SEQEND
  8
0
  0
POLYLINE
  8
PG-LP
 66
1
  0
VERTEX
 8
PG-LP
 10
483680.506
 20
4631396.11
  0
VERTEX
 8
PG-LP
 10
483681.413
 20
4631396.5845
  0
VERTEX
 8
PG-LP
 10
483697.1515
 20
4631403.91
  0
VERTEX
 8
PG-LP
 10
483702.2735
 20
4631405.945
  0
VERTEX
 8
PG-LP
 10
483704.1035
 20
4631403.205
  0
VERTEX
 8
PG-LP
 10
483723.6935
 20
4631377.7345
  0
VERTEX
 8
PG-LP
 10
483721.1235
 20
4631369.905
  0
SEQEND
  8
0
  0
LINE
  8
PG-LI
 10
483684.3395
 20
4631368.897
 11
483683.375
 21
4631360.3225
  0
POLYLINE
  8
PG-LI
 66
1
  0
VERTEX
 8
PG-LI
 10
483684.3395
 20
4631368.897
  0
VERTEX
 8
PG-LI
 10
483681.1715
 20
4631369.253
  0
VERTEX
 8
PG-LI
 10
483680.207
 20
4631360.679
  0
VERTEX
 8
PG-LI
 10
483683.375
 20
4631360.3225
  0
SEQEND
  8
0
  0
POLYLINE
  8
PG-LI
 66
1
  0
VERTEX
 8
PG-LI
 10
483683.375
 20
4631360.3225
  0
VERTEX
 8
PG-LI
 10
483700.161
 20
4631358.434
  0
VERTEX
 8
PG-LI
 10
483700.2315
 20
4631359.0605
  0
SEQEND
  8
0
  0
POLYLINE
  8
PG-LI
 66
1
  0
VERTEX
 8
PG-LI
 10
483701.751
 20
4631372.5655
  0
VERTEX
 8
PG-LI
 10
483684.965
 20
4631374.454
  0
VERTEX
 8
PG-LI
 10
483684.3395
 20
4631368.897
  0
SEQEND
  8
0
  0
LINE
  8
PG-LI
 10
483701.751
 20
4631372.5655
 11
483700.2315
 21
4631359.0605
  0
POLYLINE
  8
PG-LI
 66
1
  0
VERTEX
 8
PG-LI
 10
483700.2315
 20
4631359.0605
  0
VERTEX
 8
PG-LI
 10
483706.6805
 20
4631358.335
  0
VERTEX
 8
PG-LI
 10
483706.61
 20
4631357.7085
  0
SEQEND
  8
0
  0
LINE
  8
PG-LI
 10
483714.846
 20
4631371.0925
 11
483701.751
 21
4631372.5655
  0
POLYLINE
  8
PG-LI
 66
1
  0
VERTEX
 8
PG-LI
 10
483706.61
 20
4631357.7085
  0
VERTEX
 8
PG-LI
 10
483706.203
 20
4631354.0905
  0
VERTEX
 8
PG-LI
 10
483712.849
 20
4631353.343
  0
VERTEX
 8
PG-LI
 10
483713.256
 20
4631356.961
  0
SEQEND
  8
0
  0
LINE
  8
PG-LI
 10
483706.61
 20
4631357.7085
 11
483713.256
 21
4631356.961
  0
LINE
  8
PG-LI
 10
483713.256
 20
4631356.961
 11
483714.846
 21
4631371.0925
  0
LINE
  8
PG-LI
 10
483717.6985
 20
4631338.7695
 11
483713.816
 21
4631338.7695
  0
POLYLINE
  8
PG-LI
 66
1
  0
VERTEX
 8
PG-LI
 10
483713.816
 20
4631338.7695
  0
VERTEX
 8
PG-LI
 10
483713.816
 20
4631331.8155
  0
VERTEX
 8
PG-LI
 10
483717.453
 20
4631331.9745
  0
SEQEND
  8
0
  0
LINE
  8
PG-LI
 10
483715.49
 20
4631266.0745
 11
483715.282
 21
4631277.535
  0
POLYLINE
  8
PG-LI
 66
1
  0
VERTEX
 8
PG-LI
 10
483722.0855
 20
4631274.3205
  0
VERTEX
 8
PG-LI
 10
483719.3275
 20
4631275.5055
  0
VERTEX
 8
PG-LI
 10
483715.282
 20
4631277.535
  0
SEQEND
  8
0
  0
LINE
  8
PG-LP
 10
483717.603
 20
4631336.0345
 11
483717.453
 21
4631331.9745
  0
LINE
  8
PG-LP
 10
483717.453
 20
4631331.9745
 11
483717.923
 21
4631324.8945
  0
LINE
  8
PG-LP
 10
483717.6985
 20
4631338.7695
 11
483717.603
 21
4631336.0345
  0
POLYLINE
  8
PG-LP
 66
1
  0
VERTEX
 8
PG-LP
 10
483721.1235
 20
4631369.905
  0
VERTEX
 8
PG-LP
 10
483719.533
 20
4631363.875
  0
VERTEX
 8
PG-LP
 10
483718.153
 20
4631353.1745
  0
VERTEX
 8
PG-LP
 10
483717.863
 20
4631343.4745
  0
VERTEX
 8
PG-LP
 10
483717.6985
 20
4631338.7695
  0
SEQEND
  8
0
  0
LINE
  8
PG-LP
 10
483717.923
 20
4631324.8945
 11
483719.073
 21
4631307.2345
  0
POLYLINE
  8
PG-LP
 66
1
  0
VERTEX
 8
PG-LP
 10
483719.073
 20
4631307.2345
  0
VERTEX
 8
PG-LP
 10
483720.8025
 20
4631292.9945
  0
VERTEX
 8
PG-LP
 10
483722.0025
 20
4631276.7945
  0
VERTEX
 8
PG-LP
 10
483722.0855
 20
4631274.3205
  0
SEQEND
  8
0
  0
LINE
  8
PG-LP
 10
483722.0855
 20
4631274.3205
 11
483722.5125
 21
4631261.5545
  0
ENDSEC
  0
EOF
